<svg width="1266" height="180" viewBox="0 0 1266 180" fill="currentColor" xmlns="http://www.w3.org/2000/svg">
<path fill-rule="evenodd" clip-rule="evenodd" d="M176.423 0.201914L213.442 0V32.4948H245.87V68.0721H213.442V127.758C213.442 132.738 214.68 136.359 217.17 138.661C219.647 140.963 223.295 142.255 228.074 142.538C232.853 142.821 238.789 142.78 245.87 142.39V175.962C220.428 178.829 202.484 176.433 192.065 168.787C181.633 161.141 176.423 147.465 176.423 127.758V0.201914ZM322.558 28.4834C342.642 28.4834 358.244 35.4697 369.336 49.4287V32.4948H406.354V175.989H369.336V159.055C358.23 173.014 342.642 180 322.558 180C303.43 180 287.02 172.677 273.344 158.045C259.667 143.413 252.829 125.47 252.829 104.242C252.829 83.0138 259.667 65.0703 273.344 50.4383C287.02 35.8062 302.474 28.4834 322.558 28.4834ZM329.45 144.705C340.933 144.705 350.436 140.936 358.001 133.371C365.553 125.82 369.336 116.101 369.336 104.242C369.336 92.3826 365.553 82.6773 358.001 75.1122C350.45 67.5606 340.919 63.7781 329.45 63.7781C317.981 63.7781 308.505 67.5606 301.047 75.1122C293.589 82.6773 289.861 92.3692 289.861 104.242C289.861 116.114 293.589 125.82 301.047 133.371C308.505 140.936 317.968 144.705 329.45 144.705ZM514.824 138.244C508.982 141.596 502.346 143.265 494.875 143.265C483.783 143.265 474.589 139.59 467.319 132.213C460.05 124.85 456.416 115.522 456.416 104.228C456.416 92.9344 460.05 83.3232 467.319 75.9601C474.589 68.5969 483.769 64.9086 494.875 64.9086C502.144 64.9086 508.699 66.6317 514.528 70.0777C520.357 73.5237 524.718 78.2081 527.585 84.1444L559.435 65.4875C553.498 54.2072 544.802 45.2153 533.32 38.5117C521.837 31.8216 509.117 28.4698 495.157 28.4698C473.539 28.4698 455.501 35.7388 441.07 50.2766C426.626 64.8144 419.398 82.7983 419.398 104.228C419.398 125.658 426.613 143.642 441.07 158.18C455.514 172.717 473.539 179.986 495.157 179.986C509.117 179.986 521.851 176.594 533.32 169.796C544.789 162.999 553.7 153.966 560.013 142.673L527.868 124.312C525.001 130.248 520.639 134.879 514.811 138.23L514.824 138.244ZM639.828 143.265C647.299 143.265 653.935 141.596 659.777 138.244L659.764 138.23C665.592 134.879 669.954 130.248 672.821 124.312L704.966 142.673C698.653 153.966 689.755 163.012 678.273 169.796C666.804 176.594 654.07 179.986 640.11 179.986C618.491 179.986 600.467 172.717 586.023 158.18C571.579 143.642 564.364 125.658 564.364 104.228C564.364 82.7983 571.579 64.8144 586.023 50.2766C600.453 35.7388 618.491 28.4698 640.11 28.4698C654.07 28.4698 666.79 31.8216 678.273 38.5117C689.755 45.2153 698.451 54.2072 704.388 65.4875L672.538 84.1444C669.671 78.2081 665.31 73.5237 659.481 70.0777C653.652 66.6317 647.097 64.9086 639.828 64.9086C628.722 64.9086 619.541 68.5969 612.272 75.9601C605.003 83.3232 601.369 92.9344 601.369 104.228C601.369 115.522 605.003 124.85 612.272 132.213C619.541 139.59 628.735 143.265 639.828 143.265ZM826.318 49.4287C815.226 35.4697 799.625 28.4834 779.54 28.4834C759.456 28.4834 744.003 35.8062 730.326 50.4383C716.65 65.0703 709.811 83.0138 709.811 104.242C709.811 125.47 716.65 143.413 730.326 158.045C744.003 172.677 760.412 180 779.54 180C799.625 180 815.213 173.014 826.318 159.055V175.989H863.336V32.4948H826.318V49.4287ZM814.984 133.371C807.419 140.936 797.915 144.705 786.432 144.705C774.95 144.705 765.487 140.936 758.029 133.371C750.572 125.82 746.843 116.114 746.843 104.242C746.843 92.3692 750.572 82.6773 758.029 75.1122C765.487 67.5606 774.964 63.7781 786.432 63.7781C797.901 63.7781 807.432 67.5606 814.984 75.1122C822.536 82.6773 826.318 92.3826 826.318 104.242C826.318 116.101 822.536 125.82 814.984 133.371ZM999.658 49.1459C1009.22 35.3753 1023.47 28.4833 1042.41 28.4833L1042.42 28.4698C1058.87 28.4698 1072.03 33.8273 1081.88 44.5422C1091.73 55.2571 1096.66 69.6065 1096.66 87.5904V175.975H1059.64V90.1749C1059.64 81.5733 1057.53 74.8698 1053.33 70.0911C1049.11 65.3125 1043.18 62.9164 1035.53 62.9164C1027.12 62.9164 1020.56 65.6894 1015.88 71.2353C1011.19 76.7947 1008.85 84.8309 1008.85 95.3439V175.975H971.833V90.1749C971.833 81.5733 969.72 74.8698 965.52 70.0911C961.307 65.3125 955.37 62.9164 947.724 62.9164C939.499 62.9164 932.944 65.6894 928.071 71.2353C923.184 76.7947 920.748 84.8309 920.748 95.3439V175.975H883.729V32.4947H920.748V47.7055C929.35 34.8907 943.04 28.4833 960.633 28.4833C978.227 28.4833 991.231 35.3753 999.658 49.1459ZM116.507 49.4282C105.415 35.4692 89.8133 28.483 69.7292 28.483C49.645 28.483 34.1915 35.8058 20.5149 50.4378C6.8383 65.0699 0 82.9999 0 104.241C0 125.483 6.8383 143.413 20.5149 158.045C34.1915 172.677 50.6008 180 69.7292 180C89.8133 180 105.401 173.013 116.507 159.054V175.988H153.525V32.4944H116.507V49.4282ZM105.173 133.371C97.6074 140.936 88.1037 144.705 76.6213 144.705C65.1389 144.705 55.6756 140.936 48.2181 133.371C40.7606 125.819 37.0318 116.114 37.0318 104.241C37.0318 92.3687 40.7606 82.6768 48.2181 75.1118C55.6756 67.5602 65.1523 63.7776 76.6213 63.7776C88.0903 63.7776 97.6208 67.5602 105.173 75.1118C112.724 82.6768 116.507 92.3822 116.507 104.241C116.507 116.1 112.724 125.819 105.173 133.371ZM1182.2 28.483C1202.29 28.483 1217.89 35.4692 1228.98 49.4282V32.4944H1266V175.988H1228.98V159.054C1217.88 173.013 1202.29 180 1182.2 180C1163.08 180 1146.67 172.677 1132.99 158.045C1119.31 143.413 1112.47 125.483 1112.47 104.241C1112.47 82.9999 1119.31 65.0699 1132.99 50.4378C1146.67 35.8058 1162.12 28.483 1182.2 28.483ZM1189.1 144.705C1200.58 144.705 1210.08 140.936 1217.65 133.371C1225.2 125.819 1228.98 116.1 1228.98 104.241C1228.98 92.3822 1225.2 82.6768 1217.65 75.1118C1210.1 67.5602 1200.56 63.7776 1189.1 63.7776C1177.63 63.7776 1168.15 67.5602 1160.69 75.1118C1153.24 82.6768 1149.51 92.3687 1149.51 104.241C1149.51 116.114 1153.24 125.819 1160.69 133.371C1168.15 140.936 1177.61 144.705 1189.1 144.705Z" fill="currentColor"/>
</svg>
