<svg width="153" height="50" viewBox="0 0 153 50" fill="none" xmlns="http://www.w3.org/2000/svg">
<path d="M1.10463 0H48.8166C49.3307 0.0909787 49.7945 0.486018 49.8854 1.01393C49.9476 1.47242 49.9069 1.93809 49.9153 2.39897C49.9165 17.5625 49.9129 32.726 49.9165 47.8883C49.9033 48.3145 49.9727 48.7598 49.8197 49.168C49.6164 49.672 49.0773 49.9928 48.5441 49.9952C32.8377 50 17.1314 49.9952 1.42622 49.9988C0.760332 50.0227 0.118354 49.5439 0 48.8771V1.1097C0.0824888 0.543478 0.540361 0.0861904 1.10463 0ZM36.1636 16.1308C34.6321 16.3139 33.1473 16.8957 31.9256 17.8414C30.4061 18.9798 29.317 20.6546 28.8113 22.4789C28.4096 24.0555 28.3857 25.729 28.7563 27.3152C29.2572 29.373 30.5005 31.2763 32.295 32.4267C34.1002 33.649 36.3584 34.0548 38.5031 33.8417C40.6072 33.6657 42.6324 32.6267 43.9869 31.0022C44.6587 30.2002 45.1011 29.2257 45.388 28.225C45.4537 28.0119 45.2457 27.8539 45.0616 27.8168C44.275 27.5869 43.4871 27.3654 42.7029 27.132C42.4901 27.0829 42.159 26.962 42.0514 27.235C41.7298 28.0143 41.2958 28.7744 40.6251 29.3047C38.4147 31.0764 34.7433 30.5701 33.1545 28.1998C32.1826 26.8304 32.0439 25.0347 32.387 23.4306C32.7098 21.9989 33.6758 20.7276 34.9896 20.0692C36.0392 19.4994 37.2825 19.424 38.4446 19.5975C39.5934 19.8202 40.6945 20.4559 41.3317 21.459C41.5803 21.8361 41.719 22.2694 41.921 22.6717C42.1099 22.8536 42.3682 22.7148 42.5798 22.6609C43.3652 22.3951 44.1614 22.1641 44.9456 21.8948C45.1596 21.8588 45.2218 21.6302 45.1692 21.4446C44.6348 19.5293 43.266 17.8689 41.4811 16.9915C39.8636 16.1224 37.9652 15.9416 36.1636 16.1308ZM6.34566 17.1088C6.34566 22.3413 6.34686 27.5761 6.34566 32.8086C6.34088 33.0001 6.35044 33.2491 6.58237 33.3018C7.45747 33.3509 8.33615 33.3018 9.21125 33.3234C9.42046 33.3042 9.69662 33.37 9.81975 33.1486C9.89627 32.7583 9.84366 32.3573 9.85562 31.9623C9.8616 28.7876 9.84247 25.6141 9.86638 22.4394C11.2735 25.9469 12.6662 29.4604 14.0625 32.9714C14.1199 33.1486 14.2443 33.3365 14.4583 33.3138C15.2999 33.321 16.1427 33.3281 16.9843 33.3102C17.1577 33.3305 17.2605 33.1641 17.3143 33.0265C18.725 29.4484 20.1249 25.8643 21.5439 22.2886C21.5595 25.8356 21.5475 29.3813 21.5619 32.9283C21.5248 33.1653 21.7555 33.3593 21.9839 33.3174C22.9486 33.3138 23.9134 33.3305 24.8769 33.309C25.1471 33.3222 25.2236 33.0193 25.2009 32.8062C25.2009 27.7772 25.1985 22.7471 25.2009 17.7181C25.1926 17.42 25.2332 17.1136 25.1579 16.8227C25.0575 16.6264 24.8148 16.6611 24.6331 16.6515C23.1913 16.6623 21.7495 16.6395 20.309 16.6623C20.1081 16.6419 20.0197 16.8394 19.9635 16.9939C18.5624 20.6306 17.1589 24.2662 15.7554 27.9017C14.3399 24.4541 12.9448 20.9981 11.5413 17.5457C11.4217 17.2656 11.3344 16.9663 11.1575 16.715C11.0009 16.6276 10.8108 16.6623 10.6387 16.6479C9.32363 16.6611 8.00739 16.6383 6.69355 16.6587C6.43652 16.6312 6.31697 16.8885 6.34686 17.1088H6.34566Z" fill="currentColor"/>
<path d="M92.4722 1.99683C94.4077 1.67242 96.4484 1.846 98.2607 2.62291C100.392 3.52073 102.154 5.26848 103.057 7.40289C103.825 9.07642 103.997 10.9678 103.807 12.7838C103.524 15.2187 102.276 17.5518 100.335 19.0601C97.0605 21.6243 92.1362 21.7141 88.71 19.3929C87.2192 18.4041 86.0978 16.9173 85.4152 15.2749C84.717 13.5344 84.5784 11.5999 84.8473 9.75397C85.1546 7.67702 86.1827 5.7102 87.7309 4.29285C89.0399 3.0814 90.7196 2.2985 92.4722 1.99683ZM93.1907 5.96399C91.7274 6.25129 90.3609 7.15988 89.67 8.50301C89.016 9.65341 88.8989 11.0277 89.0316 12.3217C89.193 14.0312 90.2259 15.67 91.7824 16.4325C93.211 17.1304 94.9373 17.1939 96.4149 16.6025C97.4669 16.1895 98.3504 15.3899 98.88 14.3915C99.565 13.2327 99.6571 11.8333 99.5244 10.5237C99.3546 8.96269 98.4939 7.44478 97.125 6.63914C95.9535 5.95082 94.5248 5.68626 93.1907 5.96399Z" fill="currentColor"/>
<path d="M62.2589 2.39797C62.3916 2.18249 62.6606 2.23995 62.8746 2.22559C64.3534 2.23636 65.8322 2.22199 67.3111 2.23277C67.494 2.20524 67.6362 2.33572 67.6888 2.50331C69.3482 6.55905 70.9764 10.628 72.6453 14.6801C74.1899 10.6399 75.756 6.60813 77.3077 2.57154C77.3639 2.39557 77.4847 2.19925 77.7023 2.23277C79.3795 2.22678 81.058 2.22559 82.7353 2.23397C83.0234 2.20045 83.119 2.51289 83.0939 2.74273C83.0975 8.53305 83.0915 14.3222 83.0963 20.1113C83.1238 20.3579 83.0365 20.7038 82.7221 20.6679C81.6127 20.6763 80.5021 20.6787 79.3927 20.6679C79.1524 20.6931 79.0125 20.4489 79.046 20.2346C79.0352 16.3237 79.0711 12.4116 79.0508 8.49953C77.4751 12.4834 75.9246 16.4757 74.3405 20.4549C74.2772 20.717 73.9664 20.6811 73.7607 20.6883C72.8844 20.6751 72.0081 20.7027 71.133 20.6751C70.8928 20.6895 70.8294 20.4177 70.7505 20.2478C69.2215 16.3752 67.6649 12.5158 66.1395 8.64198C66.1215 12.5086 66.1383 16.3764 66.1311 20.243C66.1718 20.474 66.002 20.7134 65.7533 20.6811C64.6822 20.6859 63.6086 20.6955 62.5375 20.6763C62.3055 20.6859 62.1956 20.4333 62.229 20.2346C62.229 14.6478 62.2302 9.06216 62.229 3.47535C62.2338 3.11742 62.2027 2.7547 62.2589 2.39916V2.39797Z" fill="currentColor"/>
<path d="M105.5 2.62765C105.466 2.38824 105.673 2.18234 105.916 2.23142C107.43 2.2398 108.949 2.20029 110.462 2.25177C110.686 2.4457 110.805 2.72701 110.967 2.97002C113.111 6.45355 115.26 9.93349 117.408 13.4146C117.419 9.81617 117.405 6.21772 117.415 2.61927C117.378 2.41936 117.537 2.21466 117.749 2.23381C118.907 2.22902 120.068 2.21705 121.227 2.2398C121.492 2.23381 121.53 2.54865 121.518 2.74976C121.517 8.53768 121.516 14.3256 121.518 20.1135C121.505 20.2895 121.543 20.5086 121.366 20.6175C121.209 20.6941 121.028 20.6642 120.863 20.6762C119.784 20.6702 118.706 20.6714 117.628 20.6762C117.422 20.6702 117.153 20.7013 117.053 20.4739C114.559 16.5079 112.076 12.5336 109.583 8.56641C109.575 12.4569 109.583 16.3475 109.58 20.238C109.608 20.4427 109.483 20.6798 109.251 20.6654C108.104 20.6774 106.956 20.6821 105.809 20.663C105.58 20.669 105.472 20.4284 105.496 20.2308C105.496 14.3639 105.492 8.49578 105.498 2.62765H105.5Z" fill="currentColor"/>
<path d="M123.482 2.48744C123.505 2.24324 123.767 2.20134 123.965 2.2181C128.833 2.22289 133.701 2.21331 138.568 2.22289C138.795 2.18697 138.96 2.40245 138.931 2.61673C138.929 3.70369 138.951 4.79304 138.921 5.8788C138.903 6.12061 138.633 6.16131 138.444 6.14694C136.711 6.14455 134.98 6.14455 133.248 6.14694C133.246 10.8443 133.252 15.5429 133.246 20.2403C133.265 20.433 133.145 20.6652 132.928 20.6473C131.78 20.6604 130.632 20.6557 129.486 20.6497C129.255 20.6784 129.101 20.4474 129.134 20.2355C129.13 15.5393 129.134 10.8431 129.132 6.14575C127.369 6.14216 125.604 6.15053 123.841 6.14335C123.621 6.17448 123.446 5.97097 123.473 5.76028C123.473 4.66974 123.452 3.57679 123.482 2.48744Z" fill="currentColor"/>
<path d="M140.908 2.62661C140.863 2.39557 141.062 2.19446 141.295 2.23157C144.727 2.22319 148.16 2.23396 151.592 2.22678C151.864 2.23157 152.142 2.20643 152.413 2.26149C152.641 2.38599 152.567 2.66731 152.589 2.88039C152.577 3.84045 152.595 4.79932 152.58 5.75819C152.604 5.97726 152.396 6.13168 152.194 6.11133C149.805 6.12211 147.414 6.11133 145.023 6.11612V9.61641C147.173 9.62 149.323 9.61282 151.472 9.6188C151.661 9.59845 151.889 9.71816 151.874 9.93483C151.898 10.8937 151.881 11.8526 151.882 12.8126C151.927 13.0568 151.723 13.2783 151.477 13.2424C149.325 13.252 147.174 13.2424 145.023 13.2472C145.025 14.4179 145.017 15.5887 145.027 16.7582C147.378 16.7439 149.728 16.7534 152.078 16.7534C152.305 16.7319 152.626 16.8217 152.592 17.1138C152.597 18.1924 152.602 19.2721 152.59 20.3507C152.609 20.6308 152.289 20.6943 152.076 20.6739C148.483 20.6691 144.89 20.6787 141.299 20.6691C141.048 20.705 140.851 20.474 140.904 20.2322C140.906 14.3641 140.901 8.49474 140.908 2.62661Z" fill="currentColor"/>
<path d="M69.6315 29.0546C71.7116 28.7386 73.9388 28.9026 75.8253 29.895C77.6162 30.788 79.0209 32.3945 79.6868 34.2823C79.78 34.5756 80.0621 35.0688 79.633 35.222C78.6204 35.5572 77.5982 35.8625 76.5833 36.1905C76.398 36.2563 76.1122 36.3209 76.0178 36.0899C75.7321 35.38 75.3985 34.6642 74.8127 34.1506C72.9382 32.4232 69.7594 32.525 67.904 34.232C66.7575 35.2483 66.1562 36.7926 66.161 38.3117C66.1024 39.6297 66.4575 40.9872 67.2895 42.0263C68.9692 44.2038 72.4385 44.6682 74.6298 43.0103C75.3639 42.4704 75.8456 41.6671 76.1899 40.8376C76.2461 40.6137 76.5115 40.579 76.698 40.6532C77.7477 40.9561 78.7997 41.2505 79.847 41.563C80.0454 41.5941 80.1912 41.8144 80.11 42.0095C79.4763 44.1655 77.9724 46.076 75.952 47.084C74.2054 48.0404 72.1492 48.2284 70.197 48.05C68.4145 47.8776 66.687 47.1893 65.2859 46.0712C63.5608 44.7245 62.4275 42.6978 62.0198 40.5598C61.6086 38.2435 61.8751 35.7487 63.0587 33.6885C64.3964 31.2501 66.8926 29.5023 69.6315 29.0546Z" fill="currentColor"/>
<path d="M141.611 29.0594C144.452 28.5686 147.551 29.2486 149.748 31.1699C151.255 32.4268 152.276 34.2081 152.732 36.1067C153.116 37.8269 153.095 39.6501 152.62 41.3511C151.972 43.5945 150.481 45.6068 148.46 46.7919C145.088 48.7791 140.524 48.5492 137.41 46.1563C135.376 44.612 134.09 42.1616 133.875 39.6237C133.683 37.5312 134.018 35.3442 135.105 33.5222C136.431 31.128 138.933 29.5 141.611 29.0594ZM142.443 33.0122C141.385 33.1942 140.377 33.6958 139.614 34.4559C138.573 35.5369 138.074 37.0596 138.128 38.5488C138.097 39.9996 138.599 41.4661 139.603 42.5255C141.324 44.296 144.292 44.5402 146.357 43.2425C147.302 42.6667 147.974 41.721 148.372 40.7011C148.749 39.6393 148.792 38.4817 148.64 37.3732C148.436 36.0026 147.711 34.6702 146.552 33.8849C145.373 33.0541 143.855 32.7536 142.443 33.0122Z" fill="currentColor"/>
<path d="M87.4539 29.6351C87.5137 29.4472 87.6284 29.2341 87.8639 29.276C89.2997 29.276 90.7379 29.258 92.1725 29.2844C92.3745 29.2556 92.4199 29.5022 92.4941 29.6351C94.6627 35.4745 96.8361 41.3115 99.0071 47.1497C99.135 47.3664 99.0298 47.7255 98.7393 47.7028C97.4721 47.7124 96.2049 47.716 94.9388 47.7004C94.7093 47.7183 94.6471 47.4586 94.5778 47.2946C94.1905 46.1897 93.7924 45.0883 93.4003 43.9858C91.0392 43.9858 88.6769 43.9822 86.3158 43.9882C85.895 45.1506 85.4933 46.3213 85.0641 47.4813C84.9804 47.777 84.6361 47.6968 84.4078 47.7124C83.3043 47.6992 82.1997 47.7243 81.0963 47.7004C80.7998 47.6896 80.7687 47.3281 80.8787 47.1174C83.07 41.29 85.2637 35.4625 87.4539 29.6351ZM89.3595 35.5068C88.8 37.0858 88.2369 38.6636 87.681 40.2437C89.1622 40.2437 90.6434 40.2437 92.1259 40.2437C91.3942 38.1045 90.6387 35.9737 89.913 33.8321C89.7875 34.4079 89.54 34.9478 89.3595 35.5068Z" fill="currentColor"/>
<path d="M101.482 29.457C101.577 29.2667 101.794 29.287 101.975 29.2822C104.883 29.2846 107.791 29.2798 110.7 29.2846C112.386 29.2966 114.102 29.9837 115.194 31.2969C116.155 32.4725 116.614 34.0335 116.49 35.5442C116.398 36.8383 115.902 38.1766 114.875 39.0146C113.817 39.8633 112.444 40.2236 111.109 40.2679C112.865 42.5472 114.622 44.8252 116.377 47.1045C116.648 47.3307 116.438 47.7928 116.089 47.7258C114.84 47.709 113.58 47.7772 112.336 47.6911C110.521 45.4537 108.791 43.1409 107.01 40.8736C106.523 40.8712 106.038 40.8712 105.552 40.8736C105.545 43.0499 105.559 45.2263 105.546 47.4026C105.562 47.5941 105.396 47.7533 105.207 47.7342C104.054 47.7389 102.901 47.7497 101.748 47.7282C101.518 47.7354 101.419 47.478 101.449 47.2852C101.449 41.6589 101.449 36.0326 101.448 30.4063C101.453 30.0903 101.421 29.7694 101.482 29.457ZM105.543 32.8747C105.544 34.3603 105.54 35.8471 105.544 37.3338C106.906 37.335 108.268 37.3374 109.631 37.3326C110.279 37.3279 110.973 37.25 111.505 36.843C112.62 36.0374 112.616 34.1149 111.49 33.32C110.988 32.9621 110.352 32.8735 109.751 32.8723C108.347 32.8747 106.945 32.8723 105.543 32.8747Z" fill="currentColor"/>
<path d="M120.043 29.6808C120.014 29.4797 120.162 29.2821 120.377 29.3001C121.502 29.2857 122.63 29.2929 123.756 29.2965C123.973 29.275 124.181 29.4545 124.137 29.6832C124.146 34.3877 124.138 39.0923 124.141 43.798C127.114 43.7968 130.087 43.8004 133.062 43.7956C133.23 43.8016 133.423 43.7897 133.567 43.8998C133.671 44.0482 133.651 44.2398 133.663 44.4133C133.663 45.3351 133.66 46.2569 133.663 47.1798C133.653 47.3414 133.659 47.5234 133.553 47.6586C133.406 47.7532 133.223 47.7329 133.06 47.7412C128.834 47.7305 124.609 47.7484 120.385 47.7329C120.133 47.7604 120 47.5078 120.039 47.2887C120.043 41.4206 120.033 35.5501 120.043 29.6808Z" fill="currentColor"/>
</svg>
