<svg version="1.1" xmlns="http://www.w3.org/2000/svg" viewBox="0 0 346.54895977031777 303.938482438909" width="346.54895977031777" height="303.938482438909">
    <!-- svg-source:excalidraw -->

    <defs>
        <style class="style-fonts">
            @font-face {
            font-family: "Virgil";
            src: url("https://excalidraw.com/Virgil.woff2");
            }
            @font-face {
            font-family: "Cascadia";
            src: url("https://excalidraw.com/Cascadia.woff2");
            }
            @font-face {
            font-family: "Assistant";
            src: url("https://excalidraw.com/Assistant-Regular.woff2");
            }
        </style>
        <clipPath id="V1UD6cKPS-zfeFNAbjVqu">
            <rect transform="translate(0 0) rotate(0 173.27447988515888 151.9692412194545)" width="346.5489597703179" height="303.93848243890903">
            </rect>
        </clipPath>
    </defs>
    <rect x="0" y="0" width="346.54895977031777" height="303.938482438909" fill="#ffffff"></rect><g clip-path="url(#V1UD6cKPS-zfeFNAbjVqu)"><g transform="translate(166.835742889416 103.65718419438645) rotate(0 0.00004999999998744897 0.00004999999998744897)" stroke="none"><path fill="transparent" d="M 1.57,-1.57 Q 1.57,-1.57 1.77,-1.27 1.98,-0.98 2.09,-0.64 2.20,-0.29 2.19,0.05 2.18,0.41 2.05,0.75 1.93,1.09 1.70,1.37 1.48,1.65 1.18,1.84 0.87,2.04 0.52,2.12 0.18,2.21 -0.17,2.18 -0.53,2.15 -0.86,2.01 -1.19,1.87 -1.46,1.63 -1.73,1.39 -1.90,1.07 -2.08,0.76 -2.15,0.41 -2.21,0.05 -2.17,-0.29 -2.12,-0.65 -1.96,-0.97 -1.80,-1.29 -1.54,-1.54 -1.29,-1.80 -0.97,-1.96 -0.65,-2.12 -0.29,-2.17 0.06,-2.21 0.41,-2.15 0.76,-2.08 1.07,-1.90 1.39,-1.73 1.63,-1.46 1.87,-1.19 2.01,-0.86 2.15,-0.53 2.18,-0.17 2.21,0.18 2.12,0.52 2.03,0.87 1.84,1.18 1.65,1.48 1.37,1.70 1.09,1.93 0.75,2.05 0.41,2.18 0.05,2.19 -0.30,2.20 -0.64,2.09 -0.98,1.98 -1.27,1.77 -1.57,1.56 -1.57,1.57 -1.57,1.57 -1.73,1.35 -1.90,1.14 -2.01,0.90 -2.12,0.66 -2.16,0.39 -2.21,0.13 -2.20,-0.13 -2.18,-0.40 -2.10,-0.65 -2.02,-0.91 -1.88,-1.14 -1.74,-1.36 -1.55,-1.55 -1.36,-1.74 -1.14,-1.88 -0.91,-2.02 -0.65,-2.10 -0.40,-2.18 -0.13,-2.20 0.13,-2.21 0.39,-2.16 0.66,-2.12 0.90,-2.01 1.14,-1.90 1.35,-1.73 1.57,-1.57 1.57,-1.57 L 1.57,-1.57 Z"></path></g></g><g clip-path="url(#V1UD6cKPS-zfeFNAbjVqu)"><g transform="translate(166.835742889416 103.65718419438645) rotate(0 0.00004999999998744897 0.00004999999998744897)" stroke="none"><path fill="transparent" d="M 1.57,-1.57 Q 1.57,-1.57 1.77,-1.27 1.98,-0.98 2.09,-0.64 2.20,-0.29 2.19,0.05 2.18,0.41 2.05,0.75 1.93,1.09 1.70,1.37 1.48,1.65 1.18,1.84 0.87,2.04 0.52,2.12 0.18,2.21 -0.17,2.18 -0.53,2.15 -0.86,2.01 -1.19,1.87 -1.46,1.63 -1.73,1.39 -1.90,1.07 -2.08,0.76 -2.15,0.41 -2.21,0.05 -2.17,-0.29 -2.12,-0.65 -1.96,-0.97 -1.80,-1.29 -1.54,-1.54 -1.29,-1.80 -0.97,-1.96 -0.65,-2.12 -0.29,-2.17 0.06,-2.21 0.41,-2.15 0.76,-2.08 1.07,-1.90 1.39,-1.73 1.63,-1.46 1.87,-1.19 2.01,-0.86 2.15,-0.53 2.18,-0.17 2.21,0.18 2.12,0.52 2.03,0.87 1.84,1.18 1.65,1.48 1.37,1.70 1.09,1.93 0.75,2.05 0.41,2.18 0.05,2.19 -0.30,2.20 -0.64,2.09 -0.98,1.98 -1.27,1.77 -1.57,1.56 -1.57,1.57 -1.57,1.57 -1.73,1.35 -1.90,1.14 -2.01,0.90 -2.12,0.66 -2.16,0.39 -2.21,0.13 -2.20,-0.13 -2.18,-0.40 -2.10,-0.65 -2.02,-0.91 -1.88,-1.14 -1.74,-1.36 -1.55,-1.55 -1.36,-1.74 -1.14,-1.88 -0.91,-2.02 -0.65,-2.10 -0.40,-2.18 -0.13,-2.20 0.13,-2.21 0.39,-2.16 0.66,-2.12 0.90,-2.01 1.14,-1.90 1.35,-1.73 1.57,-1.57 1.57,-1.57 L 1.57,-1.57 Z"></path></g></g><g clip-path="url(#V1UD6cKPS-zfeFNAbjVqu)"><g transform="translate(166.835742889416 103.65718419438645) rotate(0 0.00004999999998744897 0.00004999999998744897)" stroke="none"><path fill="transparent" d="M 1.57,-1.57 Q 1.57,-1.57 1.77,-1.27 1.98,-0.98 2.09,-0.64 2.20,-0.29 2.19,0.05 2.18,0.41 2.05,0.75 1.93,1.09 1.70,1.37 1.48,1.65 1.18,1.84 0.87,2.04 0.52,2.12 0.18,2.21 -0.17,2.18 -0.53,2.15 -0.86,2.01 -1.19,1.87 -1.46,1.63 -1.73,1.39 -1.90,1.07 -2.08,0.76 -2.15,0.41 -2.21,0.05 -2.17,-0.29 -2.12,-0.65 -1.96,-0.97 -1.80,-1.29 -1.54,-1.54 -1.29,-1.80 -0.97,-1.96 -0.65,-2.12 -0.29,-2.17 0.06,-2.21 0.41,-2.15 0.76,-2.08 1.07,-1.90 1.39,-1.73 1.63,-1.46 1.87,-1.19 2.01,-0.86 2.15,-0.53 2.18,-0.17 2.21,0.18 2.12,0.52 2.03,0.87 1.84,1.18 1.65,1.48 1.37,1.70 1.09,1.93 0.75,2.05 0.41,2.18 0.05,2.19 -0.30,2.20 -0.64,2.09 -0.98,1.98 -1.27,1.77 -1.57,1.56 -1.57,1.57 -1.57,1.57 -1.73,1.35 -1.90,1.14 -2.01,0.90 -2.12,0.66 -2.16,0.39 -2.21,0.13 -2.20,-0.13 -2.18,-0.40 -2.10,-0.65 -2.02,-0.91 -1.88,-1.14 -1.74,-1.36 -1.55,-1.55 -1.36,-1.74 -1.14,-1.88 -0.91,-2.02 -0.65,-2.10 -0.40,-2.18 -0.13,-2.20 0.13,-2.21 0.39,-2.16 0.66,-2.12 0.90,-2.01 1.14,-1.90 1.35,-1.73 1.57,-1.57 1.57,-1.57 L 1.57,-1.57 Z"></path></g></g><g clip-path="url(#V1UD6cKPS-zfeFNAbjVqu)"><g stroke-linecap="round" transform="translate(75.01740293921546 188.2562761886154) rotate(0 99.13468167922377 27.9620279431241)"><path d="M13.98 0 C75.29 -0.85, 136.44 -1, 184.29 0 M13.98 0 C73.27 0.83, 131.1 0.02, 184.29 0 M184.29 0 C191.82 -1.07, 199.49 6.32, 198.27 13.98 M184.29 0 C192.9 0.01, 199.14 6.82, 198.27 13.98 M198.27 13.98 C199.86 17.74, 200 25.4, 198.27 41.94 M198.27 13.98 C198.67 23.91, 199.37 33.26, 198.27 41.94 M198.27 41.94 C199.43 50.18, 192.26 55.98, 184.29 55.92 M198.27 41.94 C200.04 50.75, 192.23 56.7, 184.29 55.92 M184.29 55.92 C138.22 55.56, 89.77 56.84, 13.98 55.92 M184.29 55.92 C146.44 56.01, 110.41 56.71, 13.98 55.92 M13.98 55.92 C5.93 55.28, 0.52 51.56, 0 41.94 M13.98 55.92 C6.63 54.54, 1.39 50.07, 0 41.94 M0 41.94 C-0.59 34.05, -0.39 26.2, 0 13.98 M0 41.94 C0.22 32.9, 0.71 25.89, 0 13.98 M0 13.98 C1.37 4.65, 5.06 1.61, 13.98 0 M0 13.98 C-0.31 5.73, 6.51 0.49, 13.98 0" stroke="#1e1e1e" stroke-width="1" fill="none"></path></g></g><g clip-path="url(#V1UD6cKPS-zfeFNAbjVqu)"><g transform="translate(91.5281374748846 196.21830413173961) rotate(0 82.62394714355469 20)"><text x="82.62394714355469" y="0" font-family="Virgil, Segoe UI Emoji" font-size="16px" fill="#1e1e1e" text-anchor="middle" style="white-space: pre;" direction="ltr" dominant-baseline="text-before-edge">cartesian product of</text><text x="82.62394714355469" y="20" font-family="Virgil, Segoe UI Emoji" font-size="16px" fill="#1e1e1e" text-anchor="middle" style="white-space: pre;" direction="ltr" dominant-baseline="text-before-edge">matching rows</text></g></g><g clip-path="url(#V1UD6cKPS-zfeFNAbjVqu)"><g stroke-linecap="round"><g transform="translate(165.31384116378774 154.89759992972245) rotate(0 0.38735190436023004 15.979849656719466)"><path d="M-0.08 0.24 C0.09 5.55, 0.8 26.42, 1.02 31.71 M-0.79 -0.12 C-0.66 5.28, 0.4 26.83, 0.72 32.28" stroke="#1e1e1e" stroke-width="1" fill="none"></path></g><g transform="translate(165.31384116378774 154.89759992972245) rotate(0 0.38735190436023004 15.979849656719466)"><path d="M-5.53 17.57 C-3.38 22.23, -2.27 26.84, 0.72 32.28 M-5.53 17.57 C-3.97 21.87, -1.46 26.9, 0.72 32.28" stroke="#1e1e1e" stroke-width="1" fill="none"></path></g><g transform="translate(165.31384116378774 154.89759992972245) rotate(0 0.38735190436023004 15.979849656719466)"><path d="M5.39 16.99 C4.35 21.81, 2.28 26.59, 0.72 32.28 M5.39 16.99 C3.62 21.43, 2.8 26.64, 0.72 32.28" stroke="#1e1e1e" stroke-width="1" fill="none"></path></g></g><mask></mask></g><g clip-path="url(#V1UD6cKPS-zfeFNAbjVqu)"><g stroke-linecap="round" transform="translate(156.93035032378066 76.17135065660318) rotate(0 47.09375 44.78515625)"><path d="M6.66 23.02 C6.66 23.02, 6.66 23.02, 6.66 23.02 M6.66 23.02 C6.66 23.02, 6.66 23.02, 6.66 23.02 M0.23 42.6 C9.78 32.57, 19.31 20.04, 33.04 4.87 M0.23 42.6 C12.48 27.58, 25.01 13.37, 33.04 4.87 M1.68 53.14 C10.34 44.4, 20.59 30.44, 45.64 2.57 M1.68 53.14 C16.26 36.1, 30.83 19.64, 45.64 2.57 M5.09 61.4 C18.43 48.9, 30.77 32.24, 56.27 2.54 M5.09 61.4 C18.85 47.09, 30.37 31.92, 56.27 2.54 M8.51 69.67 C25.87 52.31, 41.68 33.31, 64.27 5.52 M8.51 69.67 C21.57 53.71, 36.55 38.13, 64.27 5.52 M14.54 74.92 C31.84 55.1, 51.2 32.98, 72.28 8.5 M14.54 74.92 C32.07 54.12, 51.44 33.34, 72.28 8.5 M21.24 79.41 C37.3 60.09, 52.38 43.74, 79.63 12.24 M21.24 79.41 C45.39 51.89, 68.15 24.82, 79.63 12.24 M27.28 84.66 C51.15 59.34, 74 32.94, 84.35 19 M27.28 84.66 C43.46 64.97, 58.88 47.57, 84.35 19 M35.94 86.89 C56.43 65.46, 76.09 44.35, 88.42 26.51 M35.94 86.89 C48.5 72.17, 62.75 56.36, 88.42 26.51 M45.91 87.61 C56.45 77.44, 65.05 66.54, 92.49 34.03 M45.91 87.61 C63.9 66.9, 81.17 45.51, 92.49 34.03 M55.89 88.33 C62.37 77.25, 72 68.54, 93.28 45.31 M55.89 88.33 C63.45 79, 71.32 70.17, 93.28 45.31 M74.39 79.24 C78.38 74.33, 82.55 69.23, 89.48 61.88 M74.39 79.24 C81.42 71.6, 86.66 66.23, 89.48 61.88" stroke="#1e1e1e" stroke-width="1" fill="none"></path><path d="M51.76 0.88 C60.11 1.2, 70.92 4.65, 77.6 9.7 C84.28 14.75, 89.16 23.61, 91.83 31.17 C94.5 38.73, 95.81 47.37, 93.62 55.06 C91.43 62.76, 84.94 71.86, 78.69 77.33 C72.44 82.81, 64.28 86.44, 56.14 87.9 C48 89.35, 37.74 88.9, 29.84 86.07 C21.94 83.25, 13.89 77.57, 8.77 70.96 C3.65 64.36, -0.58 54.47, -0.88 46.42 C-1.19 38.37, 2.45 29.55, 6.95 22.69 C11.45 15.82, 17.46 8.88, 26.13 5.25 C34.81 1.62, 52.33 0.87, 59 0.92 C65.66 0.97, 66.28 4.83, 66.12 5.56 M54.69 1.55 C62.8 2.31, 72.33 6.66, 78.8 11.74 C85.28 16.82, 91.56 24.09, 93.54 32.04 C95.51 39.99, 93.57 51.8, 90.64 59.44 C87.71 67.08, 82.19 72.98, 75.96 77.88 C69.72 82.78, 61.3 87.71, 53.21 88.82 C45.11 89.94, 35.06 87.98, 27.4 84.55 C19.74 81.12, 11.58 75.22, 7.23 68.26 C2.88 61.29, 1 50.98, 1.3 42.74 C1.6 34.5, 4.61 25.12, 9.04 18.84 C13.48 12.57, 20.07 8.16, 27.91 5.09 C35.74 2.01, 51.65 1.01, 56.03 0.4 C60.41 -0.21, 54.7 0.65, 54.19 1.43" stroke="#1e1e1e" stroke-width="2" fill="none"></path></g></g><g clip-path="url(#V1UD6cKPS-zfeFNAbjVqu)"><g transform="translate(196.95379370421028 108.28861922572901) rotate(0 7.269996643066406 12.5)"><text x="7.269996643066406" y="0" font-family="Virgil, Segoe UI Emoji" font-size="20px" fill="#1e1e1e" text-anchor="middle" style="white-space: pre;" direction="ltr" dominant-baseline="text-before-edge">B</text></g></g><g clip-path="url(#V1UD6cKPS-zfeFNAbjVqu)"><g stroke-linecap="round" transform="translate(80.42514679628312 72.34938253959695) rotate(0 47.09375 44.78515625)"><path d="M11.62 14.07 C11.62 14.07, 11.62 14.07, 11.62 14.07 M11.62 14.07 C11.62 14.07, 11.62 14.07, 11.62 14.07 M1.25 38.19 C14.16 27.32, 22.07 12.7, 30.77 4.23 M1.25 38.19 C7.2 31.24, 14 22.54, 30.77 4.23 M2.7 48.72 C17.93 30.23, 31.51 14.53, 39.44 6.46 M2.7 48.72 C11.1 39.21, 20.83 28.99, 39.44 6.46 M4.14 59.25 C20.93 36.83, 39.4 18.97, 50.07 6.42 M4.14 59.25 C17.67 43.43, 31.77 29.02, 50.07 6.42 M8.21 66.76 C27.35 41.75, 50.28 17.68, 62.67 4.12 M8.21 66.76 C24.7 46.92, 40.49 27.73, 62.67 4.12 M13.59 72.77 C33.96 48.51, 55.44 25.17, 70.01 7.86 M13.59 72.77 C31.98 51.62, 51.89 29.2, 70.01 7.86 M18.32 79.53 C36.67 59.55, 52.83 43.13, 77.36 11.6 M18.32 79.53 C34.21 63.42, 48.32 45.91, 77.36 11.6 M23.7 85.53 C43.68 62.71, 67.01 38.57, 84.71 15.34 M23.7 85.53 C37.52 69.64, 49.94 55.27, 84.71 15.34 M32.36 87.76 C49.64 66.96, 68.8 43.84, 88.13 23.61 M32.36 87.76 C49.27 65.94, 67.78 45.89, 88.13 23.61 M40.37 90.74 C58.95 70.22, 75.91 51.7, 90.89 32.63 M40.37 90.74 C57.04 72.34, 75.37 51.25, 90.89 32.63 M49.03 92.97 C58.52 79.22, 71.77 66.2, 94.95 40.14 M49.03 92.97 C62.87 77.13, 75.12 62, 94.95 40.14 M63.6 88.41 C75.87 76.75, 82.77 67.33, 93.12 54.45 M63.6 88.41 C70.72 80.5, 77.28 73.53, 93.12 54.45" stroke="#1e1e1e" stroke-width="1" fill="none"></path><path d="M61.24 2.45 C69.15 4.05, 78.85 9.09, 84.22 15.17 C89.59 21.26, 92.43 30.94, 93.46 38.94 C94.49 46.94, 93.85 55.87, 90.39 63.19 C86.93 70.52, 79.99 78.38, 72.7 82.9 C65.4 87.42, 55.42 90.45, 46.63 90.33 C37.84 90.21, 27.03 86.65, 19.96 82.17 C12.88 77.7, 7.38 70.82, 4.15 63.48 C0.93 56.14, -0.64 46.35, 0.59 38.13 C1.83 29.9, 5.88 20.09, 11.57 14.13 C17.26 8.16, 26.12 4.33, 34.74 2.35 C43.35 0.36, 58.11 1.89, 63.27 2.2 C68.42 2.52, 65.96 3.48, 65.67 4.24 M62.16 0.83 C69.84 2.69, 76.88 10.91, 81.99 17.06 C87.09 23.22, 91.41 30, 92.77 37.78 C94.13 45.55, 93.48 56.29, 90.15 63.73 C86.81 71.17, 80.01 78.09, 72.74 82.43 C65.48 86.78, 55.01 90.01, 46.58 89.79 C38.15 89.56, 29.12 85.74, 22.16 81.08 C15.2 76.42, 8.51 68.83, 4.79 61.82 C1.08 54.82, -1.5 46.94, -0.11 39.06 C1.29 31.19, 7.45 20.84, 13.15 14.58 C18.84 8.32, 26.25 3.58, 34.06 1.5 C41.87 -0.58, 55.67 1.77, 59.99 2.09 C64.3 2.41, 59.98 2.84, 59.97 3.4" stroke="#1e1e1e" stroke-width="2" fill="none"></path></g></g><g clip-path="url(#V1UD6cKPS-zfeFNAbjVqu)"><g transform="translate(121.1585892611854 104.46665110872277) rotate(0 6.55999755859375 12.5)"><text x="6.55999755859375" y="0" font-family="Virgil, Segoe UI Emoji" font-size="20px" fill="#1e1e1e" text-anchor="middle" style="white-space: pre;" direction="ltr" dominant-baseline="text-before-edge">A</text></g></g><g clip-path="url(#V1UD6cKPS-zfeFNAbjVqu)"><g transform="translate(11.886362450856723 16.79589459163276) rotate(0 53.373085021972656 13.113807563247065)"><text x="0" y="0" font-family="Virgil, Segoe UI Emoji" font-size="20.982092101195235px" fill="#1e1e1e" text-anchor="start" style="white-space: pre;" direction="ltr" dominant-baseline="text-before-edge">Cross Join</text></g></g></svg>