<svg version="1.1" xmlns="http://www.w3.org/2000/svg" viewBox="0 0 383.3304831524558 388.7528732703221" width="383.3304831524558" height="388.7528732703221">
    <!-- svg-source:excalidraw -->

    <defs>
        <style class="style-fonts">
            @font-face {
            font-family: "Virgil";
            src: url("https://excalidraw.com/Virgil.woff2");
            }
            @font-face {
            font-family: "Cascadia";
            src: url("https://excalidraw.com/Cascadia.woff2");
            }
            @font-face {
            font-family: "Assistant";
            src: url("https://excalidraw.com/Assistant-Regular.woff2");
            }
        </style>
        <clipPath id="wJc49-F7KLvceCub_ZB9O">
            <rect transform="translate(0 0) rotate(0 191.6652415762279 194.37643663516104)" width="383.3304831524558" height="388.7528732703221">
            </rect>
        </clipPath>
    </defs>
    <rect x="0" y="0" width="383.3304831524558" height="388.7528732703221" fill="#ffffff"></rect><g clip-path="url(#wJc49-F7KLvceCub_ZB9O)"><g transform="translate(197.2288135025119 141.83035573418658) rotate(0 0.00004999999998744897 0.00004999999998744897)" stroke="none"><path fill="transparent" d="M 1.57,-1.57 Q 1.57,-1.57 1.77,-1.27 1.98,-0.98 2.09,-0.64 2.20,-0.29 2.19,0.05 2.18,0.41 2.05,0.75 1.93,1.09 1.70,1.37 1.48,1.65 1.18,1.84 0.87,2.04 0.52,2.12 0.18,2.21 -0.17,2.18 -0.53,2.15 -0.86,2.01 -1.19,1.87 -1.46,1.63 -1.73,1.39 -1.90,1.07 -2.08,0.76 -2.15,0.41 -2.21,0.05 -2.17,-0.29 -2.12,-0.65 -1.96,-0.97 -1.80,-1.29 -1.54,-1.54 -1.29,-1.80 -0.97,-1.96 -0.65,-2.12 -0.29,-2.17 0.06,-2.21 0.41,-2.15 0.76,-2.08 1.07,-1.90 1.39,-1.73 1.63,-1.46 1.87,-1.19 2.01,-0.86 2.15,-0.53 2.18,-0.17 2.21,0.18 2.12,0.52 2.03,0.87 1.84,1.18 1.65,1.48 1.37,1.70 1.09,1.93 0.75,2.05 0.41,2.18 0.05,2.19 -0.30,2.20 -0.64,2.09 -0.98,1.98 -1.27,1.77 -1.57,1.56 -1.57,1.57 -1.57,1.57 -1.73,1.35 -1.90,1.14 -2.01,0.90 -2.12,0.66 -2.16,0.39 -2.21,0.13 -2.20,-0.13 -2.18,-0.40 -2.10,-0.65 -2.02,-0.91 -1.88,-1.14 -1.74,-1.36 -1.55,-1.55 -1.36,-1.74 -1.14,-1.88 -0.91,-2.02 -0.65,-2.10 -0.40,-2.18 -0.13,-2.20 0.13,-2.21 0.39,-2.16 0.66,-2.12 0.90,-2.01 1.14,-1.90 1.35,-1.73 1.57,-1.57 1.57,-1.57 L 1.57,-1.57 Z"></path></g></g><g clip-path="url(#wJc49-F7KLvceCub_ZB9O)"><g transform="translate(197.2288135025119 141.83035573418658) rotate(0 0.00004999999998744897 0.00004999999998744897)" stroke="none"><path fill="transparent" d="M 1.57,-1.57 Q 1.57,-1.57 1.77,-1.27 1.98,-0.98 2.09,-0.64 2.20,-0.29 2.19,0.05 2.18,0.41 2.05,0.75 1.93,1.09 1.70,1.37 1.48,1.65 1.18,1.84 0.87,2.04 0.52,2.12 0.18,2.21 -0.17,2.18 -0.53,2.15 -0.86,2.01 -1.19,1.87 -1.46,1.63 -1.73,1.39 -1.90,1.07 -2.08,0.76 -2.15,0.41 -2.21,0.05 -2.17,-0.29 -2.12,-0.65 -1.96,-0.97 -1.80,-1.29 -1.54,-1.54 -1.29,-1.80 -0.97,-1.96 -0.65,-2.12 -0.29,-2.17 0.06,-2.21 0.41,-2.15 0.76,-2.08 1.07,-1.90 1.39,-1.73 1.63,-1.46 1.87,-1.19 2.01,-0.86 2.15,-0.53 2.18,-0.17 2.21,0.18 2.12,0.52 2.03,0.87 1.84,1.18 1.65,1.48 1.37,1.70 1.09,1.93 0.75,2.05 0.41,2.18 0.05,2.19 -0.30,2.20 -0.64,2.09 -0.98,1.98 -1.27,1.77 -1.57,1.56 -1.57,1.57 -1.57,1.57 -1.73,1.35 -1.90,1.14 -2.01,0.90 -2.12,0.66 -2.16,0.39 -2.21,0.13 -2.20,-0.13 -2.18,-0.40 -2.10,-0.65 -2.02,-0.91 -1.88,-1.14 -1.74,-1.36 -1.55,-1.55 -1.36,-1.74 -1.14,-1.88 -0.91,-2.02 -0.65,-2.10 -0.40,-2.18 -0.13,-2.20 0.13,-2.21 0.39,-2.16 0.66,-2.12 0.90,-2.01 1.14,-1.90 1.35,-1.73 1.57,-1.57 1.57,-1.57 L 1.57,-1.57 Z"></path></g></g><g clip-path="url(#wJc49-F7KLvceCub_ZB9O)"><g transform="translate(197.2288135025119 141.83035573418658) rotate(0 0.00004999999998744897 0.00004999999998744897)" stroke="none"><path fill="transparent" d="M 1.57,-1.57 Q 1.57,-1.57 1.77,-1.27 1.98,-0.98 2.09,-0.64 2.20,-0.29 2.19,0.05 2.18,0.41 2.05,0.75 1.93,1.09 1.70,1.37 1.48,1.65 1.18,1.84 0.87,2.04 0.52,2.12 0.18,2.21 -0.17,2.18 -0.53,2.15 -0.86,2.01 -1.19,1.87 -1.46,1.63 -1.73,1.39 -1.90,1.07 -2.08,0.76 -2.15,0.41 -2.21,0.05 -2.17,-0.29 -2.12,-0.65 -1.96,-0.97 -1.80,-1.29 -1.54,-1.54 -1.29,-1.80 -0.97,-1.96 -0.65,-2.12 -0.29,-2.17 0.06,-2.21 0.41,-2.15 0.76,-2.08 1.07,-1.90 1.39,-1.73 1.63,-1.46 1.87,-1.19 2.01,-0.86 2.15,-0.53 2.18,-0.17 2.21,0.18 2.12,0.52 2.03,0.87 1.84,1.18 1.65,1.48 1.37,1.70 1.09,1.93 0.75,2.05 0.41,2.18 0.05,2.19 -0.30,2.20 -0.64,2.09 -0.98,1.98 -1.27,1.77 -1.57,1.56 -1.57,1.57 -1.57,1.57 -1.73,1.35 -1.90,1.14 -2.01,0.90 -2.12,0.66 -2.16,0.39 -2.21,0.13 -2.20,-0.13 -2.18,-0.40 -2.10,-0.65 -2.02,-0.91 -1.88,-1.14 -1.74,-1.36 -1.55,-1.55 -1.36,-1.74 -1.14,-1.88 -0.91,-2.02 -0.65,-2.10 -0.40,-2.18 -0.13,-2.20 0.13,-2.21 0.39,-2.16 0.66,-2.12 0.90,-2.01 1.14,-1.90 1.35,-1.73 1.57,-1.57 1.57,-1.57 L 1.57,-1.57 Z"></path></g></g><g clip-path="url(#wJc49-F7KLvceCub_ZB9O)"><g stroke-linecap="round" transform="translate(151.4749140014419 14.73288487116281) rotate(0 40.24834631869794 27.5)"><path d="M13.75 0 C30.52 -1.96, 47.72 -0.38, 66.75 0 M13.75 0 C26.32 -0.51, 41.6 -0.85, 66.75 0 M66.75 0 C76.41 -0.75, 80.78 4.07, 80.5 13.75 M66.75 0 C74.99 1.82, 79.64 5.44, 80.5 13.75 M80.5 13.75 C81.76 21, 80.59 31.96, 80.5 41.25 M80.5 13.75 C81.29 23.91, 80.4 35.42, 80.5 41.25 M80.5 41.25 C80.16 50.47, 76.44 56.18, 66.75 55 M80.5 41.25 C79.06 51.19, 77.92 55.68, 66.75 55 M66.75 55 C53.37 56.22, 41.01 55.41, 13.75 55 M66.75 55 C48.85 55.09, 30.24 55.16, 13.75 55 M13.75 55 C2.76 54.17, -1.28 48.91, 0 41.25 M13.75 55 C3.03 54.59, 1.47 51.61, 0 41.25 M0 41.25 C1.52 33.26, 1.43 25.7, 0 13.75 M0 41.25 C0.68 36.46, 0.45 28.97, 0 13.75 M0 13.75 C1.96 5.54, 4.62 -1.22, 13.75 0 M0 13.75 C-1.33 6.13, 4.66 1.05, 13.75 0" stroke="#1e1e1e" stroke-width="1" fill="none"></path></g></g><g clip-path="url(#wJc49-F7KLvceCub_ZB9O)"><g transform="translate(165.12805310578437 20.17183706917956) rotate(0 26.59520721435547 22.061047801983307)"><text x="26.59520721435547" y="0" font-family="Virgil, Segoe UI Emoji" font-size="11.765892161057764px" fill="#1e1e1e" text-anchor="middle" style="white-space: pre;" direction="ltr" dominant-baseline="text-before-edge">rows with</text><text x="26.59520721435547" y="14.707365201322204" font-family="Virgil, Segoe UI Emoji" font-size="11.765892161057764px" fill="#1e1e1e" text-anchor="middle" style="white-space: pre;" direction="ltr" dominant-baseline="text-before-edge">matching</text><text x="26.59520721435547" y="29.41473040264441" font-family="Virgil, Segoe UI Emoji" font-size="11.765892161057764px" fill="#1e1e1e" text-anchor="middle" style="white-space: pre;" direction="ltr" dominant-baseline="text-before-edge">join keys</text></g></g><g clip-path="url(#wJc49-F7KLvceCub_ZB9O)"><g stroke-linecap="round"><g transform="translate(192.86487461383877 72.13299629747223) rotate(0 0.0367986474642521 31.45333799706259)"><path d="M-0.01 -0.53 C0.13 9.9, 0.04 52.91, -0.14 63.42 M-1.47 1.81 C-1.43 11.8, -1.64 51.25, -1.21 61.57" stroke="#1e1e1e" stroke-width="1" fill="none"></path></g><g transform="translate(192.86487461383877 72.13299629747223) rotate(0 0.0367986474642521 31.45333799706259)"><path d="M-11.9 33.54 C-10.23 39.36, -6.13 43.92, -1.21 61.57 M-11.9 33.54 C-8.54 40.86, -5.74 48.6, -1.21 61.57" stroke="#1e1e1e" stroke-width="1" fill="none"></path></g><g transform="translate(192.86487461383877 72.13299629747223) rotate(0 0.0367986474642521 31.45333799706259)"><path d="M8.62 33.22 C5.76 39.11, 5.34 43.75, -1.21 61.57 M8.62 33.22 C6.4 40.5, 3.62 48.33, -1.21 61.57" stroke="#1e1e1e" stroke-width="1" fill="none"></path></g></g><mask></mask></g><g clip-path="url(#wJc49-F7KLvceCub_ZB9O)"><g stroke-linecap="round" transform="translate(105.41047355231149 226.42944772841577) rotate(0 99.13468167922383 27.962027943124127)"><path d="M13.98 0 C65.86 -1.68, 115.46 1.77, 184.29 0 M13.98 0 C54.56 0.38, 94.44 1.43, 184.29 0 M184.29 0 C192.86 0.74, 198.92 3.4, 198.27 13.98 M184.29 0 C193.9 1.65, 196.1 4.96, 198.27 13.98 M198.27 13.98 C199.45 23.97, 197.56 30.48, 198.27 41.94 M198.27 13.98 C198.49 24.1, 197.6 33.37, 198.27 41.94 M198.27 41.94 C200.02 51.85, 192.21 53.99, 184.29 55.92 M198.27 41.94 C196.63 49.91, 195.45 54.37, 184.29 55.92 M184.29 55.92 C124.61 57.59, 69.93 57.08, 13.98 55.92 M184.29 55.92 C121.29 54.46, 58.91 55.04, 13.98 55.92 M13.98 55.92 C5.94 56.96, -0.92 51.93, 0 41.94 M13.98 55.92 C4.9 57.77, -1.16 53.01, 0 41.94 M0 41.94 C-0.98 37.3, 2.04 30.68, 0 13.98 M0 41.94 C-0.25 35.52, -0.85 30.98, 0 13.98 M0 13.98 C0.06 5.57, 2.73 1.85, 13.98 0 M0 13.98 C-1.83 2.47, 5 -1.55, 13.98 0" stroke="#1e1e1e" stroke-width="1" fill="none"></path></g></g><g clip-path="url(#wJc49-F7KLvceCub_ZB9O)"><g transform="translate(121.92120808798063 234.39147567153987) rotate(0 82.62394714355469 20)"><text x="82.62394714355469" y="0" font-family="Virgil, Segoe UI Emoji" font-size="16px" fill="#1e1e1e" text-anchor="middle" style="white-space: pre;" direction="ltr" dominant-baseline="text-before-edge">cartesian product of</text><text x="82.62394714355469" y="20" font-family="Virgil, Segoe UI Emoji" font-size="16px" fill="#1e1e1e" text-anchor="middle" style="white-space: pre;" direction="ltr" dominant-baseline="text-before-edge">matching rows</text></g></g><g clip-path="url(#wJc49-F7KLvceCub_ZB9O)"><g stroke-linecap="round"><g transform="translate(195.7114962495591 193.07818153628193) rotate(0 0.3861516419063946 15.976144623339906)"><path d="M0.4 -0.34 C0.64 4.97, 0.83 26.39, 0.91 31.75 M-0.05 0.67 C0.17 6.07, 0.45 27.06, 0.55 32.34" stroke="#1e1e1e" stroke-width="1" fill="none"></path></g><g transform="translate(195.7114962495591 193.07818153628193) rotate(0 0.3861516419063946 15.976144623339906)"><path d="M-5.16 17.41 C-4.54 20.58, -3.19 23.5, 0.55 32.34 M-5.16 17.41 C-3.77 21.63, -1.93 25.33, 0.55 32.34" stroke="#1e1e1e" stroke-width="1" fill="none"></path></g><g transform="translate(195.7114962495591 193.07818153628193) rotate(0 0.3861516419063946 15.976144623339906)"><path d="M5.77 17.24 C4.2 20.48, 3.35 23.43, 0.55 32.34 M5.77 17.24 C4.16 21.55, 3 25.29, 0.55 32.34" stroke="#1e1e1e" stroke-width="1" fill="none"></path></g></g><mask></mask></g><g clip-path="url(#wJc49-F7KLvceCub_ZB9O)"><g transform="translate(193.5312647471078 283.35486896777786) rotate(0 8.75 17.5)"><text x="0" y="0" font-family="Virgil, Segoe UI Emoji" font-size="28px" fill="#1e1e1e" text-anchor="start" style="white-space: pre;" direction="ltr" dominant-baseline="text-before-edge">+</text></g></g><g clip-path="url(#wJc49-F7KLvceCub_ZB9O)"><g stroke-linecap="round" transform="translate(187.32342093687612 114.34452219640332) rotate(0 47.09375 44.78515625)"><path d="M14.37 13.81 C14.37 13.81, 14.37 13.81, 14.37 13.81 M14.37 13.81 C14.37 13.81, 14.37 13.81, 14.37 13.81 M4.66 37.18 C15.94 22.95, 23.58 12.87, 34.18 3.21 M4.66 37.18 C15.47 24.94, 26.69 12.2, 34.18 3.21 M5.45 48.46 C15.38 36.36, 25.98 24.46, 42.84 5.44 M5.45 48.46 C14.79 37.16, 24.84 27, 42.84 5.44 M4.27 62.01 C15.87 47.25, 27.7 35.24, 52.82 6.16 M4.27 62.01 C18.44 47.89, 31.41 31.59, 52.82 6.16 M9.65 68.02 C32.44 41.6, 52.99 18.07, 64.76 4.62 M9.65 68.02 C24.99 49.54, 42.72 30.91, 64.76 4.62 M15.03 74.02 C32.44 53.78, 50.28 34.92, 71.45 9.11 M15.03 74.02 C32.55 53.86, 51 33.98, 71.45 9.11 M19.76 80.78 C36.38 62, 52.7 41.89, 78.8 12.85 M19.76 80.78 C40.32 57.64, 61.2 32.84, 78.8 12.85 M27.76 83.76 C43.18 65.71, 60.3 47.13, 85.5 17.35 M27.76 83.76 C45.53 63.4, 62.54 42.6, 85.5 17.35 M35.77 86.75 C47.92 73.52, 60.93 60.15, 91.54 22.6 M35.77 86.75 C48.95 71.98, 60.92 57.63, 91.54 22.6 M43.78 89.73 C63.23 67.75, 81.27 48.62, 94.29 31.62 M43.78 89.73 C62.83 67.2, 84.59 42.97, 94.29 31.62 M55.72 88.19 C70.01 71.19, 83.35 54.39, 95.08 42.9 M55.72 88.19 C64.14 78.19, 73.09 69.3, 95.08 42.9 M67.66 86.64 C75.13 81.39, 78.44 75.01, 91.28 59.47 M67.66 86.64 C73.98 80.35, 80.57 72.08, 91.28 59.47" stroke="#1e1e1e" stroke-width="1" fill="none"></path><path d="M38.08 1.22 C45.61 -0.84, 55.55 0.45, 63.52 3.17 C71.49 5.88, 80.77 10.99, 85.89 17.49 C91.01 23.99, 93.72 33.98, 94.24 42.17 C94.75 50.35, 93.09 59.41, 88.98 66.59 C84.87 73.76, 77.29 81.43, 69.57 85.23 C61.84 89.02, 51.09 90.22, 42.62 89.36 C34.15 88.51, 25.41 84.97, 18.77 80.1 C12.13 75.23, 5.61 67.8, 2.78 60.13 C-0.05 52.45, -0.16 41.81, 1.81 34.05 C3.78 26.29, 7.8 19.31, 14.59 13.56 C21.37 7.81, 37.31 1.77, 42.51 -0.46 C47.71 -2.69, 45.87 -0.81, 45.81 0.18 M32.17 1.1 C39.57 -2, 50.48 -0.16, 58.67 2.11 C66.86 4.38, 75.78 9.17, 81.33 14.73 C86.87 20.29, 90.5 27.93, 91.93 35.49 C93.36 43.06, 92.99 52.56, 89.93 60.12 C86.87 67.69, 80.14 75.86, 73.56 80.89 C66.99 85.91, 58.92 89.74, 50.5 90.29 C42.08 90.83, 30.54 88.1, 23.03 84.17 C15.53 80.23, 9.42 73.74, 5.49 66.69 C1.55 59.64, -1.11 50.34, -0.56 41.86 C-0.02 33.39, 3.33 22.57, 8.76 15.85 C14.18 9.14, 27.95 3.45, 31.98 1.59 C36.02 -0.26, 32.64 4.07, 32.96 4.7" stroke="#1e1e1e" stroke-width="2" fill="none"></path></g></g><g clip-path="url(#wJc49-F7KLvceCub_ZB9O)"><g transform="translate(227.34686431730574 146.46179076552926) rotate(0 7.269996643066406 12.5)"><text x="7.269996643066406" y="0" font-family="Virgil, Segoe UI Emoji" font-size="20px" fill="#1e1e1e" text-anchor="middle" style="white-space: pre;" direction="ltr" dominant-baseline="text-before-edge">B</text></g></g><g clip-path="url(#wJc49-F7KLvceCub_ZB9O)"><g stroke-linecap="round" transform="translate(110.81821740937858 110.52255407939708) rotate(0 47.09375 44.78515625)"><path d="M8.29 19.13 C8.29 19.13, 8.29 19.13, 8.29 19.13 M8.29 19.13 C8.29 19.13, 8.29 19.13, 8.29 19.13 M2.52 37.96 C10.45 28.93, 15.92 22.88, 33.35 2.49 M2.52 37.96 C12.83 27.01, 22.88 13.78, 33.35 2.49 M1.99 50.76 C15.21 35.03, 30.15 18.49, 45.29 0.95 M1.99 50.76 C12.73 36.72, 24.78 23.69, 45.29 0.95 M4.75 59.78 C18.51 42.33, 32.17 28.8, 56.58 0.16 M4.75 59.78 C25.29 37.09, 43.23 14.67, 56.58 0.16 M8.17 68.05 C20.4 52.96, 32.37 37.96, 63.93 3.9 M8.17 68.05 C23.39 49.34, 39.35 32.03, 63.93 3.9 M14.2 73.3 C31.68 53.62, 48.85 33.38, 71.28 7.64 M14.2 73.3 C32.42 52.1, 51.52 29.82, 71.28 7.64 M19.58 79.3 C39.37 57.11, 56.19 34.98, 78.63 11.38 M19.58 79.3 C41.28 53.8, 62.3 29.36, 78.63 11.38 M25.62 84.55 C42.06 64.83, 60.17 46.42, 83.36 18.13 M25.62 84.55 C45.63 60.54, 66.23 37.76, 83.36 18.13 M34.28 86.78 C50.93 65.87, 70.55 46.18, 88.08 24.89 M34.28 86.78 C48.67 71.84, 62.82 55.76, 88.08 24.89 M43.6 88.25 C58.41 73.1, 70.05 55.7, 92.81 31.65 M43.6 88.25 C60.95 68.28, 76.99 48.74, 92.81 31.65 M53.58 88.97 C62.41 76.2, 72.39 64.86, 93.6 42.94 M53.58 88.97 C62.72 78.2, 73.12 67.4, 93.6 42.94 M70.11 82.15 C78.04 72.04, 86.16 62.38, 93.07 55.73 M70.11 82.15 C78.93 72.12, 87.15 61.97, 93.07 55.73" stroke="#1e1e1e" stroke-width="1" fill="none"></path><path d="M55.39 -0.36 C63.58 0.23, 72.4 5.94, 78.73 11.46 C85.06 16.99, 91.09 24.85, 93.39 32.78 C95.68 40.72, 95.26 51.33, 92.49 59.06 C89.72 66.78, 83.31 74.13, 76.78 79.13 C70.25 84.13, 61.66 88.01, 53.32 89.06 C44.98 90.11, 34.38 89, 26.75 85.43 C19.13 81.86, 12 74.43, 7.59 67.66 C3.19 60.89, 0.23 52.9, 0.35 44.81 C0.46 36.73, 3.75 26.14, 8.26 19.17 C12.76 12.2, 18.79 5.75, 27.37 2.99 C35.96 0.23, 53.54 2.3, 59.78 2.62 C66.02 2.94, 64.86 4.27, 64.81 4.92 M25.81 5.97 C32.33 1.64, 41.97 -0.83, 50.21 -0.42 C58.45 -0.01, 68.52 3.41, 75.25 8.46 C81.98 13.5, 87.49 21.93, 90.58 29.87 C93.68 37.82, 95.76 48.15, 93.82 56.12 C91.87 64.09, 85.18 72.06, 78.9 77.7 C72.62 83.34, 64.51 88.33, 56.16 89.97 C47.82 91.6, 36.93 90.94, 28.83 87.5 C20.73 84.07, 12.26 76.28, 7.54 69.36 C2.83 62.44, 0.55 53.59, 0.54 45.98 C0.53 38.37, 3.16 30.79, 7.46 23.72 C11.76 16.66, 23 6.47, 26.32 3.6 C29.65 0.73, 27.19 5.75, 27.42 6.49" stroke="#1e1e1e" stroke-width="2" fill="none"></path></g></g><g clip-path="url(#wJc49-F7KLvceCub_ZB9O)"><g transform="translate(151.55165987428086 142.63982264852302) rotate(0 6.55999755859375 12.5)"><text x="6.55999755859375" y="0" font-family="Virgil, Segoe UI Emoji" font-size="20px" fill="#1e1e1e" text-anchor="middle" style="white-space: pre;" direction="ltr" dominant-baseline="text-before-edge">A</text></g></g><g clip-path="url(#wJc49-F7KLvceCub_ZB9O)"><g stroke-linecap="round" transform="translate(103.06420140804494 317.4351697834703) rotate(0 101.5529025176836 27.80565338544082)"><path d="M13.9 0 C73.6 -2.11, 130.68 -0.29, 189.2 0 M13.9 0 C82.52 -1.3, 149.4 -0.42, 189.2 0 M189.2 0 C198.14 0.06, 203.64 5.82, 203.11 13.9 M189.2 0 C197.04 0.77, 205.12 5.31, 203.11 13.9 M203.11 13.9 C201.66 21.9, 201.49 27.48, 203.11 41.71 M203.11 13.9 C203.68 24.13, 203.43 33.82, 203.11 41.71 M203.11 41.71 C201.28 50.15, 197.19 54.11, 189.2 55.61 M203.11 41.71 C201.55 50.57, 199.94 56.8, 189.2 55.61 M189.2 55.61 C146.29 54.78, 101.68 54.21, 13.9 55.61 M189.2 55.61 C153.75 55.41, 117.3 53.6, 13.9 55.61 M13.9 55.61 C6.59 56.57, 0.04 49.76, 0 41.71 M13.9 55.61 C3.3 57.16, 0.07 52.03, 0 41.71 M0 41.71 C-2.16 36.34, -1.6 29.49, 0 13.9 M0 41.71 C0.33 30.82, -1.1 21.93, 0 13.9 M0 13.9 C1.37 2.76, 5.25 -0.76, 13.9 0 M0 13.9 C0.82 4.57, 4.93 -0.14, 13.9 0" stroke="#1e1e1e" stroke-width="1" fill="none"></path></g></g><g clip-path="url(#wJc49-F7KLvceCub_ZB9O)"><g transform="translate(120.52915226557229 325.2408231689111) rotate(0 84.08795166015625 20)"><text x="84.08795166015625" y="0" font-family="Virgil, Segoe UI Emoji" font-size="16px" fill="#1e1e1e" text-anchor="middle" style="white-space: pre;" direction="ltr" dominant-baseline="text-before-edge">non-matching left and</text><text x="84.08795166015625" y="20" font-family="Virgil, Segoe UI Emoji" font-size="16px" fill="#1e1e1e" text-anchor="middle" style="white-space: pre;" direction="ltr" dominant-baseline="text-before-edge">right table rows</text></g></g><g clip-path="url(#wJc49-F7KLvceCub_ZB9O)"><g transform="translate(11.886362450856723 16.795894591632873) rotate(0 62.78673553466797 10.642975645586262)"><text x="0" y="0" font-family="Virgil, Segoe UI Emoji" font-size="17.028761032938004px" fill="#1e1e1e" text-anchor="start" style="white-space: pre;" direction="ltr" dominant-baseline="text-before-edge">Full Outer Join</text></g></g></svg>