<svg version="1.1" xmlns="http://www.w3.org/2000/svg" viewBox="0 0 383.3304831524558 378.3785383291599" width="383.3304831524558" height="378.3785383291599">
    <!-- svg-source:excalidraw -->

    <defs>
        <style class="style-fonts">
            @font-face {
            font-family: "Virgil";
            src: url("https://excalidraw.com/Virgil.woff2");
            }
            @font-face {
            font-family: "Cascadia";
            src: url("https://excalidraw.com/Cascadia.woff2");
            }
            @font-face {
            font-family: "Assistant";
            src: url("https://excalidraw.com/Assistant-Regular.woff2");
            }
        </style>
        <clipPath id="ooLtDW8VdotbKnhfoflCi">
            <rect transform="translate(0 0) rotate(0 191.6652415762279 189.18926916457994)" width="383.3304831524558" height="378.3785383291599">
            </rect>
        </clipPath>
    </defs>
    <rect x="0" y="0" width="383.3304831524558" height="378.3785383291599" fill="#ffffff"></rect><g clip-path="url(#ooLtDW8VdotbKnhfoflCi)"><g stroke-linecap="round" transform="translate(114.37548872222385 117.01294232468115) rotate(0 47.09375 44.78515625)"><path d="M44.05 0.51 C52.13 -0.69, 63.26 1.88, 70.71 5.72 C78.16 9.56, 84.76 16.25, 88.73 23.55 C92.7 30.86, 95.27 41.61, 94.51 49.56 C93.76 57.51, 89.46 64.87, 84.2 71.26 C78.94 77.66, 70.87 85.11, 62.96 87.92 C55.05 90.73, 45.09 90.01, 36.75 88.11 C28.41 86.22, 19 82.33, 12.92 76.53 C6.84 70.73, 1.84 61.38, 0.27 53.32 C-1.29 45.25, 0.44 35.5, 3.52 28.13 C6.6 20.76, 11.11 13.86, 18.74 9.09 C26.37 4.32, 43.5 0.89, 49.29 -0.49 C55.07 -1.87, 53.65 -0.15, 53.45 0.83 M30.16 1.78 C37.32 -1.68, 48.76 -1.23, 57.08 0.69 C65.39 2.62, 73.83 7.74, 80.04 13.33 C86.26 18.92, 92.56 26.45, 94.39 34.25 C96.22 42.05, 94.32 52.32, 91.03 60.11 C87.75 67.91, 81.43 76.01, 74.66 81.03 C67.89 86.04, 58.82 89.68, 50.41 90.2 C41.99 90.72, 31.75 87.89, 24.17 84.13 C16.6 80.37, 8.8 74.58, 4.96 67.63 C1.13 60.67, 0.58 50.6, 1.17 42.4 C1.77 34.19, 3.83 24.89, 8.55 18.41 C13.27 11.92, 25.62 5.75, 29.47 3.5 C33.32 1.26, 31.3 4.5, 31.65 4.96" stroke="#1e1e1e" stroke-width="2" fill="none"></path></g></g><g clip-path="url(#ooLtDW8VdotbKnhfoflCi)"><g transform="translate(155.10893118712613 149.13021089380706) rotate(0 6.55999755859375 12.5)"><text x="6.55999755859375" y="0" font-family="Virgil, Segoe UI Emoji" font-size="20px" fill="#1e1e1e" text-anchor="middle" style="white-space: pre;" direction="ltr" dominant-baseline="text-before-edge">A</text></g></g><g clip-path="url(#ooLtDW8VdotbKnhfoflCi)"><g stroke-linecap="round" transform="translate(177.46949096109563 116.92592229732816) rotate(0 47.09375 44.78515625)"><path d="M57.19 0.73 C65.21 1.93, 75 8.51, 80.96 14.14 C86.92 19.77, 91.23 26.61, 92.94 34.5 C94.64 42.39, 94.11 53.83, 91.21 61.48 C88.31 69.13, 82.42 75.65, 75.54 80.4 C68.66 85.15, 58.57 89.43, 49.94 89.98 C41.31 90.52, 31.09 87.71, 23.77 83.67 C16.45 79.63, 10.08 72.68, 6.03 65.74 C1.98 58.8, -1.1 50.09, -0.53 42.03 C0.04 33.96, 4.34 23.96, 9.45 17.33 C14.56 10.7, 21.56 4.59, 30.15 2.23 C38.74 -0.13, 55.12 2.6, 61 3.16 C66.89 3.72, 65.49 5.03, 65.48 5.57 M29.44 3.62 C36.86 0.11, 49.03 -1.38, 57.34 0.07 C65.65 1.51, 73.53 6.52, 79.3 12.31 C85.07 18.09, 89.98 26.8, 91.97 34.78 C93.96 42.76, 93.99 52.67, 91.26 60.19 C88.53 67.71, 82.37 74.84, 75.6 79.89 C68.83 84.94, 58.8 89.63, 50.64 90.5 C42.47 91.37, 34.09 88.97, 26.59 85.12 C19.09 81.28, 10.21 74.4, 5.64 67.42 C1.07 60.44, -1.51 51.14, -0.84 43.24 C-0.16 35.34, 4.69 26.82, 9.68 20.01 C14.67 13.2, 25.65 5.18, 29.1 2.37 C32.56 -0.45, 29.81 2.41, 30.41 3.13" stroke="#1e1e1e" stroke-width="2" fill="none"></path></g></g><g clip-path="url(#ooLtDW8VdotbKnhfoflCi)"><g transform="translate(217.49293434152526 149.04319086645407) rotate(0 7.269996643066406 12.5)"><text x="7.269996643066406" y="0" font-family="Virgil, Segoe UI Emoji" font-size="20px" fill="#1e1e1e" text-anchor="middle" style="white-space: pre;" direction="ltr" dominant-baseline="text-before-edge">B</text></g></g><g clip-path="url(#ooLtDW8VdotbKnhfoflCi)"><g transform="translate(13.209684372070228 16.90409569777364) rotate(0 59.45515441894531 10.500930170222858)"><text x="0" y="0" font-family="Virgil, Segoe UI Emoji" font-size="16.801488272356583px" fill="#1e1e1e" text-anchor="start" style="white-space: pre;" direction="ltr" dominant-baseline="text-before-edge">Left Semi Join</text></g></g><g clip-path="url(#ooLtDW8VdotbKnhfoflCi)"><g transform="translate(183.3539893531498 156.80229998935738) rotate(0 10.373733241428624 -1.9840690106249355)" stroke="none"><path fill="transparent" d="M -2.00,-0.48 Q -2.00,-0.48 -1.25,-3.16 -0.50,-5.84 1.05,-9.22 2.61,-12.61 3.77,-14.77 4.92,-16.93 5.94,-18.63 6.96,-20.33 7.55,-21.40 8.15,-22.46 8.37,-22.86 8.59,-23.25 8.75,-23.43 8.90,-23.61 9.09,-23.75 9.29,-23.88 9.51,-23.97 9.73,-24.06 9.96,-24.09 10.20,-24.12 10.43,-24.09 10.67,-24.07 10.89,-23.99 11.11,-23.91 11.31,-23.77 11.50,-23.64 11.66,-23.47 11.82,-23.29 11.93,-23.08 12.05,-22.88 12.11,-22.65 12.17,-22.42 12.17,-22.18 12.17,-21.95 12.12,-21.71 12.06,-21.48 11.96,-21.27 11.85,-21.06 11.13,-19.38 10.41,-17.71 9.52,-16.10 8.64,-14.48 7.49,-12.47 6.34,-10.46 5.65,-9.01 4.96,-7.55 4.41,-6.24 3.86,-4.93 3.46,-3.68 3.06,-2.42 3.01,-2.30 2.95,-2.17 2.81,-1.94 2.67,-1.70 2.48,-1.50 2.28,-1.30 2.04,-1.16 1.81,-1.01 1.55,-0.93 1.28,-0.85 1.01,-0.83 0.73,-0.81 0.46,-0.86 0.18,-0.90 -0.06,-1.02 -0.31,-1.13 -0.53,-1.30 -0.75,-1.47 -0.92,-1.68 -1.10,-1.90 -1.21,-2.15 -1.33,-2.40 -1.38,-2.68 -1.43,-2.95 -1.42,-3.22 -1.40,-3.50 -1.32,-3.76 -1.24,-4.03 -0.04,-5.99 1.16,-7.95 2.24,-9.33 3.32,-10.72 3.98,-11.60 4.64,-12.48 5.04,-12.94 5.44,-13.40 5.66,-13.60 5.88,-13.81 6.14,-13.96 6.40,-14.11 6.69,-14.19 6.98,-14.27 7.28,-14.28 7.58,-14.29 7.87,-14.22 8.16,-14.16 8.43,-14.03 8.71,-13.90 8.94,-13.71 9.17,-13.51 9.34,-13.27 9.52,-13.03 9.64,-12.75 9.75,-12.48 9.80,-12.18 9.84,-11.88 9.82,-11.58 9.79,-11.28 9.69,-11.00 9.59,-10.72 9.43,-10.46 9.27,-10.21 9.15,-9.10 9.03,-7.99 7.92,-6.11 6.80,-4.23 6.20,-3.02 5.60,-1.80 5.15,-0.84 4.70,0.12 4.55,1.21 4.40,2.31 4.42,2.47 4.43,2.63 4.39,2.96 4.35,3.29 4.23,3.61 4.10,3.92 3.91,4.19 3.72,4.47 3.47,4.69 3.22,4.91 2.92,5.07 2.62,5.22 2.29,5.30 1.97,5.38 1.63,5.37 1.29,5.37 0.97,5.29 0.64,5.21 0.35,5.05 0.05,4.89 -0.19,4.67 -0.44,4.44 -0.63,4.17 -0.82,3.89 -0.93,3.58 -1.05,3.26 -1.09,2.93 -1.13,2.59 -0.44,0.91 0.24,-0.75 0.97,-1.99 1.70,-3.23 3.01,-4.83 4.33,-6.43 5.28,-7.55 6.23,-8.67 6.83,-9.22 7.42,-9.77 7.66,-9.98 7.89,-10.19 8.16,-10.34 8.44,-10.49 8.74,-10.57 9.05,-10.65 9.36,-10.65 9.68,-10.66 9.98,-10.59 10.29,-10.52 10.57,-10.37 10.85,-10.23 11.09,-10.03 11.33,-9.82 11.51,-9.57 11.69,-9.31 11.81,-9.02 11.92,-8.73 11.97,-8.41 12.01,-8.10 11.98,-7.79 11.94,-7.48 11.83,-7.18 11.73,-6.89 11.55,-6.62 11.38,-6.36 11.03,-3.36 10.69,-0.37 9.90,1.46 9.11,3.29 8.61,4.72 8.11,6.14 7.78,7.44 7.45,8.74 6.73,7.59 6.01,6.44 7.96,6.22 9.91,6.00 10.72,6.94 11.53,7.88 11.80,9.23 12.07,10.58 12.19,12.49 12.31,14.41 13.08,13.65 13.85,12.88 14.95,13.01 16.05,13.14 17.24,13.76 18.43,14.37 19.72,14.93 21.01,15.49 21.55,15.63 22.09,15.77 22.56,16.07 23.02,16.37 23.37,16.81 23.72,17.24 23.91,17.77 24.10,18.29 24.11,18.85 24.12,19.41 23.95,19.94 23.79,20.47 23.46,20.92 23.13,21.37 22.68,21.69 22.22,22.01 21.69,22.17 21.15,22.33 20.60,22.32 20.04,22.30 19.52,22.10 19.00,21.91 18.57,21.55 18.13,21.20 17.84,20.73 17.54,20.26 17.41,19.72 17.28,19.18 17.33,18.62 17.37,18.07 17.60,17.56 17.82,17.05 18.20,16.64 18.57,16.22 19.06,15.95 19.54,15.68 20.09,15.58 20.64,15.48 21.19,15.56 21.74,15.63 22.24,15.89 22.74,16.14 23.13,16.53 23.52,16.93 23.76,17.43 24.01,17.93 24.08,18.48 24.15,19.03 24.04,19.58 23.93,20.13 23.66,20.61 23.38,21.09 22.96,21.46 22.55,21.83 22.03,22.05 21.52,22.27 20.96,22.31 20.41,22.35 20.41,22.35 20.41,22.35 17.92,21.44 15.43,20.52 14.16,20.16 12.89,19.79 10.96,19.76 9.04,19.74 8.17,18.92 7.30,18.10 6.82,16.33 6.35,14.55 6.50,12.75 6.65,10.94 5.55,10.83 4.46,10.72 3.64,8.98 2.82,7.23 3.40,5.93 3.97,4.63 4.52,3.19 5.06,1.76 5.66,-0.06 6.25,-1.88 6.95,-3.95 7.65,-6.02 7.54,-7.89 7.42,-9.77 7.66,-9.98 7.89,-10.19 8.16,-10.34 8.44,-10.49 8.74,-10.57 9.05,-10.65 9.36,-10.65 9.68,-10.66 9.98,-10.59 10.29,-10.52 10.57,-10.38 10.85,-10.23 11.09,-10.03 11.33,-9.82 11.51,-9.57 11.69,-9.31 11.81,-9.02 11.92,-8.73 11.97,-8.41 12.01,-8.10 11.98,-7.79 11.94,-7.48 11.83,-7.18 11.73,-6.89 11.55,-6.62 11.38,-6.36 10.71,-5.87 10.03,-5.38 9.20,-4.43 8.37,-3.48 7.42,-1.99 6.47,-0.49 5.45,1.06 4.43,2.63 4.39,2.96 4.35,3.29 4.23,3.61 4.10,3.92 3.91,4.19 3.72,4.47 3.47,4.69 3.22,4.91 2.92,5.07 2.62,5.22 2.29,5.30 1.97,5.38 1.63,5.37 1.30,5.37 0.97,5.29 0.64,5.21 0.35,5.05 0.05,4.89 -0.19,4.67 -0.44,4.44 -0.63,4.17 -0.82,3.89 -0.93,3.58 -1.05,3.26 -1.09,2.93 -1.13,2.59 -1.06,1.94 -0.99,1.28 -0.56,0.09 -0.14,-1.09 0.70,-2.51 1.55,-3.93 2.21,-5.10 2.86,-6.28 4.26,-8.73 5.65,-11.17 5.55,-12.29 5.44,-13.40 5.66,-13.60 5.88,-13.81 6.14,-13.96 6.40,-14.11 6.69,-14.19 6.98,-14.27 7.28,-14.28 7.58,-14.29 7.87,-14.22 8.16,-14.16 8.43,-14.03 8.70,-13.90 8.94,-13.71 9.17,-13.51 9.34,-13.27 9.52,-13.03 9.64,-12.75 9.75,-12.48 9.80,-12.18 9.84,-11.88 9.82,-11.58 9.79,-11.28 9.69,-11.00 9.59,-10.72 9.43,-10.46 9.27,-10.21 8.11,-9.09 6.94,-7.96 5.99,-6.68 5.05,-5.40 4.00,-3.79 2.95,-2.17 2.81,-1.94 2.67,-1.70 2.48,-1.50 2.28,-1.30 2.05,-1.16 1.81,-1.01 1.55,-0.93 1.28,-0.85 1.01,-0.83 0.73,-0.81 0.46,-0.86 0.18,-0.90 -0.06,-1.02 -0.31,-1.13 -0.53,-1.30 -0.75,-1.47 -0.92,-1.68 -1.10,-1.90 -1.21,-2.15 -1.33,-2.40 -1.38,-2.67 -1.43,-2.95 -1.42,-3.22 -1.40,-3.50 -1.32,-3.76 -1.24,-4.03 -1.15,-4.14 -1.06,-4.25 -0.39,-5.43 0.26,-6.61 0.93,-7.93 1.61,-9.24 2.38,-10.68 3.16,-12.13 4.16,-14.24 5.16,-16.34 6.00,-17.95 6.83,-19.55 7.71,-21.40 8.59,-23.25 8.75,-23.43 8.90,-23.61 9.09,-23.75 9.29,-23.88 9.51,-23.97 9.73,-24.06 9.96,-24.09 10.20,-24.12 10.43,-24.09 10.67,-24.07 10.89,-23.99 11.11,-23.91 11.31,-23.77 11.50,-23.64 11.66,-23.47 11.82,-23.29 11.93,-23.08 12.05,-22.88 12.11,-22.65 12.17,-22.42 12.17,-22.18 12.17,-21.95 12.12,-21.71 12.06,-21.48 11.96,-21.27 11.85,-21.06 11.51,-20.74 11.18,-20.43 10.46,-19.54 9.74,-18.65 8.76,-17.06 7.79,-15.48 6.77,-13.35 5.75,-11.22 4.43,-8.09 3.11,-4.95 2.56,-2.23 2.00,0.48 1.92,0.71 1.83,0.95 1.69,1.15 1.55,1.36 1.36,1.52 1.18,1.69 0.96,1.81 0.74,1.92 0.49,1.98 0.25,2.04 0.00,2.05 -0.24,2.05 -0.48,1.99 -0.72,1.93 -0.94,1.81 -1.16,1.70 -1.35,1.54 -1.54,1.37 -1.68,1.17 -1.82,0.96 -1.91,0.73 -2.00,0.50 -2.03,0.25 -2.06,0.00 -2.03,-0.23 -2.00,-0.48 -2.00,-0.48 L -2.00,-0.48 Z"></path></g></g><g clip-path="url(#ooLtDW8VdotbKnhfoflCi)"><g transform="translate(186.57485199309394 139.93573065186638) rotate(0 9.251938948501447 13.688005304035897)" stroke="none"><path fill="transparent" d="M 2.08,-0.81 Q 2.08,-0.81 2.80,1.36 3.53,3.54 4.42,5.46 5.30,7.38 6.22,8.77 7.13,10.15 8.23,11.66 9.33,13.16 10.46,14.46 11.59,15.75 12.40,16.59 13.20,17.43 13.97,18.36 14.73,19.29 15.67,20.56 16.62,21.82 18.23,23.48 19.84,25.15 20.15,25.42 20.47,25.70 20.68,26.06 20.89,26.42 20.98,26.84 21.06,27.25 21.01,27.66 20.96,28.08 20.78,28.46 20.60,28.84 20.31,29.14 20.01,29.44 19.64,29.63 19.27,29.82 18.85,29.89 18.44,29.95 18.02,29.87 17.61,29.80 17.24,29.60 16.87,29.40 16.59,29.09 16.30,28.78 16.13,28.40 15.96,28.01 15.92,27.60 15.88,27.18 15.98,26.77 16.07,26.36 16.29,26.00 16.52,25.65 16.84,25.38 17.16,25.11 17.55,24.96 17.95,24.81 18.37,24.80 18.79,24.78 19.19,24.90 19.59,25.01 19.94,25.25 20.28,25.49 20.53,25.83 20.78,26.17 20.91,26.57 21.04,26.97 21.03,27.39 21.03,27.81 20.89,28.20 20.75,28.60 20.49,28.93 20.23,29.26 19.88,29.49 19.53,29.72 19.12,29.83 18.72,29.94 18.30,29.91 17.88,29.88 17.49,29.72 17.10,29.56 17.10,29.56 17.10,29.56 15.39,27.95 13.68,26.34 13.10,25.33 12.51,24.32 11.89,23.06 11.26,21.80 10.69,20.89 10.12,19.98 9.47,19.05 8.81,18.13 7.63,16.72 6.46,15.32 5.24,13.73 4.02,12.15 3.05,10.59 2.08,9.03 0.95,7.01 -0.17,5.00 -1.12,2.90 -2.08,0.81 -2.14,0.55 -2.21,0.29 -2.21,0.02 -2.22,-0.24 -2.16,-0.50 -2.10,-0.76 -1.97,-1.00 -1.85,-1.24 -1.67,-1.45 -1.50,-1.65 -1.28,-1.81 -1.06,-1.96 -0.81,-2.06 -0.56,-2.16 -0.29,-2.20 -0.02,-2.23 0.24,-2.20 0.50,-2.17 0.76,-2.08 1.01,-1.99 1.23,-1.84 1.46,-1.69 1.64,-1.49 1.82,-1.29 1.95,-1.05 2.08,-0.81 2.08,-0.81 L 2.08,-0.81 Z"></path></g></g><g clip-path="url(#ooLtDW8VdotbKnhfoflCi)"><g transform="translate(186.49289844302143 171.20850038273784) rotate(0 6.8232939592577395 -16.428602516136067)" stroke="none"><path fill="transparent" d="M -2.07,0.01 Q -2.07,0.01 -2.06,-1.80 -2.05,-3.63 -1.74,-6.62 -1.43,-9.61 -1.13,-11.79 -0.83,-13.97 -0.32,-16.53 0.19,-19.09 0.59,-21.11 1.00,-23.14 1.19,-24.42 1.38,-25.71 1.48,-26.95 1.58,-28.19 1.84,-29.59 2.11,-30.99 2.47,-32.22 2.84,-33.45 2.97,-33.78 3.11,-34.11 3.29,-34.37 3.48,-34.64 3.73,-34.85 3.97,-35.07 4.26,-35.22 4.55,-35.37 4.87,-35.44 5.19,-35.52 5.51,-35.52 5.84,-35.51 6.16,-35.43 6.47,-35.35 6.76,-35.20 7.05,-35.04 7.29,-34.83 7.53,-34.61 7.72,-34.34 7.90,-34.07 8.01,-33.76 8.12,-33.46 8.16,-33.13 8.20,-32.81 8.16,-32.48 8.11,-32.16 8.00,-31.86 7.88,-31.55 7.98,-32.64 8.09,-33.72 8.75,-32.32 9.41,-30.93 10.02,-29.28 10.62,-27.64 11.24,-26.10 11.85,-24.55 12.49,-22.58 13.13,-20.61 13.61,-18.44 14.09,-16.27 14.47,-14.61 14.84,-12.95 15.10,-11.39 15.36,-9.82 15.60,-7.16 15.84,-4.50 15.80,-4.16 15.76,-3.81 15.62,-3.50 15.47,-3.18 15.23,-2.93 14.99,-2.68 14.68,-2.52 14.37,-2.36 14.03,-2.30 13.69,-2.25 13.34,-2.30 13.00,-2.36 12.69,-2.52 12.39,-2.69 12.15,-2.94 11.91,-3.19 11.77,-3.51 11.62,-3.83 11.58,-4.17 11.55,-4.52 11.62,-4.86 11.70,-5.20 11.88,-5.49 12.06,-5.79 12.33,-6.02 12.59,-6.24 12.91,-6.37 13.24,-6.49 13.59,-6.51 13.93,-6.53 14.27,-6.44 14.60,-6.34 14.89,-6.15 15.18,-5.95 15.39,-5.67 15.60,-5.40 15.71,-5.07 15.82,-4.74 15.81,-4.39 15.81,-4.04 15.70,-3.71 15.59,-3.38 15.38,-3.11 15.17,-2.83 14.88,-2.64 14.59,-2.44 14.25,-2.35 13.92,-2.26 13.57,-2.28 13.22,-2.30 12.90,-2.43 12.58,-2.56 12.32,-2.78 12.05,-3.01 11.87,-3.31 11.69,-3.61 11.62,-3.95 11.55,-4.29 11.55,-4.28 11.55,-4.28 11.35,-6.75 11.16,-9.21 10.98,-10.64 10.81,-12.06 10.47,-13.63 10.14,-15.19 9.51,-17.06 8.87,-18.94 8.04,-20.72 7.20,-22.50 6.47,-24.02 5.73,-25.54 4.94,-27.13 4.15,-28.72 3.65,-30.06 3.14,-31.41 3.12,-32.76 3.11,-34.11 3.29,-34.37 3.48,-34.64 3.73,-34.85 3.97,-35.07 4.26,-35.22 4.55,-35.37 4.87,-35.44 5.19,-35.52 5.51,-35.52 5.84,-35.51 6.16,-35.43 6.47,-35.35 6.76,-35.20 7.05,-35.04 7.29,-34.83 7.53,-34.61 7.72,-34.34 7.90,-34.07 8.01,-33.76 8.12,-33.46 8.16,-33.13 8.20,-32.81 8.16,-32.48 8.11,-32.16 8.00,-31.86 7.88,-31.55 7.82,-31.49 7.76,-31.43 7.20,-30.39 6.63,-29.34 6.13,-28.33 5.62,-27.32 5.21,-26.12 4.80,-24.92 4.42,-23.74 4.04,-22.56 3.67,-20.54 3.31,-18.52 2.92,-16.07 2.52,-13.62 2.37,-11.48 2.22,-9.35 2.10,-6.51 1.98,-3.67 2.03,-1.84 2.07,-0.01 2.04,0.22 2.01,0.47 1.93,0.71 1.84,0.94 1.70,1.15 1.56,1.36 1.38,1.52 1.19,1.69 0.97,1.81 0.75,1.93 0.51,1.99 0.26,2.05 0.01,2.06 -0.23,2.06 -0.47,2.00 -0.71,1.94 -0.94,1.83 -1.16,1.71 -1.35,1.55 -1.54,1.39 -1.68,1.18 -1.82,0.98 -1.92,0.74 -2.01,0.51 -2.04,0.26 -2.07,0.01 -2.07,0.01 L -2.07,0.01 Z"></path></g></g><g clip-path="url(#ooLtDW8VdotbKnhfoflCi)"><g transform="translate(197.22881350251214 141.83035573418647) rotate(0 0.00004999999998744897 0.00005000000000165983)" stroke="none"><path fill="transparent" d="M 1.57,-1.57 Q 1.57,-1.57 1.77,-1.27 1.98,-0.98 2.09,-0.64 2.20,-0.29 2.19,0.05 2.18,0.41 2.05,0.75 1.93,1.09 1.70,1.37 1.48,1.65 1.18,1.84 0.87,2.04 0.52,2.12 0.18,2.21 -0.17,2.18 -0.53,2.15 -0.86,2.01 -1.19,1.87 -1.46,1.63 -1.73,1.39 -1.90,1.07 -2.08,0.76 -2.15,0.41 -2.21,0.05 -2.17,-0.29 -2.12,-0.65 -1.96,-0.97 -1.80,-1.29 -1.54,-1.54 -1.29,-1.80 -0.97,-1.96 -0.65,-2.12 -0.29,-2.17 0.06,-2.21 0.41,-2.15 0.76,-2.08 1.07,-1.90 1.39,-1.73 1.63,-1.46 1.87,-1.19 2.01,-0.86 2.15,-0.53 2.18,-0.17 2.21,0.18 2.12,0.52 2.03,0.87 1.84,1.18 1.65,1.48 1.37,1.70 1.09,1.93 0.75,2.05 0.41,2.18 0.05,2.19 -0.30,2.20 -0.64,2.09 -0.98,1.98 -1.27,1.77 -1.57,1.56 -1.57,1.57 -1.57,1.57 -1.73,1.35 -1.90,1.14 -2.01,0.90 -2.12,0.66 -2.16,0.39 -2.21,0.13 -2.20,-0.13 -2.18,-0.40 -2.10,-0.65 -2.02,-0.91 -1.88,-1.14 -1.74,-1.36 -1.55,-1.55 -1.36,-1.74 -1.14,-1.88 -0.91,-2.02 -0.65,-2.10 -0.40,-2.18 -0.13,-2.20 0.13,-2.21 0.39,-2.16 0.66,-2.12 0.90,-2.01 1.14,-1.90 1.35,-1.73 1.57,-1.57 1.57,-1.57 L 1.57,-1.57 Z"></path></g></g><g clip-path="url(#ooLtDW8VdotbKnhfoflCi)"><g transform="translate(197.22881350251214 141.83035573418647) rotate(0 0.00004999999998744897 0.00005000000000165983)" stroke="none"><path fill="transparent" d="M 1.57,-1.57 Q 1.57,-1.57 1.77,-1.27 1.98,-0.98 2.09,-0.64 2.20,-0.29 2.19,0.05 2.18,0.41 2.05,0.75 1.93,1.09 1.70,1.37 1.48,1.65 1.18,1.84 0.87,2.04 0.52,2.12 0.18,2.21 -0.17,2.18 -0.53,2.15 -0.86,2.01 -1.19,1.87 -1.46,1.63 -1.73,1.39 -1.90,1.07 -2.08,0.76 -2.15,0.41 -2.21,0.05 -2.17,-0.29 -2.12,-0.65 -1.96,-0.97 -1.80,-1.29 -1.54,-1.54 -1.29,-1.80 -0.97,-1.96 -0.65,-2.12 -0.29,-2.17 0.06,-2.21 0.41,-2.15 0.76,-2.08 1.07,-1.90 1.39,-1.73 1.63,-1.46 1.87,-1.19 2.01,-0.86 2.15,-0.53 2.18,-0.17 2.21,0.18 2.12,0.52 2.03,0.87 1.84,1.18 1.65,1.48 1.37,1.70 1.09,1.93 0.75,2.05 0.41,2.18 0.05,2.19 -0.30,2.20 -0.64,2.09 -0.98,1.98 -1.27,1.77 -1.57,1.56 -1.57,1.57 -1.57,1.57 -1.73,1.35 -1.90,1.14 -2.01,0.90 -2.12,0.66 -2.16,0.39 -2.21,0.13 -2.20,-0.13 -2.18,-0.40 -2.10,-0.65 -2.02,-0.91 -1.88,-1.14 -1.74,-1.36 -1.55,-1.55 -1.36,-1.74 -1.14,-1.88 -0.91,-2.02 -0.65,-2.10 -0.40,-2.18 -0.13,-2.20 0.13,-2.21 0.39,-2.16 0.66,-2.12 0.90,-2.01 1.14,-1.90 1.35,-1.73 1.57,-1.57 1.57,-1.57 L 1.57,-1.57 Z"></path></g></g><g clip-path="url(#ooLtDW8VdotbKnhfoflCi)"><g transform="translate(197.22881350251214 141.83035573418647) rotate(0 0.00004999999998744897 0.00005000000000165983)" stroke="none"><path fill="transparent" d="M 1.57,-1.57 Q 1.57,-1.57 1.77,-1.27 1.98,-0.98 2.09,-0.64 2.20,-0.29 2.19,0.05 2.18,0.41 2.05,0.75 1.93,1.09 1.70,1.37 1.48,1.65 1.18,1.84 0.87,2.04 0.52,2.12 0.18,2.21 -0.17,2.18 -0.53,2.15 -0.86,2.01 -1.19,1.87 -1.46,1.63 -1.73,1.39 -1.90,1.07 -2.08,0.76 -2.15,0.41 -2.21,0.05 -2.17,-0.29 -2.12,-0.65 -1.96,-0.97 -1.80,-1.29 -1.54,-1.54 -1.29,-1.80 -0.97,-1.96 -0.65,-2.12 -0.29,-2.17 0.06,-2.21 0.41,-2.15 0.76,-2.08 1.07,-1.90 1.39,-1.73 1.63,-1.46 1.87,-1.19 2.01,-0.86 2.15,-0.53 2.18,-0.17 2.21,0.18 2.12,0.52 2.03,0.87 1.84,1.18 1.65,1.48 1.37,1.70 1.09,1.93 0.75,2.05 0.41,2.18 0.05,2.19 -0.30,2.20 -0.64,2.09 -0.98,1.98 -1.27,1.77 -1.57,1.56 -1.57,1.57 -1.57,1.57 -1.73,1.35 -1.90,1.14 -2.01,0.90 -2.12,0.66 -2.16,0.39 -2.21,0.13 -2.20,-0.13 -2.18,-0.40 -2.10,-0.65 -2.02,-0.91 -1.88,-1.14 -1.74,-1.36 -1.55,-1.55 -1.36,-1.74 -1.14,-1.88 -0.91,-2.02 -0.65,-2.10 -0.40,-2.18 -0.13,-2.20 0.13,-2.21 0.39,-2.16 0.66,-2.12 0.90,-2.01 1.14,-1.90 1.35,-1.73 1.57,-1.57 1.57,-1.57 L 1.57,-1.57 Z"></path></g></g><g clip-path="url(#ooLtDW8VdotbKnhfoflCi)"><g transform="translate(186.9229342756597 159.312017307705) rotate(0 -0.7371413401677671 7.23173987816719)" stroke="none"><path fill="transparent" d="M -2.01,-0.13 Q -2.01,-0.13 -1.76,-2.48 -1.51,-4.84 -1.43,-6.26 -1.34,-7.68 -1.34,-8.74 -1.34,-9.79 -1.27,-10.05 -1.21,-10.31 -1.08,-10.54 -0.96,-10.78 -0.78,-10.98 -0.61,-11.18 -0.39,-11.33 -0.17,-11.48 0.07,-11.58 0.32,-11.67 0.58,-11.71 0.85,-11.74 1.11,-11.71 1.38,-11.68 1.63,-11.58 1.88,-11.49 2.10,-11.34 2.32,-11.18 2.49,-10.99 2.67,-10.79 2.79,-10.55 2.92,-10.31 2.98,-10.06 3.05,-9.80 3.05,-9.53 3.05,-9.26 2.55,-8.06 2.06,-6.85 1.35,-5.20 0.65,-3.55 -1.03,0.63 -2.72,4.82 -4.17,8.38 -5.63,11.95 -7.02,15.12 -8.40,18.29 -9.27,20.18 -10.15,22.06 -10.42,22.94 -10.69,23.82 -10.80,24.00 -10.91,24.19 -11.06,24.34 -11.22,24.50 -11.40,24.61 -11.59,24.72 -11.80,24.79 -12.00,24.85 -12.22,24.87 -12.44,24.88 -12.65,24.84 -12.86,24.80 -13.06,24.72 -13.26,24.63 -13.43,24.49 -13.60,24.36 -13.74,24.19 -13.87,24.02 -13.96,23.82 -14.05,23.62 -14.09,23.41 -14.13,23.20 -14.12,22.98 -14.11,22.76 -14.04,22.55 -13.98,22.35 -13.48,21.15 -12.97,19.96 -11.52,16.96 -10.07,13.97 -7.87,10.01 -5.68,6.06 -3.45,2.74 -1.21,-0.56 0.17,-2.40 1.56,-4.25 2.18,-5.17 2.80,-6.09 2.94,-6.24 3.08,-6.38 3.25,-6.49 3.42,-6.60 3.61,-6.67 3.80,-6.73 4.00,-6.75 4.21,-6.77 4.41,-6.74 4.61,-6.71 4.79,-6.63 4.98,-6.55 5.14,-6.43 5.31,-6.31 5.44,-6.16 5.56,-6.00 5.65,-5.82 5.74,-5.63 5.78,-5.44 5.83,-5.24 5.82,-5.04 5.81,-4.83 5.76,-4.64 5.70,-4.44 5.60,-4.27 5.50,-4.09 5.11,-2.68 4.71,-1.27 3.85,0.42 3.00,2.11 2.36,3.53 1.73,4.96 1.26,6.18 0.79,7.39 0.64,7.61 0.50,7.82 0.31,7.99 0.12,8.16 -0.09,8.28 -0.31,8.40 -0.56,8.47 -0.81,8.53 -1.06,8.53 -1.32,8.54 -1.57,8.48 -1.81,8.42 -2.04,8.31 -2.27,8.19 -2.46,8.02 -2.65,7.86 -2.80,7.65 -2.95,7.44 -3.04,7.21 -3.14,6.97 -3.17,6.72 -3.20,6.46 -3.18,6.21 -3.15,5.96 -3.06,5.72 -2.97,5.48 -2.36,4.58 -1.75,3.68 -1.01,2.76 -0.27,1.84 0.66,0.86 1.60,-0.12 2.54,-1.14 3.48,-2.17 4.23,-2.99 4.98,-3.81 5.80,-4.68 6.63,-5.54 7.69,-6.58 8.75,-7.62 9.19,-7.93 9.64,-8.25 9.96,-8.41 10.28,-8.57 10.62,-8.65 10.97,-8.73 11.32,-8.72 11.68,-8.71 12.02,-8.62 12.36,-8.53 12.68,-8.35 12.99,-8.18 13.25,-7.94 13.51,-7.70 13.70,-7.40 13.90,-7.11 14.02,-6.77 14.14,-6.44 14.17,-6.08 14.21,-5.73 14.16,-5.38 14.11,-5.03 13.97,-4.70 13.84,-4.37 13.63,-4.08 13.43,-3.79 13.15,-3.56 12.88,-3.33 12.54,-0.35 12.19,2.62 11.07,5.76 9.95,8.90 8.79,12.07 7.63,15.23 6.86,17.29 6.09,19.35 5.64,20.89 5.19,22.43 4.99,23.53 4.79,24.63 4.69,24.86 4.58,25.10 4.42,25.30 4.26,25.51 4.06,25.67 3.85,25.83 3.62,25.93 3.38,26.04 3.12,26.08 2.87,26.13 2.61,26.11 2.35,26.10 2.10,26.02 1.86,25.94 1.64,25.81 1.41,25.67 1.23,25.49 1.05,25.31 0.91,25.09 0.78,24.86 0.70,24.62 0.63,24.37 0.61,24.11 0.60,23.85 0.64,23.60 0.69,23.34 1.37,22.43 2.05,21.52 4.10,19.45 6.15,17.38 6.48,17.18 6.80,16.97 7.17,16.88 7.54,16.79 7.93,16.82 8.31,16.85 8.66,17.00 9.01,17.16 9.30,17.41 9.58,17.67 9.77,18.00 9.96,18.34 10.03,18.72 10.10,19.09 10.05,19.47 10.00,19.85 9.82,20.19 9.65,20.54 9.38,20.81 9.11,21.08 8.77,21.25 8.42,21.42 8.04,21.47 7.66,21.52 7.29,21.45 6.91,21.37 6.58,21.18 6.24,20.99 5.99,20.71 5.73,20.42 5.58,20.07 5.43,19.72 5.40,19.34 5.37,18.95 5.46,18.58 5.56,18.21 5.76,17.89 5.97,17.56 6.27,17.32 6.57,17.08 6.93,16.95 7.29,16.82 7.67,16.81 8.06,16.80 8.42,16.92 8.79,17.03 9.10,17.25 9.41,17.48 9.63,17.79 9.86,18.10 9.97,18.47 10.08,18.84 10.07,19.22 10.06,19.60 9.93,19.96 9.79,20.32 9.55,20.62 9.31,20.92 9.31,20.92 9.31,20.92 7.05,22.77 4.79,24.63 4.69,24.86 4.58,25.10 4.42,25.30 4.26,25.51 4.06,25.67 3.85,25.83 3.62,25.93 3.38,26.04 3.12,26.08 2.87,26.13 2.61,26.11 2.35,26.10 2.10,26.02 1.86,25.94 1.64,25.81 1.41,25.68 1.23,25.49 1.05,25.31 0.91,25.09 0.78,24.86 0.70,24.62 0.63,24.37 0.61,24.11 0.60,23.85 0.64,23.60 0.69,23.34 1.15,22.32 1.61,21.29 2.14,19.76 2.67,18.22 3.28,16.11 3.88,14.01 4.80,10.81 5.72,7.61 6.51,4.49 7.30,1.37 7.77,-1.12 8.24,-3.63 8.94,-5.94 9.64,-8.25 9.96,-8.41 10.27,-8.57 10.62,-8.65 10.97,-8.73 11.32,-8.72 11.68,-8.71 12.02,-8.62 12.36,-8.53 12.68,-8.35 12.99,-8.18 13.25,-7.94 13.51,-7.70 13.70,-7.40 13.90,-7.11 14.02,-6.77 14.14,-6.44 14.17,-6.08 14.21,-5.73 14.16,-5.38 14.11,-5.03 13.97,-4.70 13.84,-4.37 13.63,-4.08 13.43,-3.79 13.15,-3.56 12.88,-3.33 12.69,-3.28 12.49,-3.23 11.54,-2.46 10.58,-1.69 9.78,-0.88 8.97,-0.07 8.19,0.74 7.40,1.56 6.19,2.62 4.97,3.68 4.05,4.29 3.12,4.90 1.95,6.15 0.79,7.39 0.64,7.61 0.50,7.82 0.31,7.99 0.12,8.16 -0.09,8.28 -0.31,8.40 -0.56,8.47 -0.81,8.53 -1.06,8.53 -1.32,8.54 -1.57,8.48 -1.81,8.42 -2.04,8.31 -2.27,8.19 -2.46,8.02 -2.65,7.86 -2.80,7.65 -2.95,7.44 -3.04,7.21 -3.14,6.97 -3.17,6.72 -3.20,6.46 -3.18,6.21 -3.15,5.96 -3.06,5.72 -2.97,5.48 -2.26,4.41 -1.54,3.34 -0.79,1.96 -0.04,0.57 0.80,-1.09 1.65,-2.75 2.22,-4.42 2.80,-6.09 2.94,-6.24 3.08,-6.38 3.25,-6.49 3.42,-6.60 3.61,-6.67 3.80,-6.73 4.00,-6.75 4.21,-6.77 4.41,-6.74 4.61,-6.71 4.79,-6.63 4.98,-6.55 5.14,-6.43 5.31,-6.31 5.44,-6.16 5.56,-6.00 5.65,-5.82 5.74,-5.63 5.78,-5.44 5.83,-5.24 5.82,-5.04 5.81,-4.83 5.76,-4.64 5.70,-4.44 5.60,-4.27 5.50,-4.09 4.69,-3.31 3.88,-2.53 2.57,-0.72 1.27,1.08 -0.83,4.31 -2.94,7.55 -5.00,11.45 -7.07,15.36 -8.38,18.33 -9.68,21.31 -10.19,22.56 -10.69,23.82 -10.80,24.00 -10.91,24.19 -11.06,24.34 -11.22,24.50 -11.40,24.61 -11.59,24.72 -11.80,24.79 -12.00,24.85 -12.22,24.87 -12.44,24.88 -12.65,24.84 -12.86,24.80 -13.06,24.72 -13.26,24.63 -13.43,24.49 -13.60,24.36 -13.74,24.19 -13.87,24.02 -13.96,23.82 -14.05,23.62 -14.09,23.41 -14.13,23.20 -14.12,22.98 -14.11,22.76 -14.04,22.55 -13.98,22.35 -13.51,21.56 -13.05,20.77 -12.24,18.90 -11.43,17.02 -10.18,13.86 -8.93,10.69 -7.63,7.07 -6.33,3.46 -4.84,-0.82 -3.36,-5.12 -2.35,-7.45 -1.34,-9.79 -1.27,-10.05 -1.21,-10.31 -1.08,-10.54 -0.96,-10.78 -0.78,-10.98 -0.61,-11.18 -0.39,-11.33 -0.17,-11.48 0.07,-11.58 0.32,-11.67 0.58,-11.71 0.85,-11.74 1.11,-11.71 1.38,-11.68 1.63,-11.58 1.88,-11.49 2.10,-11.34 2.32,-11.18 2.49,-10.99 2.67,-10.79 2.79,-10.55 2.92,-10.31 2.98,-10.06 3.05,-9.80 3.05,-9.53 3.05,-9.26 2.80,-8.26 2.56,-7.26 2.35,-5.93 2.14,-4.59 2.08,-2.23 2.01,0.13 1.97,0.37 1.92,0.61 1.82,0.83 1.72,1.05 1.57,1.24 1.42,1.44 1.22,1.58 1.03,1.73 0.81,1.83 0.58,1.93 0.34,1.97 0.10,2.02 -0.13,2.00 -0.37,1.98 -0.60,1.91 -0.84,1.84 -1.05,1.71 -1.25,1.58 -1.42,1.41 -1.60,1.23 -1.72,1.02 -1.85,0.81 -1.92,0.58 -1.99,0.35 -2.00,0.10 -2.01,-0.13 -2.01,-0.13 L -2.01,-0.13 Z"></path></g></g><g clip-path="url(#ooLtDW8VdotbKnhfoflCi)"><g transform="translate(187.3908626099443 137.81639422257354) rotate(0 11.198556067964233 17.529247505818745)" stroke="none"><path fill="transparent" d="M 2.39,-0.52 Q 2.39,-0.52 2.67,0.60 2.95,1.73 3.28,2.82 3.62,3.91 4.17,6.10 4.73,8.30 5.02,9.69 5.31,11.09 5.60,12.46 5.88,13.83 6.16,15.40 6.44,16.98 6.74,18.14 7.05,19.30 7.44,20.49 7.82,21.68 8.35,22.86 8.88,24.05 10.01,25.85 11.14,27.65 12.07,28.85 13.01,30.04 14.58,30.69 16.15,31.34 17.54,31.59 18.93,31.83 17.95,29.93 16.96,28.04 16.17,27.02 15.37,26.01 14.63,25.15 13.88,24.29 12.84,23.25 11.81,22.20 10.08,20.95 8.35,19.70 7.10,18.63 5.85,17.56 4.98,16.78 4.10,16.00 3.26,15.17 2.41,14.33 0.81,12.73 -0.78,11.13 -1.09,10.76 -1.40,10.38 -1.58,9.93 -1.75,9.48 -1.77,8.99 -1.79,8.51 -1.66,8.04 -1.52,7.57 -1.25,7.17 -0.97,6.77 -0.58,6.48 -0.19,6.19 0.26,6.04 0.73,5.89 1.21,5.90 1.70,5.90 2.16,6.06 2.62,6.22 3.00,6.52 3.38,6.82 3.65,7.23 3.92,7.63 4.05,8.10 4.17,8.57 4.14,9.06 4.11,9.54 3.92,9.99 3.74,10.44 3.42,10.81 3.10,11.17 2.68,11.42 2.26,11.67 1.79,11.77 1.31,11.86 0.83,11.81 0.35,11.75 -0.08,11.54 -0.52,11.33 -0.87,10.99 -1.22,10.66 -1.44,10.22 -1.67,9.79 -1.74,9.31 -1.81,8.83 -1.73,8.35 -1.65,7.87 -1.41,7.45 -1.18,7.02 -0.82,6.69 -0.47,6.36 -0.02,6.16 0.41,5.96 0.89,5.91 1.38,5.87 1.85,5.98 2.32,6.09 2.74,6.34 3.15,6.60 3.15,6.60 3.15,6.59 4.86,8.37 6.57,10.15 8.03,11.54 9.48,12.93 10.70,13.79 11.92,14.65 12.86,15.29 13.80,15.94 14.91,16.88 16.02,17.81 17.18,19.08 18.34,20.35 19.16,21.26 19.99,22.17 20.94,23.25 21.89,24.33 23.04,25.77 24.18,27.21 24.76,28.68 25.34,30.15 25.33,31.40 25.33,32.66 24.43,34.54 23.53,36.41 21.52,37.25 19.51,38.10 17.92,37.86 16.33,37.62 14.32,37.03 12.31,36.44 11.06,35.70 9.82,34.96 9.14,34.12 8.45,33.28 7.55,31.87 6.65,30.47 6.03,29.42 5.40,28.38 4.81,27.26 4.23,26.15 3.57,24.69 2.91,23.24 2.49,21.89 2.07,20.55 1.77,19.26 1.46,17.96 1.12,16.44 0.79,14.92 0.49,13.58 0.20,12.24 -0.14,10.79 -0.49,9.34 -0.89,7.33 -1.29,5.32 -1.62,4.06 -1.96,2.80 -2.17,1.66 -2.39,0.52 -2.41,0.22 -2.44,-0.06 -2.40,-0.35 -2.36,-0.65 -2.24,-0.92 -2.13,-1.19 -1.96,-1.43 -1.78,-1.67 -1.56,-1.86 -1.33,-2.05 -1.07,-2.18 -0.80,-2.31 -0.51,-2.37 -0.22,-2.43 0.06,-2.42 0.36,-2.42 0.64,-2.34 0.93,-2.26 1.18,-2.12 1.44,-1.97 1.66,-1.77 1.87,-1.57 2.03,-1.32 2.19,-1.07 2.29,-0.79 2.39,-0.52 2.39,-0.52 L 2.39,-0.52 Z"></path></g></g><g clip-path="url(#ooLtDW8VdotbKnhfoflCi)"><g transform="translate(188.5258752173993 146.6409410013423) rotate(0 4.95246184308769 11.26861313496164)" stroke="none"><path fill="transparent" d="M 2.07,0.38 Q 2.07,0.38 1.49,2.91 0.91,5.43 0.32,7.42 -0.26,9.41 -0.52,10.56 -0.78,11.71 -0.90,12.26 -1.02,12.81 -1.12,13.04 -1.22,13.27 -1.38,13.47 -1.54,13.68 -1.74,13.84 -1.94,13.99 -2.17,14.10 -2.40,14.21 -2.65,14.25 -2.90,14.30 -3.16,14.29 -3.42,14.27 -3.66,14.20 -3.90,14.12 -4.12,13.99 -4.34,13.86 -4.53,13.68 -4.71,13.50 -4.84,13.29 -4.97,13.07 -5.05,12.82 -5.13,12.58 -5.15,12.32 -5.16,12.07 -5.12,11.82 -5.07,11.57 -4.10,8.95 -3.13,6.33 -1.68,3.83 -0.24,1.32 0.67,-0.18 1.60,-1.69 2.65,-2.88 3.70,-4.08 3.83,-4.04 3.95,-3.99 4.14,-4.16 4.33,-4.33 4.56,-4.45 4.79,-4.57 5.04,-4.64 5.29,-4.70 5.54,-4.70 5.80,-4.70 6.05,-4.64 6.30,-4.57 6.53,-4.45 6.76,-4.33 6.95,-4.16 7.14,-3.99 7.29,-3.78 7.43,-3.57 7.53,-3.33 7.62,-3.09 7.65,-2.83 7.68,-2.58 7.65,-2.32 7.62,-2.07 7.53,-1.83 7.43,-1.59 7.29,-1.37 7.14,-1.16 6.53,0.36 5.93,1.90 5.27,3.21 4.62,4.53 4.43,4.77 4.25,5.01 4.02,5.20 3.78,5.39 3.51,5.51 3.23,5.64 2.93,5.70 2.64,5.76 2.34,5.74 2.03,5.73 1.75,5.64 1.46,5.55 1.20,5.40 0.93,5.25 0.72,5.04 0.50,4.83 0.34,4.57 0.18,4.31 0.09,4.02 0.00,3.74 -0.01,3.44 -0.04,3.13 0.01,2.84 0.06,2.54 0.18,2.26 0.30,1.98 1.57,-0.19 2.84,-2.37 4.42,-3.57 6.01,-4.77 7.61,-3.89 9.22,-3.00 9.43,-1.29 9.64,0.41 8.43,3.20 7.22,5.98 5.98,8.19 4.73,10.39 4.06,11.72 3.40,13.05 3.12,13.75 2.84,14.44 2.68,14.67 2.52,14.89 2.31,15.07 2.11,15.25 1.86,15.38 1.62,15.50 1.36,15.56 1.09,15.63 0.82,15.63 0.54,15.62 0.28,15.56 0.01,15.49 -0.22,15.36 -0.46,15.23 -0.67,15.05 -0.87,14.86 -1.02,14.64 -1.18,14.41 -1.27,14.15 -1.37,13.90 -1.40,13.63 -1.43,13.35 -1.39,13.08 -1.36,12.81 -1.26,12.56 -1.16,12.30 0.17,11.10 1.50,9.89 3.03,9.19 4.56,8.50 6.55,9.20 8.54,9.91 9.09,11.91 9.63,13.91 9.26,15.95 8.89,17.98 8.14,19.83 7.40,21.68 6.95,22.82 6.51,23.97 6.35,24.44 6.20,24.91 6.05,25.16 5.90,25.41 5.69,25.62 5.49,25.84 5.24,25.99 4.99,26.15 4.71,26.24 4.43,26.33 4.13,26.35 3.84,26.37 3.55,26.32 3.26,26.27 2.99,26.15 2.72,26.03 2.48,25.85 2.25,25.68 2.06,25.44 1.88,25.21 1.75,24.95 1.63,24.68 1.57,24.39 1.52,24.10 1.53,23.81 1.55,23.51 1.63,23.23 1.72,22.95 2.53,21.85 3.35,20.75 4.39,19.56 5.42,18.37 6.40,17.32 7.38,16.28 8.42,15.54 9.45,14.81 9.24,14.96 9.02,15.11 9.28,14.93 9.53,14.75 9.83,14.63 10.12,14.52 10.43,14.48 10.74,14.44 11.05,14.47 11.37,14.50 11.66,14.61 11.95,14.72 12.21,14.90 12.47,15.07 12.69,15.31 12.90,15.54 13.04,15.82 13.19,16.09 13.27,16.40 13.35,16.70 13.35,17.01 13.35,17.33 13.28,17.63 13.21,17.94 13.07,18.22 12.92,18.50 12.72,18.74 12.51,18.97 11.94,20.83 11.36,22.69 10.89,23.83 10.41,24.97 10.08,25.99 9.75,27.01 9.58,27.30 9.42,27.60 9.19,27.84 8.96,28.08 8.68,28.26 8.40,28.45 8.08,28.55 7.77,28.66 7.43,28.69 7.10,28.72 6.77,28.67 6.44,28.62 6.13,28.49 5.82,28.37 5.55,28.17 5.28,27.97 5.07,27.71 4.85,27.46 4.71,27.16 4.56,26.85 4.49,26.53 4.42,26.20 4.43,25.87 4.44,25.53 4.53,25.21 4.62,24.89 5.45,23.98 6.27,23.06 7.97,21.77 9.67,20.48 12.57,21.40 15.48,22.32 13.83,22.48 12.17,22.64 12.52,22.75 12.86,22.86 13.17,23.06 13.48,23.25 13.73,23.50 13.98,23.76 14.17,24.08 14.35,24.39 14.46,24.73 14.56,25.08 14.58,25.44 14.60,25.81 14.53,26.16 14.46,26.52 14.31,26.85 14.15,27.17 13.93,27.46 13.70,27.74 13.41,27.96 13.13,28.18 12.79,28.33 12.46,28.47 12.10,28.53 11.75,28.59 11.39,28.57 11.03,28.54 12.28,28.22 13.53,27.89 13.11,28.14 12.70,28.39 12.22,28.49 11.75,28.59 11.26,28.54 10.78,28.48 10.34,28.28 9.90,28.07 9.55,27.73 9.20,27.40 8.97,26.97 8.75,26.53 8.67,26.05 8.59,25.57 8.68,25.09 8.76,24.62 8.99,24.19 9.22,23.76 9.57,23.43 9.93,23.09 10.37,22.89 10.81,22.69 11.30,22.64 11.78,22.59 12.25,22.70 12.73,22.81 13.14,23.06 13.56,23.31 13.87,23.68 14.18,24.06 14.36,24.51 14.54,24.96 14.56,25.45 14.59,25.93 14.45,26.40 14.32,26.87 14.04,27.27 13.77,27.67 13.38,27.96 12.99,28.25 12.53,28.41 12.07,28.56 11.58,28.56 11.10,28.55 10.64,28.40 10.18,28.24 9.79,27.94 9.41,27.65 9.13,27.24 8.86,26.84 8.74,26.37 8.61,25.90 8.64,25.41 8.67,24.93 8.85,24.48 9.03,24.03 10.60,23.33 12.17,22.64 12.52,22.75 12.86,22.86 13.17,23.05 13.48,23.25 13.73,23.50 13.98,23.76 14.17,24.08 14.35,24.39 14.46,24.73 14.56,25.08 14.58,25.44 14.60,25.81 14.53,26.16 14.46,26.52 14.31,26.85 14.15,27.17 13.93,27.46 13.70,27.74 13.41,27.96 13.13,28.18 12.79,28.32 12.46,28.47 12.11,28.53 11.75,28.59 11.39,28.57 11.03,28.54 10.60,25.65 10.17,22.77 11.43,24.07 12.69,25.37 11.22,26.19 9.75,27.01 9.58,27.30 9.42,27.60 9.19,27.84 8.96,28.08 8.68,28.26 8.40,28.45 8.08,28.55 7.77,28.66 7.43,28.69 7.10,28.72 6.77,28.67 6.44,28.62 6.13,28.49 5.82,28.37 5.55,28.17 5.28,27.97 5.07,27.71 4.85,27.46 4.71,27.16 4.56,26.85 4.49,26.53 4.42,26.20 4.43,25.87 4.44,25.53 4.53,25.21 4.62,24.89 5.10,23.89 5.58,22.89 6.07,21.77 6.57,20.64 7.07,19.49 7.56,18.34 8.29,16.73 9.02,15.11 9.28,14.93 9.53,14.75 9.83,14.63 10.12,14.52 10.43,14.48 10.74,14.44 11.05,14.47 11.37,14.50 11.66,14.61 11.95,14.72 12.21,14.90 12.47,15.07 12.69,15.31 12.90,15.54 13.04,15.82 13.19,16.09 13.27,16.40 13.35,16.70 13.35,17.01 13.35,17.33 13.28,17.63 13.21,17.94 13.07,18.22 12.92,18.50 12.72,18.74 12.51,18.97 11.71,19.32 10.91,19.67 10.00,20.59 9.10,21.51 7.65,23.21 6.20,24.91 6.05,25.16 5.90,25.41 5.69,25.62 5.49,25.84 5.24,25.99 4.99,26.15 4.71,26.24 4.43,26.33 4.13,26.35 3.84,26.37 3.55,26.32 3.26,26.27 2.99,26.15 2.72,26.03 2.48,25.85 2.25,25.68 2.06,25.45 1.88,25.22 1.75,24.95 1.63,24.68 1.57,24.39 1.52,24.10 1.53,23.81 1.55,23.51 1.63,23.23 1.72,22.95 1.96,22.52 2.21,22.09 2.70,21.08 3.20,20.08 3.74,18.56 4.27,17.04 5.15,15.00 6.03,12.95 4.43,13.70 2.84,14.44 2.68,14.67 2.52,14.89 2.31,15.07 2.11,15.25 1.87,15.38 1.62,15.50 1.36,15.56 1.09,15.63 0.82,15.63 0.54,15.62 0.28,15.56 0.01,15.49 -0.22,15.36 -0.46,15.23 -0.67,15.05 -0.87,14.86 -1.02,14.64 -1.18,14.41 -1.27,14.15 -1.37,13.90 -1.40,13.63 -1.43,13.35 -1.39,13.08 -1.36,12.81 -1.26,12.56 -1.16,12.30 -0.76,11.67 -0.35,11.04 0.35,9.80 1.05,8.56 1.98,6.41 2.91,4.27 3.90,1.27 4.90,-1.71 5.96,-0.63 7.03,0.44 5.82,2.48 4.62,4.53 4.43,4.77 4.25,5.01 4.02,5.20 3.78,5.39 3.51,5.51 3.23,5.64 2.94,5.70 2.64,5.76 2.34,5.74 2.03,5.73 1.75,5.64 1.46,5.55 1.20,5.40 0.94,5.25 0.72,5.04 0.50,4.83 0.34,4.57 0.18,4.31 0.09,4.02 0.00,3.74 -0.01,3.44 -0.04,3.13 0.01,2.84 0.06,2.54 0.18,2.26 0.30,1.98 0.62,1.56 0.94,1.13 1.97,-0.44 3.01,-2.01 3.48,-3.00 3.95,-3.99 4.14,-4.16 4.33,-4.33 4.56,-4.45 4.79,-4.57 5.04,-4.64 5.29,-4.70 5.54,-4.70 5.80,-4.70 6.05,-4.64 6.30,-4.57 6.53,-4.45 6.76,-4.33 6.95,-4.16 7.14,-3.99 7.29,-3.78 7.43,-3.57 7.53,-3.33 7.62,-3.09 7.65,-2.83 7.68,-2.58 7.65,-2.32 7.62,-2.07 7.53,-1.83 7.43,-1.59 7.29,-1.37 7.14,-1.16 5.96,-0.42 4.77,0.30 3.87,1.68 2.98,3.06 1.80,5.44 0.62,7.83 -0.20,10.32 -1.02,12.80 -1.12,13.04 -1.22,13.27 -1.38,13.47 -1.54,13.68 -1.74,13.84 -1.94,13.99 -2.17,14.10 -2.40,14.21 -2.65,14.25 -2.90,14.30 -3.16,14.29 -3.42,14.27 -3.66,14.20 -3.90,14.13 -4.12,13.99 -4.34,13.86 -4.53,13.68 -4.71,13.50 -4.84,13.29 -4.97,13.07 -5.05,12.82 -5.13,12.58 -5.15,12.32 -5.16,12.07 -5.12,11.82 -5.07,11.57 -4.82,11.06 -4.57,10.56 -4.16,9.51 -3.75,8.45 -3.28,6.59 -2.81,4.73 -2.44,2.17 -2.07,-0.38 -1.99,-0.63 -1.92,-0.87 -1.78,-1.09 -1.65,-1.30 -1.47,-1.48 -1.29,-1.66 -1.07,-1.79 -0.85,-1.92 -0.61,-2.00 -0.37,-2.07 -0.11,-2.09 0.13,-2.10 0.38,-2.06 0.63,-2.01 0.86,-1.90 1.09,-1.80 1.29,-1.64 1.49,-1.48 1.65,-1.28 1.81,-1.08 1.91,-0.85 2.01,-0.62 2.06,-0.37 2.10,-0.11 2.09,0.13 2.07,0.38 2.07,0.38 L 2.07,0.38 Z"></path></g></g><g clip-path="url(#ooLtDW8VdotbKnhfoflCi)"><g stroke-linecap="round" transform="translate(178.82010747010952 132.58194166955911) rotate(0 13.817985396892766 30.240859976733418)"><path d="M9.5 1.64 C9.5 1.64, 9.5 1.64, 9.5 1.64 M9.5 1.64 C9.5 1.64, 9.5 1.64, 9.5 1.64 M3.34 14.83 C8.14 10.24, 12.14 4.84, 14.49 2 M3.34 14.83 C7.62 11.34, 10.92 6.9, 14.49 2 M2.42 21.98 C6 17.63, 10 12.22, 19.48 2.36 M2.42 21.98 C6.28 15.71, 12.55 11.29, 19.48 2.36 M1.5 29.13 C7.18 21.01, 14.03 14.25, 21.84 5.74 M1.5 29.13 C5.77 24.25, 9.68 18.93, 21.84 5.74 M1.24 35.53 C5.74 29.98, 13.22 23.49, 22.89 10.62 M1.24 35.53 C9.62 25.95, 18.17 16.86, 22.89 10.62 M2.29 40.42 C9.3 35.88, 15.42 27.54, 24.6 14.76 M2.29 40.42 C7.95 34.61, 13.97 28.05, 24.6 14.76 M3.34 45.31 C9.83 39.37, 16.55 32.55, 26.3 18.89 M3.34 45.31 C11.02 37.1, 18.46 27.92, 26.3 18.89 M4.39 50.19 C12.71 40.26, 20.37 28.89, 26.7 24.53 M4.39 50.19 C10.82 44.08, 15.91 35.45, 26.7 24.53 M6.76 53.57 C14.07 44.86, 17.62 38.63, 27.09 30.18 M6.76 53.57 C13.12 44.85, 21.02 37.49, 27.09 30.18 M9.12 56.95 C11.89 49.71, 18.56 46.23, 27.49 35.82 M9.12 56.95 C15.01 50.91, 19.76 44.82, 27.49 35.82 M12.14 59.58 C13.5 54.72, 18.91 52.88, 25.26 44.48 M12.14 59.58 C15.68 55.77, 17.61 51.75, 25.26 44.48 M19.75 56.92 C20.94 56.01, 21.51 54.2, 23.03 53.14 M19.75 56.92 C20.67 55.94, 21.9 54.48, 23.03 53.14" stroke="#1e1e1e" stroke-width="0.5" fill="none"></path><path d="M9.25 1.92 C12.14 -0.33, 17.13 -0.08, 19.83 2.45 C22.53 4.98, 24.26 11.28, 25.46 17.1 C26.67 22.92, 27.59 30.99, 27.05 37.4 C26.51 43.81, 24.68 51.76, 22.24 55.56 C19.79 59.37, 15.39 60.91, 12.39 60.22 C9.38 59.54, 6.19 55.94, 4.2 51.45 C2.21 46.95, 0.67 39.65, 0.45 33.24 C0.23 26.83, 1.13 18.51, 2.86 12.98 C4.58 7.45, 9.19 1.96, 10.82 0.07 C12.44 -1.82, 12.47 1.12, 12.59 1.64 M15.86 1.29 C18.75 1.16, 21 3.65, 23.03 7.84 C25.06 12.03, 27.46 19.97, 28.05 26.44 C28.64 32.92, 28.41 41.37, 26.57 46.67 C24.73 51.98, 20.12 56.61, 17.01 58.28 C13.9 59.95, 10.72 59.11, 7.89 56.7 C5.07 54.29, 1.13 49.47, 0.06 43.81 C-1.01 38.14, 0.38 29.23, 1.48 22.69 C2.58 16.15, 4.18 8.45, 6.64 4.58 C9.1 0.72, 15.07 0.32, 16.23 -0.5 C17.38 -1.33, 13.97 -1.11, 13.56 -0.37" stroke="transparent" stroke-width="1" fill="none"></path></g></g><g clip-path="url(#ooLtDW8VdotbKnhfoflCi)"><g stroke-linecap="round" transform="translate(158.14540584776137 14.931703951645886) rotate(0 40.248346318697884 27.5)"><path d="M13.75 0 C24.83 2.03, 38.37 1.76, 66.75 0 M13.75 0 C32.02 0.22, 49.86 0.68, 66.75 0 M66.75 0 C77.7 -0.99, 80.12 4.5, 80.5 13.75 M66.75 0 C74.55 0.85, 79.98 5.76, 80.5 13.75 M80.5 13.75 C81.99 22.31, 81.19 27.12, 80.5 41.25 M80.5 13.75 C80.97 23.23, 80.01 30.56, 80.5 41.25 M80.5 41.25 C81.13 49.2, 77.74 54.05, 66.75 55 M80.5 41.25 C79.74 48.72, 75.62 53.38, 66.75 55 M66.75 55 C55.43 56.48, 42.65 57.12, 13.75 55 M66.75 55 C52.27 55.18, 38.54 54.75, 13.75 55 M13.75 55 C5.12 55.05, -1.4 51.01, 0 41.25 M13.75 55 C3.14 54.51, 0.48 52.43, 0 41.25 M0 41.25 C-0.91 32.88, 0.73 25.04, 0 13.75 M0 41.25 C0.51 30.29, -0.08 19.78, 0 13.75 M0 13.75 C0.41 6.31, 5.7 1.44, 13.75 0 M0 13.75 C-0.07 3.75, 4.29 0.99, 13.75 0" stroke="#1e1e1e" stroke-width="1" fill="none"></path></g></g><g clip-path="url(#ooLtDW8VdotbKnhfoflCi)"><g transform="translate(171.79854495210378 20.37065614966258) rotate(0 26.59520721435547 22.061047801983307)"><text x="26.59520721435547" y="0" font-family="Virgil, Segoe UI Emoji" font-size="11.765892161057764px" fill="#1e1e1e" text-anchor="middle" style="white-space: pre;" direction="ltr" dominant-baseline="text-before-edge">rows with</text><text x="26.59520721435547" y="14.707365201322204" font-family="Virgil, Segoe UI Emoji" font-size="11.765892161057764px" fill="#1e1e1e" text-anchor="middle" style="white-space: pre;" direction="ltr" dominant-baseline="text-before-edge">matching</text><text x="26.59520721435547" y="29.41473040264441" font-family="Virgil, Segoe UI Emoji" font-size="11.765892161057764px" fill="#1e1e1e" text-anchor="middle" style="white-space: pre;" direction="ltr" dominant-baseline="text-before-edge">join keys</text></g></g><g clip-path="url(#ooLtDW8VdotbKnhfoflCi)"><g stroke-linecap="round"><g transform="translate(197.238894384466 69.8566295220536) rotate(0 -2.1501865680100423 32.59080133292484)"><path d="M0.88 0.5 C-0.04 11.36, -3.63 53.52, -4.46 64.27 M-0.12 -0.29 C-1.3 10.77, -4.72 54.25, -5.5 65.32" stroke="#1e1e1e" stroke-width="1" fill="none"></path></g><g transform="translate(197.238894384466 69.8566295220536) rotate(0 -2.1501865680100423 32.59080133292484)"><path d="M-13.61 36.44 C-9.85 47.28, -9.07 59.06, -5.5 65.32 M-13.61 36.44 C-10.45 44.07, -9.25 52.66, -5.5 65.32" stroke="#1e1e1e" stroke-width="1" fill="none"></path></g><g transform="translate(197.238894384466 69.8566295220536) rotate(0 -2.1501865680100423 32.59080133292484)"><path d="M6.85 37.99 C2.71 48.37, -4.41 59.56, -5.5 65.32 M6.85 37.99 C4.24 45.23, -0.32 53.39, -5.5 65.32" stroke="#1e1e1e" stroke-width="1" fill="none"></path></g></g><mask></mask></g><g clip-path="url(#ooLtDW8VdotbKnhfoflCi)"><g stroke-linecap="round" transform="translate(78.05609081733985 246.54512467773657) rotate(0 122.25079899646346 55)"><path d="M27.5 0 C96.71 0.6, 168.6 0.07, 217 0 M27.5 0 C89.32 0.9, 150.93 1.31, 217 0 M217 0 C234.89 1.02, 243.69 9.04, 244.5 27.5 M217 0 C233.9 1.74, 246.15 9.98, 244.5 27.5 M244.5 27.5 C245.36 42.81, 246.19 54.94, 244.5 82.5 M244.5 27.5 C245.59 40.44, 244.35 53.58, 244.5 82.5 M244.5 82.5 C244.25 99.43, 233.62 110.75, 217 110 M244.5 82.5 C246.09 100.89, 236.62 108.42, 217 110 M217 110 C142.1 106.95, 71.15 107.08, 27.5 110 M217 110 C157.03 110.34, 97.82 109.83, 27.5 110 M27.5 110 C9.58 111.75, -0.74 101.31, 0 82.5 M27.5 110 C10.98 109.03, -1.31 101.74, 0 82.5 M0 82.5 C-0.58 72.13, -1.8 59.29, 0 27.5 M0 82.5 C0.44 71.93, -0.14 59.56, 0 27.5 M0 27.5 C-0.25 10.02, 8.22 0.89, 27.5 0 M0 27.5 C-1.65 9.93, 8.76 1.74, 27.5 0" stroke="#1e1e1e" stroke-width="1" fill="none"></path></g></g><g clip-path="url(#ooLtDW8VdotbKnhfoflCi)"><g transform="translate(97.41095475520956 281.54512467773657) rotate(0 102.89593505859375 20)"><text x="102.89593505859375" y="0" font-family="Virgil, Segoe UI Emoji" font-size="16px" fill="#1e1e1e" text-anchor="middle" style="white-space: pre;" direction="ltr" dominant-baseline="text-before-edge">matching left table rows</text><text x="102.89593505859375" y="20" font-family="Virgil, Segoe UI Emoji" font-size="16px" fill="#1e1e1e" text-anchor="middle" style="white-space: pre;" direction="ltr" dominant-baseline="text-before-edge">without cartesian product</text></g></g><g clip-path="url(#ooLtDW8VdotbKnhfoflCi)"><g stroke-linecap="round"><g transform="translate(194.90138095636416 192.21636262838206) rotate(0 -0.9047345997967113 26.46489255195021)"><path d="M-0.11 0.33 C-0.27 9.09, -0.41 43.58, -0.74 52.34 M-1.63 -0.55 C-1.87 8.38, -0.9 44.44, -1.12 53.56" stroke="#1e1e1e" stroke-width="1" fill="none"></path></g><g transform="translate(194.90138095636416 192.21636262838206) rotate(0 -0.9047345997967113 26.46489255195021)"><path d="M-10.28 28.72 C-6.88 38.4, -5.5 44.11, -1.12 53.56 M-10.28 28.72 C-7.94 36.55, -5.41 43.33, -1.12 53.56" stroke="#1e1e1e" stroke-width="1" fill="none"></path></g><g transform="translate(194.90138095636416 192.21636262838206) rotate(0 -0.9047345997967113 26.46489255195021)"><path d="M7.83 28.64 C5.49 38.33, 1.11 44.07, -1.12 53.56 M7.83 28.64 C4.81 36.56, 1.98 43.36, -1.12 53.56" stroke="#1e1e1e" stroke-width="1" fill="none"></path></g></g><mask></mask></g></svg>