<svg version="1.1" xmlns="http://www.w3.org/2000/svg" viewBox="0 0 383.3304831524558 388.7528732703221" width="383.3304831524558" height="388.7528732703221">
    <!-- svg-source:excalidraw -->

    <defs>
        <style class="style-fonts">
            @font-face {
            font-family: "Virgil";
            src: url("https://excalidraw.com/Virgil.woff2");
            }
            @font-face {
            font-family: "Cascadia";
            src: url("https://excalidraw.com/Cascadia.woff2");
            }
            @font-face {
            font-family: "Assistant";
            src: url("https://excalidraw.com/Assistant-Regular.woff2");
            }
        </style>
        <clipPath id="U0ylOVMEuLnoIMWDowXeS">
            <rect transform="translate(0 0) rotate(0 191.6652415762279 194.37643663516104)" width="383.3304831524558" height="388.7528732703221">
            </rect>
        </clipPath>
    </defs>
    <rect x="0" y="0" width="383.3304831524558" height="388.7528732703221" fill="#ffffff"></rect><g clip-path="url(#U0ylOVMEuLnoIMWDowXeS)"><g transform="translate(13.209684372070342 16.90409569777364) rotate(0 45.7099609375 12.5)"><text x="0" y="0" font-family="Virgil, Segoe UI Emoji" font-size="20px" fill="#1e1e1e" text-anchor="start" style="white-space: pre;" direction="ltr" dominant-baseline="text-before-edge">Left Join</text></g></g><g clip-path="url(#U0ylOVMEuLnoIMWDowXeS)"><g transform="translate(197.22881350251225 141.83035573418647) rotate(0 0.00004999999998744897 0.00004999999998744897)" stroke="none"><path fill="transparent" d="M 1.57,-1.57 Q 1.57,-1.57 1.77,-1.27 1.98,-0.98 2.09,-0.64 2.20,-0.29 2.19,0.05 2.18,0.41 2.05,0.75 1.93,1.09 1.70,1.37 1.48,1.65 1.18,1.84 0.87,2.04 0.52,2.12 0.18,2.21 -0.17,2.18 -0.53,2.15 -0.86,2.01 -1.19,1.87 -1.46,1.63 -1.73,1.39 -1.90,1.07 -2.08,0.76 -2.15,0.41 -2.21,0.05 -2.17,-0.29 -2.12,-0.65 -1.96,-0.97 -1.80,-1.29 -1.54,-1.54 -1.29,-1.80 -0.97,-1.96 -0.65,-2.12 -0.29,-2.17 0.06,-2.21 0.41,-2.15 0.76,-2.08 1.07,-1.90 1.39,-1.73 1.63,-1.46 1.87,-1.19 2.01,-0.86 2.15,-0.53 2.18,-0.17 2.21,0.18 2.12,0.52 2.03,0.87 1.84,1.18 1.65,1.48 1.37,1.70 1.09,1.93 0.75,2.05 0.41,2.18 0.05,2.19 -0.30,2.20 -0.64,2.09 -0.98,1.98 -1.27,1.77 -1.57,1.56 -1.57,1.57 -1.57,1.57 -1.73,1.35 -1.90,1.14 -2.01,0.90 -2.12,0.66 -2.16,0.39 -2.21,0.13 -2.20,-0.13 -2.18,-0.40 -2.10,-0.65 -2.02,-0.91 -1.88,-1.14 -1.74,-1.36 -1.55,-1.55 -1.36,-1.74 -1.14,-1.88 -0.91,-2.02 -0.65,-2.10 -0.40,-2.18 -0.13,-2.20 0.13,-2.21 0.39,-2.16 0.66,-2.12 0.90,-2.01 1.14,-1.90 1.35,-1.73 1.57,-1.57 1.57,-1.57 L 1.57,-1.57 Z"></path></g></g><g clip-path="url(#U0ylOVMEuLnoIMWDowXeS)"><g transform="translate(197.22881350251225 141.83035573418647) rotate(0 0.00004999999998744897 0.00004999999998744897)" stroke="none"><path fill="transparent" d="M 1.57,-1.57 Q 1.57,-1.57 1.77,-1.27 1.98,-0.98 2.09,-0.64 2.20,-0.29 2.19,0.05 2.18,0.41 2.05,0.75 1.93,1.09 1.70,1.37 1.48,1.65 1.18,1.84 0.87,2.04 0.52,2.12 0.18,2.21 -0.17,2.18 -0.53,2.15 -0.86,2.01 -1.19,1.87 -1.46,1.63 -1.73,1.39 -1.90,1.07 -2.08,0.76 -2.15,0.41 -2.21,0.05 -2.17,-0.29 -2.12,-0.65 -1.96,-0.97 -1.80,-1.29 -1.54,-1.54 -1.29,-1.80 -0.97,-1.96 -0.65,-2.12 -0.29,-2.17 0.06,-2.21 0.41,-2.15 0.76,-2.08 1.07,-1.90 1.39,-1.73 1.63,-1.46 1.87,-1.19 2.01,-0.86 2.15,-0.53 2.18,-0.17 2.21,0.18 2.12,0.52 2.03,0.87 1.84,1.18 1.65,1.48 1.37,1.70 1.09,1.93 0.75,2.05 0.41,2.18 0.05,2.19 -0.30,2.20 -0.64,2.09 -0.98,1.98 -1.27,1.77 -1.57,1.56 -1.57,1.57 -1.57,1.57 -1.73,1.35 -1.90,1.14 -2.01,0.90 -2.12,0.66 -2.16,0.39 -2.21,0.13 -2.20,-0.13 -2.18,-0.40 -2.10,-0.65 -2.02,-0.91 -1.88,-1.14 -1.74,-1.36 -1.55,-1.55 -1.36,-1.74 -1.14,-1.88 -0.91,-2.02 -0.65,-2.10 -0.40,-2.18 -0.13,-2.20 0.13,-2.21 0.39,-2.16 0.66,-2.12 0.90,-2.01 1.14,-1.90 1.35,-1.73 1.57,-1.57 1.57,-1.57 L 1.57,-1.57 Z"></path></g></g><g clip-path="url(#U0ylOVMEuLnoIMWDowXeS)"><g transform="translate(197.22881350251225 141.83035573418647) rotate(0 0.00004999999998744897 0.00004999999998744897)" stroke="none"><path fill="transparent" d="M 1.57,-1.57 Q 1.57,-1.57 1.77,-1.27 1.98,-0.98 2.09,-0.64 2.20,-0.29 2.19,0.05 2.18,0.41 2.05,0.75 1.93,1.09 1.70,1.37 1.48,1.65 1.18,1.84 0.87,2.04 0.52,2.12 0.18,2.21 -0.17,2.18 -0.53,2.15 -0.86,2.01 -1.19,1.87 -1.46,1.63 -1.73,1.39 -1.90,1.07 -2.08,0.76 -2.15,0.41 -2.21,0.05 -2.17,-0.29 -2.12,-0.65 -1.96,-0.97 -1.80,-1.29 -1.54,-1.54 -1.29,-1.80 -0.97,-1.96 -0.65,-2.12 -0.29,-2.17 0.06,-2.21 0.41,-2.15 0.76,-2.08 1.07,-1.90 1.39,-1.73 1.63,-1.46 1.87,-1.19 2.01,-0.86 2.15,-0.53 2.18,-0.17 2.21,0.18 2.12,0.52 2.03,0.87 1.84,1.18 1.65,1.48 1.37,1.70 1.09,1.93 0.75,2.05 0.41,2.18 0.05,2.19 -0.30,2.20 -0.64,2.09 -0.98,1.98 -1.27,1.77 -1.57,1.56 -1.57,1.57 -1.57,1.57 -1.73,1.35 -1.90,1.14 -2.01,0.90 -2.12,0.66 -2.16,0.39 -2.21,0.13 -2.20,-0.13 -2.18,-0.40 -2.10,-0.65 -2.02,-0.91 -1.88,-1.14 -1.74,-1.36 -1.55,-1.55 -1.36,-1.74 -1.14,-1.88 -0.91,-2.02 -0.65,-2.10 -0.40,-2.18 -0.13,-2.20 0.13,-2.21 0.39,-2.16 0.66,-2.12 0.90,-2.01 1.14,-1.90 1.35,-1.73 1.57,-1.57 1.57,-1.57 L 1.57,-1.57 Z"></path></g></g><g clip-path="url(#U0ylOVMEuLnoIMWDowXeS)"><g stroke-linecap="round" transform="translate(151.47491400144145 14.73288487116281) rotate(0 40.248346318697884 27.5)"><path d="M13.75 0 C33.83 0.91, 57.68 0.68, 66.75 0 M13.75 0 C26.59 -0.07, 41.76 0.58, 66.75 0 M66.75 0 C74.49 1.43, 79.9 5.66, 80.5 13.75 M66.75 0 C76.12 -1.35, 82.68 3.84, 80.5 13.75 M80.5 13.75 C80.4 19.85, 81.57 30.67, 80.5 41.25 M80.5 13.75 C80.75 23.43, 80.16 30.5, 80.5 41.25 M80.5 41.25 C80.21 49.6, 75.06 56.78, 66.75 55 M80.5 41.25 C79.31 49.18, 77.64 56.96, 66.75 55 M66.75 55 C50.05 54.88, 36.39 53.58, 13.75 55 M66.75 55 C55.63 54.72, 43.75 54.54, 13.75 55 M13.75 55 C2.88 54.87, -1.71 49.83, 0 41.25 M13.75 55 C6.37 55.88, 1.45 50.28, 0 41.25 M0 41.25 C-1.48 28.81, 0.95 19.67, 0 13.75 M0 41.25 C0.18 32.41, -0.01 24.34, 0 13.75 M0 13.75 C-1.77 4.46, 2.81 -1.36, 13.75 0 M0 13.75 C-0.78 5.46, 3.51 1.83, 13.75 0" stroke="#1e1e1e" stroke-width="1" fill="none"></path></g></g><g clip-path="url(#U0ylOVMEuLnoIMWDowXeS)"><g transform="translate(165.12805310578386 20.171837069179446) rotate(0 26.59520721435547 22.061047801983307)"><text x="26.59520721435547" y="0" font-family="Virgil, Segoe UI Emoji" font-size="11.765892161057764px" fill="#1e1e1e" text-anchor="middle" style="white-space: pre;" direction="ltr" dominant-baseline="text-before-edge">rows with</text><text x="26.59520721435547" y="14.707365201322204" font-family="Virgil, Segoe UI Emoji" font-size="11.765892161057764px" fill="#1e1e1e" text-anchor="middle" style="white-space: pre;" direction="ltr" dominant-baseline="text-before-edge">matching</text><text x="26.59520721435547" y="29.41473040264441" font-family="Virgil, Segoe UI Emoji" font-size="11.765892161057764px" fill="#1e1e1e" text-anchor="middle" style="white-space: pre;" direction="ltr" dominant-baseline="text-before-edge">join keys</text></g></g><g clip-path="url(#U0ylOVMEuLnoIMWDowXeS)"><g stroke-linecap="round"><g transform="translate(192.8648746138383 72.13299629747223) rotate(0 0.03679864746447947 31.453337997062818)"><path d="M0.18 -0.5 C0.33 9.93, 1.38 53.07, 1.2 63.69 M-1.19 -1.81 C-1.12 8.8, 0.41 50.89, 0.84 61.98" stroke="#1e1e1e" stroke-width="1" fill="none"></path></g><g transform="translate(192.8648746138383 72.13299629747223) rotate(0 0.03679864746447947 31.453337997062818)"><path d="M-10.46 34.19 C-7.37 45.11, -1.53 50.63, 0.84 61.98 M-10.46 34.19 C-7.29 43.89, -3.18 52.81, 0.84 61.98" stroke="#1e1e1e" stroke-width="1" fill="none"></path></g><g transform="translate(192.8648746138383 72.13299629747223) rotate(0 0.03679864746447947 31.453337997062818)"><path d="M10.05 33.43 C6.46 44.63, 5.61 50.39, 0.84 61.98 M10.05 33.43 C6.51 43.57, 3.91 52.74, 0.84 61.98" stroke="#1e1e1e" stroke-width="1" fill="none"></path></g></g><mask></mask></g><g clip-path="url(#U0ylOVMEuLnoIMWDowXeS)"><g stroke-linecap="round" transform="translate(111.88661416265427 224.0570222961344) rotate(0 90.04373507219128 27.9620279431241)"><path d="M13.98 0 C63.2 -3.09, 110.34 -0.1, 166.11 0 M13.98 0 C73.47 -0.55, 133.65 -1.67, 166.11 0 M166.11 0 C177.32 -0.65, 179.67 5.17, 180.09 13.98 M166.11 0 C175.26 -0.19, 178.28 5.82, 180.09 13.98 M180.09 13.98 C181.72 25.18, 181.87 34.59, 180.09 41.94 M180.09 13.98 C179.62 20.81, 179.53 25.32, 180.09 41.94 M180.09 41.94 C181.59 52.96, 175.08 57.77, 166.11 55.92 M180.09 41.94 C178.24 49.28, 175.78 55.44, 166.11 55.92 M166.11 55.92 C126.55 58.23, 90.13 58.43, 13.98 55.92 M166.11 55.92 C120.77 55.54, 77.92 56.21, 13.98 55.92 M13.98 55.92 C5.92 55.81, 1.69 52.17, 0 41.94 M13.98 55.92 C4.29 54.36, -2.14 52.49, 0 41.94 M0 41.94 C0.8 34.39, -1.61 26.22, 0 13.98 M0 41.94 C-0.64 35.26, -0.09 30.32, 0 13.98 M0 13.98 C-0.93 6.25, 3.23 0.16, 13.98 0 M0 13.98 C0.05 6.57, 4.97 -0.04, 13.98 0" stroke="#1e1e1e" stroke-width="1" fill="none"></path></g></g><g clip-path="url(#U0ylOVMEuLnoIMWDowXeS)"><g transform="translate(119.30640209129086 232.0190502392585) rotate(0 82.62394714355466 20)"><text x="82.62394714355469" y="0" font-family="Virgil, Segoe UI Emoji" font-size="16px" fill="#1e1e1e" text-anchor="middle" style="white-space: pre;" direction="ltr" dominant-baseline="text-before-edge">cartesian product of</text><text x="82.62394714355469" y="20" font-family="Virgil, Segoe UI Emoji" font-size="16px" fill="#1e1e1e" text-anchor="middle" style="white-space: pre;" direction="ltr" dominant-baseline="text-before-edge">matching rows</text></g></g><g clip-path="url(#U0ylOVMEuLnoIMWDowXeS)"><g stroke-linecap="round"><g transform="translate(195.04002548185372 192.3648704563691) rotate(0 0.063328128082901 15.146587447155582)"><path d="M0.36 0.51 C0.4 5.6, -0.2 25.67, -0.27 30.69 M-0.11 0.3 C0.13 5.22, 0.83 25.02, 0.77 29.92" stroke="#1e1e1e" stroke-width="1" fill="none"></path></g><g transform="translate(195.04002548185372 192.3648704563691) rotate(0 0.063328128082901 15.146587447155582)"><path d="M-4.63 15.77 C-2.74 18.28, -1.73 21.66, 0.77 29.92 M-4.63 15.77 C-2.36 20.67, -0.88 25.9, 0.77 29.92" stroke="#1e1e1e" stroke-width="1" fill="none"></path></g><g transform="translate(195.04002548185372 192.3648704563691) rotate(0 0.063328128082901 15.146587447155582)"><path d="M5.73 15.61 C5.38 18.19, 4.14 21.6, 0.77 29.92 M5.73 15.61 C4.34 20.54, 2.14 25.82, 0.77 29.92" stroke="#1e1e1e" stroke-width="1" fill="none"></path></g></g><mask></mask></g><g clip-path="url(#U0ylOVMEuLnoIMWDowXeS)"><g transform="translate(193.5312647471078 283.35486896777775) rotate(0 8.75 17.5)"><text x="0" y="0" font-family="Virgil, Segoe UI Emoji" font-size="28px" fill="#1e1e1e" text-anchor="start" style="white-space: pre;" direction="ltr" dominant-baseline="text-before-edge">+</text></g></g><g clip-path="url(#U0ylOVMEuLnoIMWDowXeS)"><g stroke-linecap="round" transform="translate(187.32342093687635 114.34452219640343) rotate(0 47.09375 44.78515625)"><path d="M36.42 1 C44.21 -1.37, 55.32 -0.46, 63.26 2.26 C71.2 4.98, 78.84 10.7, 84.07 17.3 C89.3 23.9, 93.82 33.74, 94.66 41.85 C95.51 49.96, 93.32 59, 89.15 65.98 C84.98 72.95, 77.09 79.91, 69.67 83.7 C62.24 87.5, 52.96 89.1, 44.58 88.75 C36.2 88.4, 26.34 86.17, 19.38 81.6 C12.42 77.03, 5.86 68.93, 2.82 61.33 C-0.22 53.74, -0.59 43.92, 1.14 36.02 C2.87 28.12, 6.26 20.05, 13.2 13.94 C20.14 7.84, 36.84 1.63, 42.77 -0.59 C48.7 -2.82, 48.76 -0.2, 48.78 0.6 M63.96 3.93 C71.78 5.48, 79.52 9.69, 84.3 16.11 C89.08 22.54, 91.88 34.25, 92.65 42.46 C93.43 50.67, 92.97 58.67, 88.97 65.38 C84.98 72.08, 76.01 78.54, 68.68 82.69 C61.36 86.85, 53.3 90.4, 45.05 90.29 C36.79 90.19, 26.12 87.01, 19.14 82.06 C12.15 77.1, 6.05 68.51, 3.14 60.55 C0.23 52.59, 0.18 42.08, 1.67 34.31 C3.17 26.53, 6.52 19.35, 12.08 13.9 C17.65 8.44, 26.61 3.54, 35.05 1.56 C43.5 -0.41, 58.37 1.91, 62.75 2.07 C67.12 2.23, 61.67 1.76, 61.28 2.54" stroke="#1e1e1e" stroke-width="2" fill="none"></path></g></g><g clip-path="url(#U0ylOVMEuLnoIMWDowXeS)"><g transform="translate(227.34686431730597 146.46179076552937) rotate(0 7.269996643066406 12.5)"><text x="7.269996643066406" y="0" font-family="Virgil, Segoe UI Emoji" font-size="20px" fill="#1e1e1e" text-anchor="middle" style="white-space: pre;" direction="ltr" dominant-baseline="text-before-edge">B</text></g></g><g clip-path="url(#U0ylOVMEuLnoIMWDowXeS)"><g stroke-linecap="round" transform="translate(110.81821740937892 110.4510685673132) rotate(0 47.09375 44.78515625)"><path d="M19.31 8.84 C19.31 8.84, 19.31 8.84, 19.31 8.84 M19.31 8.84 C19.31 8.84, 19.31 8.84, 19.31 8.84 M8.95 32.95 C12.35 25.48, 20.11 19.55, 35.19 2.76 M8.95 32.95 C14.01 26.13, 18.74 19.88, 35.19 2.76 M7.77 46.5 C18.53 34.39, 29.82 18.67, 45.82 2.73 M7.77 46.5 C14.85 37.91, 22.64 28.55, 45.82 2.73 M6.59 60.05 C21.63 44.18, 38.09 26.14, 55.14 4.2 M6.59 60.05 C17.59 46.7, 28.46 33.96, 55.14 4.2 M11.31 66.81 C23.73 53.47, 35.93 37.11, 63.8 6.43 M11.31 66.81 C23.58 51.85, 35.61 37.22, 63.8 6.43 M15.38 74.32 C28.33 58.59, 43.69 39.18, 72.46 8.66 M15.38 74.32 C30.96 57.82, 45.63 40.23, 72.46 8.66 M19.45 81.84 C31.21 65.82, 45.93 52.05, 78.5 13.91 M19.45 81.84 C36.89 60.28, 55.52 38.33, 78.5 13.91 M26.8 85.58 C46.46 64.81, 61.96 47.73, 84.54 19.16 M26.8 85.58 C37.94 71.91, 51 58, 84.54 19.16 M34.15 89.31 C53.09 66.09, 73.58 44.65, 90.57 24.41 M34.15 89.31 C50.79 68.87, 67.51 50.85, 90.57 24.41 M41.5 93.05 C61.46 71.01, 79.35 49.64, 92.02 34.94 M41.5 93.05 C56.41 74.92, 71.58 59.09, 92.02 34.94 M52.79 92.26 C68.2 75.16, 81.02 57.86, 94.12 44.72 M52.79 92.26 C70.67 72.79, 86.04 54.48, 94.12 44.72 M66.04 89.21 C74.42 81.92, 80.31 69.85, 98.19 52.23 M66.04 89.21 C76.12 77.5, 85.06 67.43, 98.19 52.23" stroke="#1e1e1e" stroke-width="1" fill="none"></path><path d="M43.08 -0.04 C51.12 -1.06, 62.43 2.3, 70.03 6.19 C77.64 10.08, 84.78 16.41, 88.7 23.31 C92.62 30.21, 94.13 39.7, 93.55 47.58 C92.96 55.47, 90.15 64.03, 85.2 70.64 C80.25 77.25, 71.88 84.2, 63.85 87.25 C55.82 90.3, 45.29 90.69, 37.01 88.95 C28.74 87.21, 20.21 82.49, 14.2 76.84 C8.2 71.18, 2.79 63.04, 0.99 55 C-0.81 46.96, 0.33 36.28, 3.39 28.58 C6.45 20.88, 11.84 13.64, 19.34 8.81 C26.84 3.97, 42.69 0.84, 48.4 -0.44 C54.11 -1.73, 53.5 0.18, 53.6 1.1 M65.35 5.47 C73.03 8.27, 82.47 13.85, 87.03 20.22 C91.6 26.6, 92.66 35.44, 92.73 43.71 C92.79 51.98, 91.82 62.7, 87.43 69.86 C83.05 77.02, 74.27 83.51, 66.41 86.66 C58.55 89.8, 48.54 90.32, 40.29 88.73 C32.04 87.14, 23.53 82.28, 16.91 77.11 C10.29 71.95, 3.31 65.17, 0.57 57.74 C-2.18 50.31, -2.14 40.43, 0.44 32.53 C3.01 24.62, 9.59 15.82, 16.02 10.32 C22.45 4.82, 30.75 0.56, 39.03 -0.5 C47.31 -1.55, 61.25 3.15, 65.68 3.98 C70.12 4.82, 65.73 3.81, 65.64 4.5" stroke="#1e1e1e" stroke-width="2" fill="none"></path></g></g><g clip-path="url(#U0ylOVMEuLnoIMWDowXeS)"><g transform="translate(151.5516598742812 142.56833713643914) rotate(0 6.55999755859375 12.5)"><text x="6.55999755859375" y="0" font-family="Virgil, Segoe UI Emoji" font-size="20px" fill="#1e1e1e" text-anchor="middle" style="white-space: pre;" direction="ltr" dominant-baseline="text-before-edge">A</text></g></g><g clip-path="url(#U0ylOVMEuLnoIMWDowXeS)"><g stroke-linecap="round" transform="translate(130.28901190071224 318.3979902743491) rotate(0 75.08650862978118 26.308925476186147)"><path d="M13.15 0 C48.32 -0.2, 81.49 -2.07, 137.02 0 M13.15 0 C59.76 -0.26, 108.35 -0.82, 137.02 0 M137.02 0 C145.76 1.97, 148.41 3.37, 150.17 13.15 M137.02 0 C147.93 1.06, 148.88 2.52, 150.17 13.15 M150.17 13.15 C151.06 23.65, 151.06 32.33, 150.17 39.46 M150.17 13.15 C149.45 19.65, 151.03 27.31, 150.17 39.46 M150.17 39.46 C149.64 49.5, 144.01 53.37, 137.02 52.62 M150.17 39.46 C148.39 49.29, 145.27 53.51, 137.02 52.62 M137.02 52.62 C90.13 51.17, 43.98 51.68, 13.15 52.62 M137.02 52.62 C104.05 53.31, 70.9 52.02, 13.15 52.62 M13.15 52.62 C6.32 51.04, 1.7 49.05, 0 39.46 M13.15 52.62 C3.82 53.14, -0.44 47.35, 0 39.46 M0 39.46 C-0.95 33.78, 0.9 26.57, 0 13.15 M0 39.46 C-0.27 31.64, 1.06 22.99, 0 13.15 M0 13.15 C1.5 3.02, 2.66 -1.36, 13.15 0 M0 13.15 C-1.59 5.25, 5.69 0.31, 13.15 0" stroke="#1e1e1e" stroke-width="1" fill="none"></path></g></g><g clip-path="url(#U0ylOVMEuLnoIMWDowXeS)"><g transform="translate(138.91156179025904 324.70691575053525) rotate(0 66.46395874023438 20)"><text x="66.46395874023438" y="0" font-family="Virgil, Segoe UI Emoji" font-size="16px" fill="#1e1e1e" text-anchor="middle" style="white-space: pre;" direction="ltr" dominant-baseline="text-before-edge">non-matching left</text><text x="66.46395874023438" y="20" font-family="Virgil, Segoe UI Emoji" font-size="16px" fill="#1e1e1e" text-anchor="middle" style="white-space: pre;" direction="ltr" dominant-baseline="text-before-edge">table rows</text></g></g></svg>