<svg version="1.1" xmlns="http://www.w3.org/2000/svg" viewBox="0 0 383.33048315245594 388.7528732703221" width="383.33048315245594" height="388.7528732703221">
    <!-- svg-source:excalidraw -->

    <defs>
        <style class="style-fonts">
            @font-face {
            font-family: "Virgil";
            src: url("https://excalidraw.com/Virgil.woff2");
            }
            @font-face {
            font-family: "Cascadia";
            src: url("https://excalidraw.com/Cascadia.woff2");
            }
            @font-face {
            font-family: "Assistant";
            src: url("https://excalidraw.com/Assistant-Regular.woff2");
            }
        </style>
        <clipPath id="T2dl1-BSlyBUJvTqcxjVq">
            <rect transform="translate(0 0) rotate(0 191.66524157622797 194.37643663516104)" width="383.3304831524558" height="388.7528732703221">
            </rect>
        </clipPath>
    </defs>
    <rect x="0" y="0" width="383.33048315245594" height="388.7528732703221" fill="#ffffff"></rect><g clip-path="url(#T2dl1-BSlyBUJvTqcxjVq)"><g transform="translate(13.209684372070342 16.90409569777364) rotate(0 48.309959411621094 12.5)"><text x="0" y="0" font-family="Virgil, Segoe UI Emoji" font-size="20px" fill="#1e1e1e" text-anchor="start" style="white-space: pre;" direction="ltr" dominant-baseline="text-before-edge">Right Join</text></g></g><g clip-path="url(#T2dl1-BSlyBUJvTqcxjVq)"><g transform="translate(197.22881350251214 141.83035573418658) rotate(0 0.00004999999998744897 0.00004999999998744897)" stroke="none"><path fill="transparent" d="M 1.57,-1.57 Q 1.57,-1.57 1.77,-1.27 1.98,-0.98 2.09,-0.64 2.20,-0.29 2.19,0.05 2.18,0.41 2.05,0.75 1.93,1.09 1.70,1.37 1.48,1.65 1.18,1.84 0.87,2.04 0.52,2.12 0.18,2.21 -0.17,2.18 -0.53,2.15 -0.86,2.01 -1.19,1.87 -1.46,1.63 -1.73,1.39 -1.90,1.07 -2.08,0.76 -2.15,0.41 -2.21,0.05 -2.17,-0.29 -2.12,-0.65 -1.96,-0.97 -1.80,-1.29 -1.54,-1.54 -1.29,-1.80 -0.97,-1.96 -0.65,-2.12 -0.29,-2.17 0.06,-2.21 0.41,-2.15 0.76,-2.08 1.07,-1.90 1.39,-1.73 1.63,-1.46 1.87,-1.19 2.01,-0.86 2.15,-0.53 2.18,-0.17 2.21,0.18 2.12,0.52 2.03,0.87 1.84,1.18 1.65,1.48 1.37,1.70 1.09,1.93 0.75,2.05 0.41,2.18 0.05,2.19 -0.30,2.20 -0.64,2.09 -0.98,1.98 -1.27,1.77 -1.57,1.56 -1.57,1.57 -1.57,1.57 -1.73,1.35 -1.90,1.14 -2.01,0.90 -2.12,0.66 -2.16,0.39 -2.21,0.13 -2.20,-0.13 -2.18,-0.40 -2.10,-0.65 -2.02,-0.91 -1.88,-1.14 -1.74,-1.36 -1.55,-1.55 -1.36,-1.74 -1.14,-1.88 -0.91,-2.02 -0.65,-2.10 -0.40,-2.18 -0.13,-2.20 0.13,-2.21 0.39,-2.16 0.66,-2.12 0.90,-2.01 1.14,-1.90 1.35,-1.73 1.57,-1.57 1.57,-1.57 L 1.57,-1.57 Z"></path></g></g><g clip-path="url(#T2dl1-BSlyBUJvTqcxjVq)"><g transform="translate(197.22881350251214 141.83035573418658) rotate(0 0.00004999999998744897 0.00004999999998744897)" stroke="none"><path fill="transparent" d="M 1.57,-1.57 Q 1.57,-1.57 1.77,-1.27 1.98,-0.98 2.09,-0.64 2.20,-0.29 2.19,0.05 2.18,0.41 2.05,0.75 1.93,1.09 1.70,1.37 1.48,1.65 1.18,1.84 0.87,2.04 0.52,2.12 0.18,2.21 -0.17,2.18 -0.53,2.15 -0.86,2.01 -1.19,1.87 -1.46,1.63 -1.73,1.39 -1.90,1.07 -2.08,0.76 -2.15,0.41 -2.21,0.05 -2.17,-0.29 -2.12,-0.65 -1.96,-0.97 -1.80,-1.29 -1.54,-1.54 -1.29,-1.80 -0.97,-1.96 -0.65,-2.12 -0.29,-2.17 0.06,-2.21 0.41,-2.15 0.76,-2.08 1.07,-1.90 1.39,-1.73 1.63,-1.46 1.87,-1.19 2.01,-0.86 2.15,-0.53 2.18,-0.17 2.21,0.18 2.12,0.52 2.03,0.87 1.84,1.18 1.65,1.48 1.37,1.70 1.09,1.93 0.75,2.05 0.41,2.18 0.05,2.19 -0.30,2.20 -0.64,2.09 -0.98,1.98 -1.27,1.77 -1.57,1.56 -1.57,1.57 -1.57,1.57 -1.73,1.35 -1.90,1.14 -2.01,0.90 -2.12,0.66 -2.16,0.39 -2.21,0.13 -2.20,-0.13 -2.18,-0.40 -2.10,-0.65 -2.02,-0.91 -1.88,-1.14 -1.74,-1.36 -1.55,-1.55 -1.36,-1.74 -1.14,-1.88 -0.91,-2.02 -0.65,-2.10 -0.40,-2.18 -0.13,-2.20 0.13,-2.21 0.39,-2.16 0.66,-2.12 0.90,-2.01 1.14,-1.90 1.35,-1.73 1.57,-1.57 1.57,-1.57 L 1.57,-1.57 Z"></path></g></g><g clip-path="url(#T2dl1-BSlyBUJvTqcxjVq)"><g transform="translate(197.22881350251214 141.83035573418658) rotate(0 0.00004999999998744897 0.00004999999998744897)" stroke="none"><path fill="transparent" d="M 1.57,-1.57 Q 1.57,-1.57 1.77,-1.27 1.98,-0.98 2.09,-0.64 2.20,-0.29 2.19,0.05 2.18,0.41 2.05,0.75 1.93,1.09 1.70,1.37 1.48,1.65 1.18,1.84 0.87,2.04 0.52,2.12 0.18,2.21 -0.17,2.18 -0.53,2.15 -0.86,2.01 -1.19,1.87 -1.46,1.63 -1.73,1.39 -1.90,1.07 -2.08,0.76 -2.15,0.41 -2.21,0.05 -2.17,-0.29 -2.12,-0.65 -1.96,-0.97 -1.80,-1.29 -1.54,-1.54 -1.29,-1.80 -0.97,-1.96 -0.65,-2.12 -0.29,-2.17 0.06,-2.21 0.41,-2.15 0.76,-2.08 1.07,-1.90 1.39,-1.73 1.63,-1.46 1.87,-1.19 2.01,-0.86 2.15,-0.53 2.18,-0.17 2.21,0.18 2.12,0.52 2.03,0.87 1.84,1.18 1.65,1.48 1.37,1.70 1.09,1.93 0.75,2.05 0.41,2.18 0.05,2.19 -0.30,2.20 -0.64,2.09 -0.98,1.98 -1.27,1.77 -1.57,1.56 -1.57,1.57 -1.57,1.57 -1.73,1.35 -1.90,1.14 -2.01,0.90 -2.12,0.66 -2.16,0.39 -2.21,0.13 -2.20,-0.13 -2.18,-0.40 -2.10,-0.65 -2.02,-0.91 -1.88,-1.14 -1.74,-1.36 -1.55,-1.55 -1.36,-1.74 -1.14,-1.88 -0.91,-2.02 -0.65,-2.10 -0.40,-2.18 -0.13,-2.20 0.13,-2.21 0.39,-2.16 0.66,-2.12 0.90,-2.01 1.14,-1.90 1.35,-1.73 1.57,-1.57 1.57,-1.57 L 1.57,-1.57 Z"></path></g></g><g clip-path="url(#T2dl1-BSlyBUJvTqcxjVq)"><g stroke-linecap="round" transform="translate(151.47491400144156 14.73288487116281) rotate(0 40.248346318697884 27.5)"><path d="M13.75 0 C30.45 1, 48.05 0.03, 66.75 0 M13.75 0 C27.45 -0.17, 41.44 0.36, 66.75 0 M66.75 0 C74.38 1.59, 79.64 5.98, 80.5 13.75 M66.75 0 C74.07 2.28, 78.72 5.77, 80.5 13.75 M80.5 13.75 C80.75 19.3, 82.36 26.05, 80.5 41.25 M80.5 13.75 C80.76 20.2, 79.65 24.93, 80.5 41.25 M80.5 41.25 C82.21 50.74, 76.8 56.28, 66.75 55 M80.5 41.25 C82.21 52.49, 77.77 54.37, 66.75 55 M66.75 55 C47.82 55.33, 26.77 54.49, 13.75 55 M66.75 55 C45.64 54.75, 23.89 56.04, 13.75 55 M13.75 55 C3.51 56.81, -1.3 48.45, 0 41.25 M13.75 55 C5.38 54.9, 0.43 49.71, 0 41.25 M0 41.25 C0.63 32.99, -0.2 24.03, 0 13.75 M0 41.25 C0.22 31.94, -0.98 23.69, 0 13.75 M0 13.75 C0.07 3.76, 3.1 -1.46, 13.75 0 M0 13.75 C-1.79 5.09, 2.48 1.97, 13.75 0" stroke="#1e1e1e" stroke-width="1" fill="none"></path></g></g><g clip-path="url(#T2dl1-BSlyBUJvTqcxjVq)"><g transform="translate(165.12805310578403 20.17183706917956) rotate(0 26.59520721435547 22.061047801983307)"><text x="26.59520721435547" y="0" font-family="Virgil, Segoe UI Emoji" font-size="11.765892161057764px" fill="#1e1e1e" text-anchor="middle" style="white-space: pre;" direction="ltr" dominant-baseline="text-before-edge">rows with</text><text x="26.59520721435547" y="14.707365201322204" font-family="Virgil, Segoe UI Emoji" font-size="11.765892161057764px" fill="#1e1e1e" text-anchor="middle" style="white-space: pre;" direction="ltr" dominant-baseline="text-before-edge">matching</text><text x="26.59520721435547" y="29.41473040264441" font-family="Virgil, Segoe UI Emoji" font-size="11.765892161057764px" fill="#1e1e1e" text-anchor="middle" style="white-space: pre;" direction="ltr" dominant-baseline="text-before-edge">join keys</text></g></g><g clip-path="url(#T2dl1-BSlyBUJvTqcxjVq)"><g stroke-linecap="round"><g transform="translate(192.86487461383865 72.13299629747223) rotate(0 0.036798647464365786 31.453337997062704)"><path d="M0.08 -0.36 C0.16 10.2, 1.25 51.73, 1.13 62.18 M-1.33 -1.6 C-1.38 9.2, 0.2 52.51, 0.74 63.34" stroke="#1e1e1e" stroke-width="1" fill="none"></path></g><g transform="translate(192.86487461383865 72.13299629747223) rotate(0 0.036798647464365786 31.453337997062704)"><path d="M-10.68 35.59 C-7.5 47.21, -4.05 54.12, 0.74 63.34 M-10.68 35.59 C-8.82 43.35, -5.62 50.21, 0.74 63.34" stroke="#1e1e1e" stroke-width="1" fill="none"></path></g><g transform="translate(192.86487461383865 72.13299629747223) rotate(0 0.036798647464365786 31.453337997062704)"><path d="M9.83 34.75 C5.71 46.68, 1.87 53.89, 0.74 63.34 M9.83 34.75 C6.52 42.72, 4.58 49.8, 0.74 63.34" stroke="#1e1e1e" stroke-width="1" fill="none"></path></g></g><mask></mask></g><g clip-path="url(#T2dl1-BSlyBUJvTqcxjVq)"><g stroke-linecap="round" transform="translate(111.88661416265415 224.05702229613428) rotate(0 90.04373507219128 27.9620279431241)"><path d="M13.98 0 C59.48 -2.53, 106.43 -3.12, 166.11 0 M13.98 0 C59.72 -0.51, 105.52 -0.21, 166.11 0 M166.11 0 C173.88 1.03, 179.22 6.52, 180.09 13.98 M166.11 0 C174.65 -0.01, 178.35 6.51, 180.09 13.98 M180.09 13.98 C180.19 20.48, 181.56 24.1, 180.09 41.94 M180.09 13.98 C180.77 23.07, 181.07 31.79, 180.09 41.94 M180.09 41.94 C181.7 50.72, 176.84 56.89, 166.11 55.92 M180.09 41.94 C180.84 52.1, 175.61 55.15, 166.11 55.92 M166.11 55.92 C126.79 57.31, 84.06 56.17, 13.98 55.92 M166.11 55.92 C108.67 56.32, 52.88 57.26, 13.98 55.92 M13.98 55.92 C5.03 55.31, -0.24 52.34, 0 41.94 M13.98 55.92 C5.76 56.82, -0.4 51.21, 0 41.94 M0 41.94 C1.9 36.25, -1.51 27.41, 0 13.98 M0 41.94 C-0.75 33.99, -0.79 27.72, 0 13.98 M0 13.98 C-1.83 6.37, 3.73 -0.64, 13.98 0 M0 13.98 C-1.01 5.88, 2.78 -0.36, 13.98 0" stroke="#1e1e1e" stroke-width="1" fill="none"></path></g></g><g clip-path="url(#T2dl1-BSlyBUJvTqcxjVq)"><g transform="translate(119.30640209129069 232.01905023925838) rotate(0 82.62394714355469 20)"><text x="82.62394714355469" y="0" font-family="Virgil, Segoe UI Emoji" font-size="16px" fill="#1e1e1e" text-anchor="middle" style="white-space: pre;" direction="ltr" dominant-baseline="text-before-edge">cartesian product of</text><text x="82.62394714355469" y="20" font-family="Virgil, Segoe UI Emoji" font-size="16px" fill="#1e1e1e" text-anchor="middle" style="white-space: pre;" direction="ltr" dominant-baseline="text-before-edge">matching rows</text></g></g><g clip-path="url(#T2dl1-BSlyBUJvTqcxjVq)"><g stroke-linecap="round"><g transform="translate(195.04002548185372 192.36487045636898) rotate(0 0.063328128082901 15.146587447155582)"><path d="M-0.49 0.02 C-0.49 5.19, -0.36 25.62, -0.29 30.73 M0.26 -0.45 C0.46 4.6, 0.86 24.95, 0.72 29.99" stroke="#1e1e1e" stroke-width="1" fill="none"></path></g><g transform="translate(195.04002548185372 192.36487045636898) rotate(0 0.063328128082901 15.146587447155582)"><path d="M-4.46 15.75 C-3.22 18.62, -1.4 22.3, 0.72 29.99 M-4.46 15.75 C-2.89 21.19, -0.85 26.6, 0.72 29.99" stroke="#1e1e1e" stroke-width="1" fill="none"></path></g><g transform="translate(195.04002548185372 192.36487045636898) rotate(0 0.063328128082901 15.146587447155582)"><path d="M5.9 15.75 C4.65 18.58, 3.97 22.26, 0.72 29.99 M5.9 15.75 C3.64 21.24, 1.85 26.66, 0.72 29.99" stroke="#1e1e1e" stroke-width="1" fill="none"></path></g></g><mask></mask></g><g clip-path="url(#T2dl1-BSlyBUJvTqcxjVq)"><g transform="translate(193.5312647471078 283.3548689677778) rotate(0 8.75 17.5)"><text x="0" y="0" font-family="Virgil, Segoe UI Emoji" font-size="28px" fill="#1e1e1e" text-anchor="start" style="white-space: pre;" direction="ltr" dominant-baseline="text-before-edge">+</text></g></g><g clip-path="url(#T2dl1-BSlyBUJvTqcxjVq)"><g stroke-linecap="round" transform="translate(187.32342093687635 114.34452219640332) rotate(0 47.09375 44.78515625)"><path d="M9.35 20.06 C9.35 20.06, 9.35 20.06, 9.35 20.06 M9.35 20.06 C9.35 20.06, 9.35 20.06, 9.35 20.06 M1.61 41.15 C9.18 29.76, 21.3 20.46, 35.07 2.66 M1.61 41.15 C8.81 32.51, 16.43 23.33, 35.07 2.66 M3.06 51.68 C13.98 38.84, 25.54 29.51, 47.01 1.12 M3.06 51.68 C13.78 40.21, 24.25 27.57, 47.01 1.12 M5.16 61.46 C25.36 40.87, 43.49 18.21, 57.64 1.08 M5.16 61.46 C20.97 42.56, 36.96 24.77, 57.64 1.08 M8.57 69.73 C24 51.73, 39.56 36.63, 64.99 4.82 M8.57 69.73 C27.54 49, 45.7 27.82, 64.99 4.82 M14.61 74.98 C32.75 53.19, 52.48 30.13, 72.34 8.56 M14.61 74.98 C31.04 56.99, 46.47 38.64, 72.34 8.56 M20.65 80.23 C34.2 62.53, 51.56 46.6, 79.69 12.3 M20.65 80.23 C36.74 61.4, 53.46 42.45, 79.69 12.3 M26.69 85.47 C41.2 67.92, 60.23 48.41, 84.42 19.06 M26.69 85.47 C38.18 70.33, 51.9 55.65, 84.42 19.06 M36 86.95 C49.48 71.41, 61.62 54.05, 89.14 25.82 M36 86.95 C54.84 65.41, 73.17 44.26, 89.14 25.82 M45.32 88.42 C66.16 64.29, 81.36 45.51, 93.87 32.57 M45.32 88.42 C60.88 71.33, 77.29 52.69, 93.87 32.57 M55.95 88.39 C64.29 77.65, 75.38 69.21, 92.69 46.13 M55.95 88.39 C64.15 77.38, 74.29 67.81, 92.69 46.13 M71.83 82.32 C77.29 76.69, 80.53 74.64, 87.58 64.2 M71.83 82.32 C74.66 78.91, 79.38 73.67, 87.58 64.2" stroke="#1e1e1e" stroke-width="1" fill="none"></path><path d="M29.2 3.13 C36.35 -0.37, 47.7 -1, 55.97 0.31 C64.25 1.62, 72.63 5.63, 78.87 10.98 C85.12 16.33, 91.41 24.53, 93.42 32.41 C95.43 40.3, 93.65 50.41, 90.94 58.3 C88.23 66.19, 83.41 74.71, 77.15 79.74 C70.9 84.77, 61.87 87.47, 53.41 88.49 C44.96 89.51, 34.15 89.21, 26.41 85.87 C18.67 82.52, 11.26 75.34, 6.97 68.42 C2.67 61.5, 0.3 52.34, 0.65 44.33 C1.01 36.32, 3.39 27.4, 9.07 20.38 C14.76 13.35, 29.24 5.34, 34.77 2.2 C40.29 -0.94, 41.92 0.9, 42.23 1.52 M40.4 1.5 C48.34 -0.79, 58.16 -0.46, 65.64 2.74 C73.12 5.94, 80.66 13.66, 85.28 20.69 C89.9 27.73, 93.18 37.33, 93.36 44.97 C93.55 52.61, 90.56 59.87, 86.39 66.53 C82.21 73.2, 75.71 81.24, 68.29 84.96 C60.88 88.67, 50.44 89.6, 41.89 88.8 C33.35 88.01, 23.5 85.14, 17.02 80.19 C10.53 75.24, 5.61 66.93, 2.99 59.1 C0.37 51.28, -0.57 41.13, 1.32 33.26 C3.2 25.39, 7.84 17.09, 14.29 11.89 C20.75 6.7, 35.79 4, 40.06 2.09 C44.32 0.17, 40.12 0.03, 39.9 0.42" stroke="#1e1e1e" stroke-width="2" fill="none"></path></g></g><g clip-path="url(#T2dl1-BSlyBUJvTqcxjVq)"><g transform="translate(227.34686431730597 146.46179076552926) rotate(0 7.269996643066406 12.5)"><text x="7.269996643066406" y="0" font-family="Virgil, Segoe UI Emoji" font-size="20px" fill="#1e1e1e" text-anchor="middle" style="white-space: pre;" direction="ltr" dominant-baseline="text-before-edge">B</text></g></g><g clip-path="url(#T2dl1-BSlyBUJvTqcxjVq)"><g stroke-linecap="round" transform="translate(110.8182174093788 110.52255407939708) rotate(0 47.09375 44.78515625)"><path d="M37.01 0.28 C44.73 -2.07, 56.5 -1.01, 64.29 1.89 C72.09 4.78, 78.79 10.98, 83.78 17.64 C88.78 24.3, 93.32 33.89, 94.25 41.86 C95.17 49.82, 93.42 58.24, 89.33 65.42 C85.25 72.59, 77.31 80.84, 69.75 84.92 C62.18 89, 52.33 90.49, 43.96 89.9 C35.6 89.32, 26.24 86.19, 19.56 81.42 C12.89 76.65, 7.02 68.87, 3.89 61.3 C0.77 53.74, -0.93 44.01, 0.79 36.04 C2.51 28.07, 7.29 19.44, 14.23 13.49 C21.16 7.54, 36.98 2.49, 42.41 0.34 C47.84 -1.82, 46.6 -0.31, 46.79 0.56 M59.72 2.94 C67.48 4.88, 76.44 11.21, 81.95 16.89 C87.45 22.58, 91.33 29.29, 92.74 37.04 C94.16 44.79, 93.74 55.91, 90.41 63.42 C87.08 70.92, 80.01 77.56, 72.75 82.05 C65.48 86.55, 55.22 90.22, 46.81 90.38 C38.39 90.53, 29.4 87.51, 22.26 82.99 C15.12 78.47, 7.75 70.68, 3.95 63.26 C0.15 55.84, -1.96 46.22, -0.54 38.49 C0.87 30.75, 6.61 23.13, 12.46 16.83 C18.3 10.53, 26.7 3.28, 34.5 0.68 C42.3 -1.92, 54.95 0.98, 59.24 1.22 C63.53 1.45, 60.45 1.44, 60.25 2.08" stroke="#1e1e1e" stroke-width="2" fill="none"></path></g></g><g clip-path="url(#T2dl1-BSlyBUJvTqcxjVq)"><g transform="translate(151.55165987428109 142.63982264852302) rotate(0 6.55999755859375 12.5)"><text x="6.55999755859375" y="0" font-family="Virgil, Segoe UI Emoji" font-size="20px" fill="#1e1e1e" text-anchor="middle" style="white-space: pre;" direction="ltr" dominant-baseline="text-before-edge">A</text></g></g><g clip-path="url(#T2dl1-BSlyBUJvTqcxjVq)"><g stroke-linecap="round" transform="translate(130.28901190071178 318.3979902743491) rotate(0 75.08650862978118 26.308925476186147)"><path d="M13.15 0 C44.96 -1.09, 78.4 -1.41, 137.02 0 M13.15 0 C38.62 0.64, 62.65 -0.21, 137.02 0 M137.02 0 C147.5 0.32, 151.06 5.66, 150.17 13.15 M137.02 0 C147.5 2.07, 152.02 3.76, 150.17 13.15 M150.17 13.15 C151.03 23.07, 149.62 31.99, 150.17 39.46 M150.17 13.15 C150.46 23.11, 149.89 34.92, 150.17 39.46 M150.17 39.46 C149.09 50.05, 144.48 50.65, 137.02 52.62 M150.17 39.46 C150.97 48.13, 146.22 51.91, 137.02 52.62 M137.02 52.62 C102.13 52.87, 65.63 51.83, 13.15 52.62 M137.02 52.62 C98.79 53.08, 58.98 53.4, 13.15 52.62 M13.15 52.62 C4.45 51.79, -1.48 46.78, 0 39.46 M13.15 52.62 C2.6 53.13, -2.1 50.2, 0 39.46 M0 39.46 C1.15 31.15, -0.23 26.53, 0 13.15 M0 39.46 C-1.09 31.73, 0.16 25.05, 0 13.15 M0 13.15 C-1.56 5.8, 3.52 0.08, 13.15 0 M0 13.15 C-0.56 4.91, 2.37 -1.43, 13.15 0" stroke="#1e1e1e" stroke-width="1" fill="none"></path></g></g><g clip-path="url(#T2dl1-BSlyBUJvTqcxjVq)"><g transform="translate(136.12756520822734 324.70691575053525) rotate(0 69.24795532226562 20)"><text x="69.24795532226562" y="0" font-family="Virgil, Segoe UI Emoji" font-size="16px" fill="#1e1e1e" text-anchor="middle" style="white-space: pre;" direction="ltr" dominant-baseline="text-before-edge">non-matching right</text><text x="69.24795532226562" y="20" font-family="Virgil, Segoe UI Emoji" font-size="16px" fill="#1e1e1e" text-anchor="middle" style="white-space: pre;" direction="ltr" dominant-baseline="text-before-edge">table rows</text></g></g></svg>