<svg width="18" height="18" viewBox="0 0 18 18" fill="none" xmlns="http://www.w3.org/2000/svg">
<path d="M0.290275 17.9282L8.90834 9.09402C8.96233 9.03868 8.97267 8.95312 8.92765 8.89027C8.40341 8.15849 7.43658 8.03165 7.07818 7.54002C6.01652 6.0837 5.74715 5.25941 5.29095 5.31053C5.25909 5.31411 5.23068 5.33126 5.20829 5.35421L2.09499 8.54557C0.303964 10.3815 0.0471213 14.4237 1.81444e-05 17.8085C-0.0021099 17.9614 0.183457 18.0376 0.290275 17.9282Z" fill="#017CEE"/>
<path d="M17.9285 17.7097L9.09433 9.09156C9.03899 9.03758 8.95342 9.02722 8.89058 9.07224C8.1588 9.5965 8.03197 10.5633 7.54033 10.9217C6.084 11.9833 5.25971 12.2527 5.31084 12.709C5.31441 12.7408 5.33156 12.7692 5.35452 12.7916L8.54588 15.9049C10.3818 17.6959 14.424 17.9528 17.8088 17.9998C17.9617 18.002 18.0379 17.8165 17.9285 17.7097Z" fill="#00AD46"/>
<path fillRule="evenodd" clipRule="evenodd" d="M8.54549 15.905C7.54261 14.9267 7.07734 12.9912 8.99995 9C5.87531 10.3964 4.78033 12.232 5.31898 12.7575L8.54549 15.905Z" fill="#04D659"/>
<path d="M17.7096 0.0720375L9.09156 8.90619C9.03757 8.96153 9.02722 9.04708 9.07225 9.10993C9.59649 9.84171 10.5634 9.96855 10.9217 10.4602C11.9834 11.9165 12.2528 12.7408 12.7089 12.6897C12.7408 12.6861 12.7692 12.669 12.7916 12.646L15.9049 9.45463C17.696 7.61869 17.9528 3.5765 17.9999 0.191717C18.002 0.0387614 17.8164 -0.0374593 17.7096 0.0720375Z" fill="#00C7D4"/>
<path fillRule="evenodd" clipRule="evenodd" d="M15.9051 9.45446C14.9267 10.4573 12.9912 10.9226 9 9C10.3964 12.1246 12.232 13.2197 12.7575 12.6809L15.9051 9.45446Z" fill="#11E1EE"/>
<path d="M0.0716713 0.290274L8.90582 8.90833C8.96116 8.96232 9.04671 8.97268 9.10957 8.92765C9.84134 8.40341 9.96818 7.43658 10.4598 7.07818C11.9162 6.01653 12.7404 5.74716 12.6893 5.29096C12.6857 5.25909 12.6685 5.23068 12.6457 5.20829L9.45427 2.09499C7.61833 0.303964 3.57613 0.0471213 0.19135 1.81622e-05C0.0383952 -0.00211093 -0.0378255 0.183456 0.0716713 0.290274Z" fill="#E43921"/>
<path fillRule="evenodd" clipRule="evenodd" d="M9.45446 2.09503C10.4573 3.07338 10.9226 5.0088 9 9.00006C12.1246 7.60369 13.2197 5.76809 12.6809 5.24261L9.45446 2.09503Z" fill="#FF7557"/>
<path fillRule="evenodd" clipRule="evenodd" d="M2.09521 8.54561C3.07356 7.54274 5.00898 7.07746 9.00024 9.00007C7.60386 5.87543 5.76827 4.78045 5.24279 5.31911L2.09521 8.54561Z" fill="#0CB6FF"/>
<path d="M9.0062 9.38399C9.21901 9.38136 9.3894 9.2067 9.38676 8.99389C9.38413 8.78108 9.20947 8.6107 8.99666 8.61333C8.78385 8.61597 8.61346 8.79062 8.6161 9.00343C8.61873 9.21625 8.79339 9.38663 9.0062 9.38399Z" fill="#4A4848"/>
</svg>
