<svg width="18" height="18" viewBox="0 0 18 18" fill="none" xmlns="http://www.w3.org/2000/svg">
<path d="M17.2351 0.748644C17.6582 1.15552 17.9349 1.69259 18 2.27848C18 2.5226 17.9349 2.68536 17.7884 2.99458C17.642 3.3038 15.8354 6.42858 15.2984 7.29114C14.9892 7.79566 14.8264 8.39784 14.8264 8.98372C14.8264 9.5859 14.9892 10.1718 15.2984 10.6763C15.8354 11.5389 17.642 14.6799 17.7884 14.9892C17.9349 15.2984 18 15.4448 18 15.689C17.9349 16.2749 17.6745 16.8119 17.2514 17.2025C16.8445 17.6257 16.3074 17.9024 15.7378 17.9512C15.4937 17.9512 15.3309 17.8861 15.038 17.7396C14.745 17.5931 11.5552 15.8354 10.6926 15.2984C10.6275 15.2658 10.5624 15.217 10.481 15.1844L6.217 12.6618C6.31464 13.4756 6.6727 14.2568 7.25858 14.8264C7.37252 14.9403 7.48644 15.038 7.61664 15.1356C7.51898 15.1844 7.40506 15.2333 7.30742 15.2984C6.44484 15.8354 3.3038 17.642 2.99458 17.7884C2.68536 17.9349 2.53888 18 2.27848 18C1.69259 17.9349 1.15552 17.6745 0.764918 17.2514C0.341772 16.8445 0.0650994 16.3074 0 15.7215C0.0162749 15.4774 0.0813744 15.2333 0.211574 15.0217C0.358048 14.7125 2.16456 11.5714 2.70162 10.7089C3.01086 10.2043 3.1736 9.61844 3.1736 9.01628C3.1736 8.4141 3.01086 7.8282 2.70162 7.32368C2.16456 6.42858 0.341772 3.28752 0.211574 2.9783C0.0813744 2.76672 0.0162749 2.5226 0 2.27848C0.0650994 1.69259 0.325498 1.15552 0.748644 0.748644C1.15552 0.325498 1.69259 0.0650994 2.27848 0C2.5226 0.0162749 2.76672 0.0813744 2.99458 0.211574C3.25498 0.325498 5.54972 1.66004 6.77034 2.37614L7.04702 2.53888C7.14466 2.60398 7.22604 2.6528 7.29114 2.68536L7.42134 2.76672L11.7667 5.33816C11.6691 4.36166 11.1646 3.46654 10.3834 2.86438C10.481 2.81556 10.5949 2.76672 10.6926 2.70162C11.5552 2.16456 14.6962 0.341772 15.0054 0.211574C15.217 0.0813744 15.4611 0.0162749 15.7215 0C16.2911 0.0650994 16.8282 0.325498 17.2351 0.748644ZM9.22784 10.1555L10.1555 9.22784C10.2857 9.09764 10.2857 8.90236 10.1555 8.77216L9.22784 7.84448C9.09764 7.71428 8.90236 7.71428 8.77216 7.84448L7.84448 8.77216C7.71428 8.90236 7.71428 9.09764 7.84448 9.22784L8.77216 10.1555C8.88608 10.2694 9.09764 10.2694 9.22784 10.1555Z" fill="#FF694A"/>
</svg>
