<svg width="14" height="18" viewBox="0 0 14 18" fill="none" xmlns="http://www.w3.org/2000/svg">
<g clipPath="url(#clip0_813_1571)">
<path d="M6.49341 13.5693C10.914 10.9088 12.9911 9.8849 12.7247 10.4977C12.4583 11.1105 10.3812 13.4399 6.49341 17.4857V13.5693Z" fill="#FF7964"/>
<path d="M13.5856 7.2C13.5856 10.8959 10.6399 13.8857 7.00008 13.8857C3.36028 13.8857 0.414551 10.8887 0.414551 7.2C0.414673 3.51131 3.3604 0.514282 7.00008 0.514282C10.6398 0.514282 13.5856 3.51131 13.5856 7.2Z" fill="#FF7964"/>
<path d="M2.8669 8.08781H3.83953C4.07448 8.08849 4.26477 8.26476 4.26551 8.4824V9.3768C4.26477 9.59445 4.07448 9.77071 3.83953 9.7714H2.8669C2.63194 9.77071 2.44166 9.59445 2.44092 9.3768V8.4824C2.44159 8.26473 2.63191 8.08843 2.8669 8.08781ZM5.11747 6.11483H6.08301C6.31797 6.11552 6.50826 6.29178 6.509 6.50943V9.3768C6.50826 9.59445 6.31797 9.77071 6.08301 9.7714H5.11747C4.88251 9.77071 4.69223 9.59445 4.69149 9.3768V6.50943C4.69216 6.29176 4.88249 6.11545 5.11747 6.11483ZM7.36096 7.19997H8.33358C8.56854 7.20065 8.75883 7.37692 8.75957 7.59456V9.3768C8.75883 9.59445 8.56854 9.77071 8.33358 9.7714H7.36096C7.126 9.77071 6.93571 9.59445 6.93498 9.3768V7.59456C6.93565 7.37689 7.12597 7.20059 7.36096 7.19997ZM9.66124 4.62854H10.6268C10.8617 4.62922 11.052 4.80549 11.0528 5.02314V9.3768C11.052 9.59445 10.8617 9.77071 10.6268 9.7714H9.66124C9.42628 9.77071 9.23599 9.59445 9.23525 9.3768V5.02314C9.23592 4.80546 9.42625 4.62916 9.66124 4.62854Z" fill="white"/>
</g>
<defs>
<clipPath id="clip0_813_1571">
<rect width="14" height="18" fill="white"/>
</clipPath>
</defs>
</svg>
