<svg width="19" height="18" viewBox="0 0 19 18" fill="none" xmlns="http://www.w3.org/2000/svg">
<path d="M8.89448 0.832074V1.66754H7.40015V2.21094H8.89448V3.87509H9.47863V2.21094H11.0103V1.66754H9.47863V0H8.89448V0.832074Z" fill="#7099A6"/>
<path d="M4.01091 2.9514V4.16385H1.74902V4.92461H4.01091V7.38687H4.84977V4.92461H7.14562V4.16385H4.84977V1.73895H4.01091V2.9514Z" fill="#EB912C"/>
<path d="M13.4894 2.9514V4.16385H11.2275V4.96197H13.4894V7.38687H14.3622V4.96197H16.6241V4.16385H14.3622V1.73895H13.4894V2.9514Z" fill="#59879B"/>
<path d="M8.67724 7.08108V8.43957H6.16064V9.45164H8.67724V12.1686H9.69611V9.45164H12.2127V8.43957H9.69611V5.7226H8.67724V7.08108Z" fill="#E8762C"/>
<path d="M16.0778 7.76727V8.61972H14.5461V9.30915H16.0778V11.0107H16.842V9.30915H18.3737V8.61972H16.842V6.91821H16.0778V7.76727Z" fill="#5B6591"/>
<path d="M1.49434 7.84183V8.65692H0V9.23428H1.49434V10.8645H2.07849V9.23428L3.61018 9.17994V8.65692H2.07849V7.02673H1.49434V7.84183Z" fill="#7099A6"/>
<path d="M4.01091 11.6794V12.8919H1.74902V13.69H4.01091V16.1149H4.88373V13.69H7.14562V12.8919H4.88373V10.467H4.01091V11.6794Z" fill="#C72035"/>
<path d="M13.4894 11.6794V12.8919H11.2275V13.6526H13.4894V16.1149H14.3622V13.6526H16.6241V12.8919H14.3622V10.467H13.4894V11.6794Z" fill="#1F447E"/>
<path d="M8.82344 14.76V15.609H7.29175V16.2985H8.82344V18H9.58759V16.2985H11.1193V15.609H9.58759V13.9075H8.82344V14.76Z" fill="#5B6591"/>
</svg>
