<svg width="690" height="346" viewBox="0 0 690 346" fill="none" xmlns="http://www.w3.org/2000/svg">
<rect width="690" height="346" fill="black"/>
<rect x="24" y="24" width="2" height="2" fill="white" fill-opacity="0.4"/>
<rect x="24" y="122.451" width="2" height="2" fill="white" fill-opacity="0.4"/>
<rect x="24" y="171.677" width="2" height="2" fill="white" fill-opacity="0.6"/>
<rect x="24" y="270.128" width="2" height="2" fill="white" fill-opacity="0.4"/>
<rect x="24" y="319.354" width="2" height="2" fill="white" fill-opacity="0.4"/>
<rect x="73.2256" y="24" width="2" height="2" fill="white" fill-opacity="0.6"/>
<rect x="73.2256" y="73.2256" width="2" height="2" fill="white" fill-opacity="0.4"/>
<rect x="73.2256" y="171.677" width="2" height="2" fill="white" fill-opacity="0.4"/>
<rect x="73.2256" y="270.128" width="2" height="2" fill="white" fill-opacity="0.6"/>
<rect x="73.2256" y="319.354" width="2" height="2" fill="white" fill-opacity="0.4"/>
<rect x="122.451" y="73.2256" width="2" height="2" fill="white" fill-opacity="0.4"/>
<rect x="122.451" y="122.451" width="2" height="2" fill="white" fill-opacity="0.4"/>
<rect x="122.451" y="171.677" width="2" height="2" fill="white" fill-opacity="0.6"/>
<rect x="122.451" y="220.902" width="2" height="2" fill="white" fill-opacity="0.4"/>
<rect x="122.451" y="270.128" width="2" height="2" fill="white" fill-opacity="0.4"/>
<rect x="171.677" y="24" width="2" height="2" fill="white" fill-opacity="0.4"/>
<rect x="171.677" y="270.128" width="2" height="2" fill="white" fill-opacity="0.6"/>
<rect x="171.677" y="319.354" width="2" height="2" fill="white" fill-opacity="0.6"/>
<rect x="220.902" y="73.2256" width="2" height="2" fill="white" fill-opacity="0.4"/>
<rect x="220.902" y="122.451" width="2" height="2" fill="white" fill-opacity="0.6"/>
<rect x="220.902" y="270.128" width="2" height="2" fill="white" fill-opacity="0.4"/>
<rect x="270.128" y="24" width="2" height="2" fill="white" fill-opacity="0.4"/>
<rect x="270.128" y="73.2256" width="2" height="2" fill="white" fill-opacity="0.4"/>
<rect x="270.128" y="122.451" width="2" height="2" fill="white" fill-opacity="0.4"/>
<rect x="270.128" y="220.902" width="2" height="2" fill="white" fill-opacity="0.4"/>
<rect x="270.128" y="270.128" width="2" height="2" fill="white" fill-opacity="0.6"/>
<rect x="270.128" y="319.354" width="2" height="2" fill="white" fill-opacity="0.4"/>
<rect x="319.354" y="24" width="2" height="2" fill="white" fill-opacity="0.4"/>
<rect x="319.354" y="73.2256" width="2" height="2" fill="white" fill-opacity="0.6"/>
<rect x="319.354" y="122.451" width="2" height="2" fill="white" fill-opacity="0.4"/>
<rect x="319.354" y="220.902" width="2" height="2" fill="white" fill-opacity="0.4"/>
<rect x="319.354" y="319.354" width="2" height="2" fill="white" fill-opacity="0.4"/>
<rect x="368.579" y="24" width="2" height="2" fill="white" fill-opacity="0.4"/>
<rect x="368.579" y="73.2256" width="2" height="2" fill="white" fill-opacity="0.4"/>
<rect x="368.579" y="122.451" width="2" height="2" fill="white" fill-opacity="0.4"/>
<rect x="368.579" y="220.902" width="2" height="2" fill="white" fill-opacity="0.6"/>
<rect x="368.579" y="319.354" width="2" height="2" fill="white" fill-opacity="0.6"/>
<rect x="417.805" y="24" width="2" height="2" fill="white" fill-opacity="0.4"/>
<rect x="417.805" y="122.451" width="2" height="2" fill="white" fill-opacity="0.4"/>
<rect x="417.805" y="220.902" width="2" height="2" fill="white" fill-opacity="0.4"/>
<rect x="417.805" y="270.128" width="2" height="2" fill="white" fill-opacity="0.4"/>
<rect x="417.805" y="319.354" width="2" height="2" fill="white" fill-opacity="0.4"/>
<rect x="467.031" y="24" width="2" height="2" fill="white" fill-opacity="0.4"/>
<rect x="467.031" y="73.2256" width="2" height="2" fill="white" fill-opacity="0.6"/>
<rect x="467.031" y="122.451" width="2" height="2" fill="white" fill-opacity="0.4"/>
<rect x="467.031" y="220.902" width="2" height="2" fill="white" fill-opacity="0.6"/>
<rect x="467.031" y="270.128" width="2" height="2" fill="white" fill-opacity="0.6"/>
<rect x="467.031" y="319.354" width="2" height="2" fill="white" fill-opacity="0.4"/>
<rect x="516.256" y="24" width="2" height="2" fill="white" fill-opacity="0.6"/>
<rect x="516.256" y="73.2256" width="2" height="2" fill="white" fill-opacity="0.4"/>
<rect x="516.256" y="220.902" width="2" height="2" fill="white" fill-opacity="0.4"/>
<rect x="516.256" y="270.128" width="2" height="2" fill="white" fill-opacity="0.4"/>
<rect x="516.256" y="319.354" width="2" height="2" fill="white" fill-opacity="0.4"/>
<rect x="565.482" y="24" width="2" height="2" fill="white" fill-opacity="0.4"/>
<rect x="565.482" y="73.2256" width="2" height="2" fill="white" fill-opacity="0.4"/>
<rect x="565.482" y="171.677" width="2" height="2" fill="white" fill-opacity="0.4"/>
<rect x="565.482" y="220.902" width="2" height="2" fill="white" fill-opacity="0.4"/>
<rect x="565.482" y="319.354" width="2" height="2" fill="white" fill-opacity="0.4"/>
<rect x="614.707" y="73.2256" width="2" height="2" fill="white" fill-opacity="0.4"/>
<rect x="614.707" y="122.451" width="2" height="2" fill="white" fill-opacity="0.4"/>
<rect x="614.707" y="220.902" width="2" height="2" fill="white" fill-opacity="0.4"/>
<rect x="614.707" y="270.128" width="2" height="2" fill="white" fill-opacity="0.6"/>
<rect x="614.707" y="319.354" width="2" height="2" fill="white" fill-opacity="0.4"/>
<rect x="663.933" y="24" width="2" height="2" fill="white" fill-opacity="0.4"/>
<rect x="663.933" y="73.2256" width="2" height="2" fill="white" fill-opacity="0.6"/>
<rect x="663.933" y="122.451" width="2" height="2" fill="white" fill-opacity="0.4"/>
<rect x="663.933" y="171.677" width="2" height="2" fill="white" fill-opacity="0.4"/>
<rect x="663.933" y="270.128" width="2" height="2" fill="white" fill-opacity="0.4"/>
<rect x="663.933" y="319.354" width="2" height="2" fill="white" fill-opacity="0.4"/>
<path opacity="0.7" d="M150.866 199.687V156.351C150.869 156.13 150.924 155.914 151.029 155.72C151.134 155.526 151.285 155.36 151.468 155.238L176.188 138.525C176.397 138.384 176.641 138.3 176.893 138.285C177.145 138.269 177.397 138.321 177.622 138.436C177.847 138.551 178.038 138.724 178.173 138.937C178.309 139.15 178.385 139.396 178.394 139.649V182.974C178.393 183.197 178.338 183.415 178.233 183.611C178.128 183.807 177.977 183.974 177.792 184.098L153.082 200.8C152.873 200.944 152.63 201.029 152.377 201.047C152.124 201.064 151.871 201.014 151.645 200.9C151.418 200.786 151.226 200.613 151.089 200.4C150.953 200.186 150.876 199.94 150.866 199.687ZM155.638 158.759V190.859C155.643 191.113 155.717 191.361 155.852 191.576C155.987 191.792 156.178 191.966 156.405 192.082C156.631 192.197 156.884 192.249 157.138 192.231C157.391 192.214 157.635 192.128 157.843 191.982L173.081 181.69C173.264 181.566 173.415 181.398 173.519 181.203C173.624 181.007 173.68 180.789 173.682 180.567V148.466C173.675 148.212 173.599 147.964 173.463 147.75C173.327 147.535 173.135 147.361 172.908 147.246C172.681 147.131 172.428 147.079 172.174 147.096C171.92 147.113 171.676 147.198 171.467 147.343L156.24 157.645C156.055 157.766 155.903 157.932 155.798 158.126C155.693 158.32 155.638 158.538 155.638 158.759V158.759Z" fill="white"/>
<path opacity="0.85" d="M162.515 202.756V159.431C162.515 159.208 162.57 158.99 162.675 158.794C162.78 158.598 162.932 158.431 163.116 158.307L187.827 141.605C188.035 141.461 188.279 141.376 188.532 141.358C188.784 141.341 189.037 141.391 189.264 141.505C189.49 141.619 189.682 141.792 189.819 142.005C189.956 142.219 190.033 142.465 190.042 142.719V186.054C190.04 186.275 189.984 186.491 189.879 186.685C189.774 186.879 189.624 187.045 189.441 187.167L164.72 203.88C164.511 204.021 164.268 204.105 164.015 204.12C163.763 204.136 163.511 204.084 163.286 203.969C163.061 203.854 162.871 203.681 162.735 203.468C162.599 203.255 162.523 203.009 162.515 202.756V202.756ZM167.277 161.838V193.939C167.284 194.193 167.36 194.441 167.496 194.655C167.632 194.87 167.824 195.044 168.05 195.159C168.277 195.274 168.531 195.326 168.785 195.309C169.038 195.292 169.283 195.207 169.492 195.062L184.669 184.76C184.853 184.639 185.005 184.473 185.11 184.279C185.215 184.085 185.27 183.867 185.27 183.646V151.546C185.256 151.301 185.177 151.064 185.042 150.859C184.907 150.654 184.721 150.487 184.502 150.377C184.283 150.266 184.038 150.215 183.793 150.228C183.548 150.242 183.311 150.319 183.105 150.453L167.878 160.715C167.695 160.84 167.544 161.007 167.439 161.203C167.334 161.398 167.279 161.616 167.277 161.838V161.838Z" fill="white"/>
<path d="M175.216 205.836V162.5C175.218 162.28 175.274 162.063 175.379 161.869C175.483 161.675 175.634 161.509 175.817 161.387L200.538 144.685C200.745 144.54 200.988 144.454 201.241 144.436C201.493 144.418 201.746 144.469 201.972 144.583C202.198 144.697 202.389 144.87 202.525 145.084C202.661 145.298 202.736 145.545 202.743 145.798V189.134C202.737 189.347 202.681 189.555 202.578 189.742C202.475 189.929 202.329 190.088 202.152 190.207L177.431 206.949C177.223 207.093 176.979 207.179 176.726 207.196C176.473 207.214 176.22 207.163 175.994 207.049C175.767 206.935 175.576 206.763 175.439 206.549C175.302 206.336 175.225 206.089 175.216 205.836ZM179.987 164.908V197.008C179.994 197.261 180.07 197.508 180.205 197.722C180.341 197.936 180.532 198.109 180.758 198.223C180.984 198.337 181.237 198.388 181.49 198.37C181.742 198.352 181.985 198.266 182.193 198.122L197.38 187.839C197.563 187.717 197.714 187.551 197.819 187.357C197.923 187.163 197.979 186.947 197.981 186.726V154.626C197.972 154.372 197.895 154.126 197.758 153.912C197.621 153.699 197.43 153.526 197.203 153.412C196.977 153.299 196.724 153.248 196.471 153.265C196.218 153.283 195.975 153.368 195.766 153.512L180.579 163.794C180.397 163.917 180.248 164.083 180.145 164.277C180.041 164.471 179.988 164.688 179.987 164.908Z" fill="white"/>
<path d="M226.028 153.893V161.838H218.098V153.893H226.028ZM226.028 164.095V190.999H218.098V164.125L226.028 164.095Z" fill="white"/>
<path d="M243.691 163.544C247.794 163.544 250.988 164.881 253.274 167.556C255.61 170.366 256.836 173.934 256.722 177.588C256.842 181.24 255.561 184.8 253.144 187.539C251.95 188.863 250.48 189.908 248.838 190.601C247.196 191.295 245.421 191.619 243.641 191.551C241.912 191.621 240.189 191.304 238.598 190.621C237.008 189.939 235.59 188.91 234.448 187.609C232.086 184.783 230.861 181.178 231.01 177.497C230.936 174.98 231.469 172.482 232.564 170.215C233.556 168.268 235.025 166.604 236.834 165.379C238.881 164.087 241.272 163.447 243.691 163.544ZM243.901 168.73C243.231 168.695 242.564 168.838 241.967 169.144C241.37 169.451 240.865 169.91 240.503 170.475C239.754 171.639 239.377 173.953 239.37 177.417C239.37 180.6 239.731 182.881 240.453 184.258C240.751 184.902 241.233 185.442 241.838 185.812C242.442 186.181 243.143 186.363 243.851 186.335C244.501 186.341 245.141 186.183 245.713 185.874C246.284 185.565 246.768 185.116 247.119 184.569C247.954 183.386 248.369 181.135 248.362 177.818C248.362 174.277 247.991 171.89 247.259 170.626C246.934 170.026 246.447 169.53 245.853 169.195C245.259 168.859 244.582 168.698 243.901 168.73V168.73Z" fill="white"/>
<path d="M300.128 190.999H292.199V176.163C292.242 174.796 292.179 173.427 292.009 172.07C291.886 171.44 291.528 170.88 291.006 170.505C290.379 170.051 289.614 169.828 288.841 169.873C287.881 169.904 286.953 170.229 286.184 170.806C285.269 171.428 284.814 173.214 284.821 176.163V190.999H276.922V176.163C276.984 174.765 276.886 173.365 276.631 171.99C276.436 171.377 276.049 170.842 275.528 170.465C274.92 170.054 274.197 169.847 273.463 169.873C272.896 169.836 272.327 169.933 271.804 170.158C271.281 170.383 270.819 170.729 270.456 171.167C269.784 172.03 269.454 173.695 269.454 176.183V190.999H261.765V164.125H269.213V168.228C270.476 165.118 273.002 163.567 276.792 163.574C278.357 163.504 279.906 163.911 281.234 164.743C282.563 165.574 283.607 166.789 284.23 168.228C285.713 165.118 288.313 163.567 292.029 163.574C293.621 163.529 295.197 163.903 296.6 164.657C297.793 165.297 298.754 166.298 299.347 167.516C300.015 169.448 300.294 171.494 300.169 173.535L300.128 190.999Z" fill="white"/>
<path d="M330.793 178.882H313.491C313.491 179.363 313.491 179.774 313.491 180.135C313.432 180.925 313.538 181.718 313.802 182.464C314.067 183.21 314.483 183.893 315.025 184.469C315.506 184.945 316.078 185.319 316.706 185.571C317.335 185.822 318.007 185.946 318.684 185.934C321.33 185.934 322.914 184.529 323.445 181.7H330.823C328.959 188.943 324.558 191.601 318.413 191.601C316.035 191.672 313.681 191.115 311.586 189.986C309.658 188.85 308.061 187.228 306.955 185.282C305.693 183.023 305.066 180.465 305.141 177.878C305.141 173.605 306.36 170.154 308.799 167.526C309.982 166.303 311.394 165.326 312.954 164.65C314.515 163.974 316.193 163.613 317.894 163.586C319.594 163.56 321.282 163.87 322.863 164.498C324.443 165.126 325.885 166.059 327.104 167.245C329.557 169.659 330.786 173.538 330.793 178.882ZM313.461 174.267H323.014C322.774 170.576 321.25 168.73 318.463 168.73C315.482 168.73 313.815 170.576 313.461 174.267Z" fill="white"/>
<path d="M344.737 170.275V181.65C344.627 182.644 344.849 183.645 345.369 184.499C345.8 184.981 346.792 185.221 348.376 185.221H350.892V191.551H345.88C342.585 191.551 340.246 190.919 338.863 189.655C337.479 188.391 336.788 186.094 336.788 182.764V170.275H332.527V164.125H337.239V155.629H344.707V164.125H350.501V170.305L344.737 170.275Z" fill="white"/>
<path d="M378.83 178.881H361.528C361.528 179.363 361.528 179.774 361.528 180.135C361.468 180.924 361.573 181.716 361.835 182.462C362.097 183.208 362.512 183.892 363.052 184.469C363.534 184.944 364.106 185.318 364.734 185.57C365.362 185.821 366.034 185.945 366.711 185.933C369.357 185.933 370.941 184.529 371.482 181.7H378.72C376.645 189.294 372.585 191.601 366.45 191.601C364.072 191.672 361.718 191.115 359.623 189.986C357.691 188.856 356.092 187.232 354.992 185.281C353.726 183.024 353.096 180.466 353.168 177.878C352.996 174.083 354.309 170.37 356.827 167.526C358.01 166.303 359.423 165.325 360.984 164.649C362.546 163.973 364.225 163.612 365.926 163.586C367.627 163.559 369.316 163.869 370.898 164.497C372.479 165.125 373.921 166.059 375.141 167.245C377.594 169.659 378.824 173.538 378.83 178.881ZM361.528 174.267H371.081C370.834 170.575 369.317 168.73 366.53 168.73C363.53 168.73 361.862 170.575 361.528 174.267Z" fill="white"/>
<path d="M426.34 192.364C423.775 192.364 421.452 191.74 419.372 190.492C417.292 189.244 415.628 187.58 414.38 185.5C413.167 183.385 412.56 181.028 412.56 178.428C412.56 175.828 413.167 173.488 414.38 171.408C415.628 169.293 417.309 167.629 419.424 166.416C421.539 165.168 423.913 164.544 426.548 164.544C427.9 164.544 429.2 164.735 430.448 165.116C431.696 165.463 432.857 165.983 433.932 166.676V155.6L441.056 154.404V192H434.036V189.764C431.817 191.497 429.252 192.364 426.34 192.364ZM427.484 186.28C428.801 186.28 429.997 186.072 431.072 185.656C432.181 185.205 433.135 184.547 433.932 183.68V173.124C433.135 172.327 432.181 171.703 431.072 171.252C429.963 170.801 428.767 170.576 427.484 170.576C425.993 170.576 424.641 170.923 423.428 171.616C422.249 172.275 421.313 173.211 420.62 174.424C419.927 175.603 419.58 176.937 419.58 178.428C419.58 179.919 419.927 181.253 420.62 182.432C421.313 183.611 422.249 184.547 423.428 185.24C424.641 185.933 425.993 186.28 427.484 186.28ZM459.821 192.52C457.117 192.52 454.673 191.896 452.489 190.648C450.305 189.4 448.571 187.719 447.289 185.604C446.006 183.489 445.365 181.115 445.365 178.48C445.365 175.845 445.989 173.471 447.237 171.356C448.519 169.207 450.253 167.508 452.437 166.26C454.655 165.012 457.117 164.388 459.821 164.388C462.525 164.388 464.969 165.012 467.153 166.26C469.371 167.508 471.105 169.207 472.353 171.356C473.635 173.471 474.277 175.845 474.277 178.48C474.277 181.115 473.635 183.489 472.353 185.604C471.105 187.719 469.389 189.4 467.205 190.648C465.021 191.896 462.559 192.52 459.821 192.52ZM459.821 186.332C461.242 186.332 462.507 185.985 463.617 185.292C464.761 184.599 465.662 183.663 466.321 182.484C467.014 181.271 467.361 179.936 467.361 178.48C467.361 176.989 467.014 175.655 466.321 174.476C465.662 173.297 464.761 172.361 463.617 171.668C462.507 170.94 461.242 170.576 459.821 170.576C458.434 170.576 457.169 170.94 456.025 171.668C454.881 172.361 453.979 173.297 453.321 174.476C452.662 175.655 452.333 176.989 452.333 178.48C452.333 179.936 452.662 181.271 453.321 182.484C453.979 183.663 454.881 184.599 456.025 185.292C457.169 185.985 458.434 186.332 459.821 186.332ZM491.604 192.52C488.934 192.52 486.525 191.913 484.376 190.7C482.226 189.452 480.528 187.771 479.28 185.656C478.032 183.507 477.408 181.115 477.408 178.48C477.408 175.811 478.032 173.419 479.28 171.304C480.528 169.189 482.226 167.508 484.376 166.26C486.525 165.012 488.934 164.388 491.604 164.388C493.753 164.388 495.798 164.804 497.74 165.636C499.716 166.468 501.414 167.664 502.836 169.224L498.468 173.852C497.462 172.743 496.405 171.928 495.296 171.408C494.221 170.853 493.042 170.576 491.76 170.576C490.373 170.576 489.125 170.923 488.016 171.616C486.941 172.309 486.074 173.245 485.416 174.424C484.792 175.603 484.48 176.955 484.48 178.48C484.48 179.936 484.792 181.271 485.416 182.484C486.074 183.663 486.976 184.599 488.12 185.292C489.264 185.951 490.529 186.28 491.916 186.28C493.129 186.28 494.256 186.037 495.296 185.552C496.37 185.032 497.393 184.269 498.364 183.264L502.628 187.736C501.241 189.227 499.577 190.405 497.636 191.272C495.694 192.104 493.684 192.52 491.604 192.52ZM516.725 192.52C514.229 192.52 511.924 192.208 509.809 191.584C507.695 190.925 505.857 189.989 504.297 188.776L507.833 184.044C509.393 185.084 510.884 185.864 512.305 186.384C513.761 186.904 515.2 187.164 516.621 187.164C518.216 187.164 519.481 186.904 520.417 186.384C521.388 185.829 521.873 185.119 521.873 184.252C521.873 183.559 521.596 183.004 521.041 182.588C520.521 182.172 519.672 181.877 518.493 181.704L513.293 180.924C510.589 180.508 508.544 179.641 507.157 178.324C505.771 176.972 505.077 175.204 505.077 173.02C505.077 171.252 505.528 169.744 506.429 168.496C507.365 167.213 508.665 166.225 510.329 165.532C512.028 164.804 514.039 164.44 516.361 164.44C518.337 164.44 520.261 164.717 522.133 165.272C524.04 165.827 525.825 166.676 527.489 167.82L524.057 172.448C522.567 171.512 521.145 170.836 519.793 170.42C518.441 170.004 517.072 169.796 515.685 169.796C514.403 169.796 513.363 170.039 512.565 170.524C511.803 171.009 511.421 171.651 511.421 172.448C511.421 173.176 511.699 173.748 512.253 174.164C512.808 174.58 513.761 174.875 515.113 175.048L520.261 175.828C522.965 176.209 525.028 177.076 526.449 178.428C527.871 179.745 528.581 181.461 528.581 183.576C528.581 185.309 528.061 186.852 527.021 188.204C525.981 189.521 524.577 190.579 522.809 191.376C521.041 192.139 519.013 192.52 516.725 192.52Z" fill="url(#paint0_linear_909_2)"/>
<defs>
<linearGradient id="paint0_linear_909_2" x1="404" y1="200.255" x2="543" y2="200.255" gradientUnits="userSpaceOnUse">
<stop stop-color="#2099F5"/>
<stop offset="1" stop-color="#3565CD"/>
</linearGradient>
</defs>
</svg>
