<svg width="800" height="138" viewBox="0 0 800 138" fill="none" xmlns="http://www.w3.org/2000/svg">
<g clip-path="url(#clip0_2016_1778)">
<path d="M301.906 8.2959C268.39 8.2959 241.222 35.4659 241.222 68.9799C241.222 102.494 268.39 129.664 301.906 129.664C335.422 129.664 362.59 102.494 362.59 68.9799C362.59 35.4659 335.42 8.2959 301.906 8.2959ZM301.906 114.622C278.492 114.622 259.512 94.1879 259.512 68.9799C259.512 43.7719 278.492 23.3379 301.906 23.3379C325.32 23.3379 344.3 43.7719 344.3 68.9799C344.3 94.1879 325.32 114.622 301.906 114.622Z" fill="#202020"/>
<path d="M213.668 127.614V10.3479H231.274V127.614H213.668Z" fill="#202020"/>
<path d="M372.536 127.614V10.3479H400.57L427.238 83.1699C427.922 85.2219 428.69 87.5579 429.546 90.1779C430.4 92.7999 431.196 95.3059 431.938 97.6999C432.678 100.094 433.276 102.26 433.732 104.196H435.1C435.442 102.374 435.924 100.264 436.552 97.8719C437.176 95.4779 437.92 92.9999 438.774 90.4359C439.628 87.8719 440.338 85.5079 440.91 83.3419L467.576 10.3499H495.44V127.616H477.148V59.4099C477.148 55.8779 477.204 52.0899 477.32 48.0419C477.432 43.9979 477.548 40.3219 477.662 37.0159C477.774 33.7119 477.832 31.2619 477.832 29.6659H476.636C476.178 31.3759 475.524 33.5719 474.67 36.2479C473.814 38.9279 472.962 41.7179 472.106 44.6239C471.25 47.5299 470.424 50.1799 469.628 52.5719L441.934 127.616H425.524L397.66 52.5719C396.976 50.5219 396.208 48.1579 395.352 45.4779C394.496 42.8019 393.698 40.0939 392.958 37.3579C392.216 34.6239 391.506 32.0579 390.822 29.6659H389.624C389.736 32.2879 389.822 35.3659 389.882 38.8959C389.938 42.4299 389.992 45.9899 390.052 49.5799C390.108 53.1699 390.138 56.4479 390.138 59.4099V127.616H372.532L372.536 127.614Z" fill="#202020"/>
<path d="M510.362 127.614V10.3479H596.688V25.3899H527.628V60.2619H589.338V74.9639H527.628V112.572H596.688V127.614H510.362Z" fill="#202020"/>
<path d="M713.674 127.614V10.3479H800V25.3899H730.94V60.2619H792.65V74.9639H730.94V112.572H800V127.614H713.674Z" fill="#202020"/>
<path d="M646.292 127.614V25.3899H606.634V10.3479H703.73V25.3899H663.9V127.614H646.294H646.292Z" fill="#202020"/>
<path d="M153.186 62.082L121.326 6.898C118.862 2.63 114.308 0 109.378 0H45.656C40.728 0 36.172 2.63 33.708 6.898L1.848 62.082C-0.616 66.35 -0.616 71.61 1.848 75.878L33.708 131.062C36.172 135.33 40.726 137.96 45.656 137.96H109.378C114.306 137.96 118.862 135.33 121.326 131.062L153.186 75.878C155.65 71.61 155.65 66.35 153.186 62.082ZM112.826 104.794C112.826 107.708 110.868 110.26 108.054 111.014L46.552 127.494C44.362 128.082 42.21 126.43 42.21 124.162V33.168C42.21 30.254 44.168 27.702 46.982 26.948L108.484 10.468C110.674 9.88 112.826 11.532 112.826 13.8V104.796V104.794Z" fill="#202020"/>
</g>
<defs>
<clipPath id="clip0_2016_1778">
<rect width="800" height="138" fill="white"/>
</clipPath>
</defs>
</svg>
