<svg id="Layer_1" data-name="Layer 1" xmlns="http://www.w3.org/2000/svg" viewBox="0 0 245.4 95.7"><defs><style>.cls-1,.cls-2,.cls-3{fill:#fff;}.cls-1{opacity:0.7;}.cls-2{opacity:0.85;}</style></defs><title>Artboard 1</title><path class="cls-1" d="M11,75.2V31.8a1.33,1.33,0,0,1,.6-1.12L36.33,14a1.41,1.41,0,0,1,2.22,1.11V58.47a1.37,1.37,0,0,1-.61,1.12L13.17,76.32A1.41,1.41,0,0,1,11,75.2Zm4.77-41V66.34A1.42,1.42,0,0,0,18,67.46L33.17,57.18a1.36,1.36,0,0,0,.6-1.12V23.93a1.41,1.41,0,0,0-2.21-1.12L16.33,33.09A1.36,1.36,0,0,0,15.73,34.21Z"/><path class="cls-2" d="M22.63,78.28V34.88a1.35,1.35,0,0,1,.6-1.12L48,17a1.41,1.41,0,0,1,2.22,1.12v43.4a1.37,1.37,0,0,1-.6,1.12L24.84,79.4A1.41,1.41,0,0,1,22.63,78.28Zm4.77-41V69.42a1.42,1.42,0,0,0,2.22,1.12L44.84,60.26a1.35,1.35,0,0,0,.6-1.12V27a1.41,1.41,0,0,0-2.21-1.12L28,36.17A1.36,1.36,0,0,0,27.4,37.29Z"/><path class="cls-3" d="M35.36,81.37V38A1.37,1.37,0,0,1,36,36.84L60.74,20.11A1.41,1.41,0,0,1,63,21.23v43.4a1.33,1.33,0,0,1-.6,1.12L37.58,82.48A1.41,1.41,0,0,1,35.36,81.37Zm4.78-41V72.5a1.41,1.41,0,0,0,2.21,1.12L57.57,63.34a1.34,1.34,0,0,0,.61-1.12V30.09A1.42,1.42,0,0,0,56,29L40.74,39.25A1.36,1.36,0,0,0,40.14,40.37Z"/><path class="cls-3" d="M81.28,29.34v8H73.34V29.34Zm0,10.22V66.5H73.34V39.56Z"/><path class="cls-3" d="M99,39q6.15,0,9.6,4A14.93,14.93,0,0,1,112,53.11a14.37,14.37,0,0,1-3.58,10,12.17,12.17,0,0,1-9.53,4,11.65,11.65,0,0,1-9.21-3.94A14.88,14.88,0,0,1,86.27,53a15.66,15.66,0,0,1,1.56-7.3,13,13,0,0,1,4.28-4.84A12,12,0,0,1,99,39Zm.21,5.2A3.78,3.78,0,0,0,95.8,46q-1.15,1.74-1.15,6.95c0,3.18.36,5.47,1.09,6.85a3.61,3.61,0,0,0,3.41,2.09,3.86,3.86,0,0,0,3.27-1.78c.83-1.18,1.25-3.44,1.25-6.76q0-5.31-1.11-7.21A3.62,3.62,0,0,0,99.2,44.2Z"/><path class="cls-3" d="M155.56,66.5h-7.95V51.59a26.48,26.48,0,0,0-.19-4.1,2.6,2.6,0,0,0-1-1.57,3.41,3.41,0,0,0-2.18-.63,4.71,4.71,0,0,0-2.66.94q-1.37.93-1.36,5.36V66.5h-8V51.59a17.78,17.78,0,0,0-.29-4.17,2.82,2.82,0,0,0-1.11-1.54,3.44,3.44,0,0,0-2.06-.59,3.64,3.64,0,0,0-3.06,1.3c-.66.86-1,2.53-1,5V66.5h-7.71V39.56h7.47v4.11Q126.44,39,132.12,39a7.74,7.74,0,0,1,7.46,4.67Q141.82,39,147.39,39A9.12,9.12,0,0,1,152,40.09,6.41,6.41,0,0,1,154.73,43a15.59,15.59,0,0,1,.83,6Z"/><path class="cls-3" d="M186.29,54.36H169c0,.49,0,.9,0,1.26A5.76,5.76,0,0,0,170.46,60a5.1,5.1,0,0,0,3.67,1.47q4,0,4.77-4.25l7.39,0c-1.86,7.25-6.28,9.91-12.43,9.91A13.5,13.5,0,0,1,167,65.45a12.72,12.72,0,0,1-4.64-4.71,14.3,14.3,0,0,1-1.83-7.42q0-6.42,3.67-10.37a13,13,0,0,1,18.35-.28Q186.29,46.33,186.29,54.36Zm-17.36-4.61h9.57q-.37-5.55-4.56-5.55Q169.46,44.2,168.93,49.75Z"/><path class="cls-3" d="M200.27,45.75V57.14a4.54,4.54,0,0,0,.64,2.85q.65.72,3,.72l2.53,0v6.33l-5,0c-3.31,0-5.66-.63-7-1.91s-2.08-3.57-2.08-6.89V45.75h-4.27V39.56h4.73V31.07h7.49v8.49h5.79v6.19Z"/><path class="cls-3" d="M234.45,54.36H217.11c0,.49,0,.9,0,1.26A5.76,5.76,0,0,0,218.61,60a5.14,5.14,0,0,0,3.67,1.47q4,0,4.78-4.25l7.25,0c-2.08,7.61-6.14,9.91-12.29,9.91a13.54,13.54,0,0,1-6.85-1.61,12.87,12.87,0,0,1-4.64-4.71,14.3,14.3,0,0,1-1.83-7.42A14.65,14.65,0,0,1,212.37,43a13,13,0,0,1,18.36-.28Q234.45,46.33,234.45,54.36Zm-17.37-4.61h9.58q-.37-5.55-4.56-5.55Q217.62,44.2,217.08,49.75Z"/></svg>