<svg width="800" height="138" viewBox="0 0 800 138" fill="none" xmlns="http://www.w3.org/2000/svg">
<g clip-path="url(#clip0_16_591)">
<path d="M301.906 8.29602C268.39 8.29602 241.222 35.466 241.222 68.98C241.222 102.494 268.39 129.664 301.906 129.664C335.422 129.664 362.59 102.494 362.59 68.98C362.59 35.466 335.42 8.29602 301.906 8.29602ZM301.906 114.622C278.492 114.622 259.512 94.188 259.512 68.98C259.512 43.772 278.492 23.338 301.906 23.338C325.32 23.338 344.3 43.772 344.3 68.98C344.3 94.188 325.32 114.622 301.906 114.622Z" fill="white"/>
<path d="M213.668 127.614V10.348H231.274V127.614H213.668Z" fill="white"/>
<path d="M372.536 127.614V10.348H400.57L427.238 83.17C427.922 85.222 428.69 87.558 429.546 90.178C430.4 92.8 431.196 95.306 431.938 97.7C432.678 100.094 433.276 102.26 433.732 104.196H435.1C435.442 102.374 435.924 100.264 436.552 97.872C437.176 95.478 437.92 93 438.774 90.436C439.628 87.872 440.338 85.508 440.91 83.342L467.576 10.35H495.44V127.616H477.148V59.41C477.148 55.878 477.204 52.09 477.32 48.042C477.432 43.998 477.548 40.322 477.662 37.016C477.774 33.712 477.832 31.262 477.832 29.666H476.636C476.178 31.376 475.524 33.572 474.67 36.248C473.814 38.928 472.962 41.718 472.106 44.624C471.25 47.53 470.424 50.18 469.628 52.572L441.934 127.616H425.524L397.66 52.572C396.976 50.522 396.208 48.158 395.352 45.478C394.496 42.802 393.698 40.094 392.958 37.358C392.216 34.624 391.506 32.058 390.822 29.666H389.624C389.736 32.288 389.822 35.366 389.882 38.896C389.938 42.43 389.992 45.99 390.052 49.58C390.108 53.17 390.138 56.448 390.138 59.41V127.616H372.532L372.536 127.614Z" fill="white"/>
<path d="M510.362 127.614V10.348H596.688V25.39H527.628V60.262H589.338V74.964H527.628V112.572H596.688V127.614H510.362Z" fill="white"/>
<path d="M713.674 127.614V10.348H800V25.39H730.94V60.262H792.65V74.964H730.94V112.572H800V127.614H713.674Z" fill="white"/>
<path d="M646.292 127.614V25.39H606.634V10.348H703.73V25.39H663.9V127.614H646.294H646.292Z" fill="white"/>
<path d="M153.186 62.082L121.326 6.898C118.862 2.63 114.308 0 109.378 0H45.656C40.728 0 36.172 2.63 33.708 6.898L1.848 62.082C-0.616 66.35 -0.616 71.61 1.848 75.878L33.708 131.062C36.172 135.33 40.726 137.96 45.656 137.96H109.378C114.306 137.96 118.862 135.33 121.326 131.062L153.186 75.878C155.65 71.61 155.65 66.35 153.186 62.082ZM112.826 104.794C112.826 107.708 110.868 110.26 108.054 111.014L46.552 127.494C44.362 128.082 42.21 126.43 42.21 124.162V33.168C42.21 30.254 44.168 27.702 46.982 26.948L108.484 10.468C110.674 9.88 112.826 11.532 112.826 13.8V104.796V104.794Z" fill="white"/>
</g>
<defs>
<clipPath id="clip0_16_591">
<rect width="800" height="138" fill="white"/>
</clipPath>
</defs>
</svg>
