<svg xmlns="http://www.w3.org/2000/svg" xmlns:xlink="http://www.w3.org/1999/xlink" xmlns:lucid="lucid" width="1288.03" height="755.26"><g transform="translate(0 0)" lucid:page-tab-id="0_0"><path d="M240 40c22.1 0 40 17.9 40 40s-17.9 40-40 40H80c-22.1 0-40-17.9-40-40s17.9-40 40-40z" stroke="#3a414a" fill="#fff"/><use xlink:href="#a" transform="matrix(1,0,0,1,45,45) translate(13.574999999999989 38.6)"/><use xlink:href="#b" transform="matrix(1,0,0,1,45,45) translate(95.475 38.6)"/><use xlink:href="#c" transform="matrix(1,0,0,1,45,45) translate(156.475 38.6)"/><path d="M40 209.75a8 8 0 0 1 8-8h224a8 8 0 0 1 8 8v104a8 8 0 0 1-8 8H48a8 8 0 0 1-8-8z" stroke="#3a414a" fill="#fff"/><use xlink:href="#d" transform="matrix(1,0,0,1,52,213.7504689725638) translate(50.28888888888889 41.6)"/><use xlink:href="#e" transform="matrix(1,0,0,1,52,213.7504689725638) translate(85.75555555555556 41.6)"/><use xlink:href="#f" transform="matrix(1,0,0,1,52,213.7504689725638) translate(120.42222222222222 41.6)"/><use xlink:href="#g" transform="matrix(1,0,0,1,52,213.7504689725638) translate(143.48888888888888 41.6)"/><use xlink:href="#h" transform="matrix(1,0,0,1,52,213.7504689725638) translate(40.93333333333334 60.8)"/><use xlink:href="#i" transform="matrix(1,0,0,1,52,213.7504689725638) translate(112.93333333333334 60.8)"/><path d="M153 377.85a14.5 14.5 0 0 1 14 0l106 58.53a4.42 4.42 0 0 1 0 7.74l-106 58.53a14.5 14.5 0 0 1-14 0L47 444.12a4.42 4.42 0 0 1 0-7.74z" stroke="#3a414a" fill="#fff"/><use xlink:href="#j" transform="matrix(1,0,0,1,45,378.9858767135337) translate(59.04444444444445 55.099999999999994)"/><use xlink:href="#k" transform="matrix(1,0,0,1,45,378.9858767135337) translate(123 55.099999999999994)"/><use xlink:href="#l" transform="matrix(1,0,0,1,45,378.9858767135337) translate(59.48888888888888 74.3)"/><use xlink:href="#m" transform="matrix(1,0,0,1,45,378.9858767135337) translate(80.82222222222222 74.3)"/><use xlink:href="#n" transform="matrix(1,0,0,1,45,378.9858767135337) translate(94.15555555555555 74.3)"/><use xlink:href="#o" transform="matrix(1,0,0,1,45,378.9858767135337) translate(120.82222222222222 74.3)"/><path d="M160 121v64.37" stroke="#3a414a" fill="none"/><path d="M160.5 121h-1v-.5h1z" stroke="#3a414a" stroke-width=".05" fill="#3a414a"/><path d="M160 200.13l-4.63-14.26h9.26z" stroke="#3a414a" fill="#3a414a"/><path d="M160 322.75v36.4" stroke="#3a414a" fill="none"/><path d="M160.5 322.76h-1v-.5h1z" stroke="#3a414a" stroke-width=".05" fill="#3a414a"/><path d="M160 373.93l-4.63-14.27h9.26z" stroke="#3a414a" fill="#3a414a"/><path d="M473 377.85a14.5 14.5 0 0 1 14 0l106 58.53a4.42 4.42 0 0 1 0 7.74l-106 58.53a14.5 14.5 0 0 1-14 0l-106-58.53a4.42 4.42 0 0 1 0-7.74z" stroke="#3a414a" fill="#fff"/><use xlink:href="#j" transform="matrix(1,0,0,1,364.99999999999994,378.9858767135337) translate(59.04444444444445 55.099999999999994)"/><use xlink:href="#k" transform="matrix(1,0,0,1,364.99999999999994,378.9858767135337) translate(123 55.099999999999994)"/><use xlink:href="#l" transform="matrix(1,0,0,1,364.99999999999994,378.9858767135337) translate(39.53333333333333 74.3)"/><use xlink:href="#m" transform="matrix(1,0,0,1,364.99999999999994,378.9858767135337) translate(60.86666666666667 74.3)"/><use xlink:href="#p" transform="matrix(1,0,0,1,364.99999999999994,378.9858767135337) translate(74.2 74.3)"/><use xlink:href="#o" transform="matrix(1,0,0,1,364.99999999999994,378.9858767135337) translate(140.77777777777777 74.3)"/><path d="M308.52 441.25h-31.74v-2h31.75zm37.2 0h-14.25v-2h14.25z" stroke="#c92d39" stroke-width=".05" fill="#c92d39"/><path d="M276.8 441.25h-1.13l.1-1-.1-1h1.14z" fill="#c92d39"/><path d="M276.83 441.27h-1.18l.1-1.02-.1-1.02h1.18zm-1.13-2l.1.98-.1.98h1.08v-1.96z" stroke="#c92d39" stroke-width=".05" fill="#c92d39"/><path d="M360.98 440.25l-14.26 4.63v-9.27z" fill="#c92d39"/><path d="M364.22 440.25l-18.5 6v-12zm-16.5 3.26l10.03-3.25-10.03-3.26z" stroke="#c92d39" stroke-width=".05" fill="#c92d39"/><use xlink:href="#q" transform="matrix(1,0,0,1,308.52500001182784,429.4495311030377) translate(0.005000000000000782 14.4)"/><path d="M560 600c22.1 0 40 17.9 40 40s-17.9 40-40 40H400c-22.1 0-40-17.9-40-40s17.9-40 40-40z" stroke="#3a414a" fill="#fff"/><use xlink:href="#r" transform="matrix(1,0,0,1,364.99999999999994,605) translate(90.05 38.6)"/><path d="M481 581h-2v-6.53h2zm0-28.13h-2v-46.92h2z" stroke="#7ab648" stroke-width=".05" fill="#7ab648"/><path d="M480 504.95l1-.05v1.08h-2v-1.08z" fill="#7ab648"/><path d="M480 504.93l1.02-.06V506h-2.04v-1.13zm-.98 1.02h1.96v-1.02l-.98.05-.98-.05z" stroke="#7ab648" stroke-width=".05" fill="#7ab648"/><path d="M480 596.26L475.37 582h9.26z" fill="#7ab648"/><path d="M480 599.5l-6-18.5h12zm-3.26-16.5l3.26 10.03 3.26-10.03z" stroke="#7ab648" stroke-width=".05" fill="#7ab648"/><use xlink:href="#s" transform="matrix(1,0,0,1,465.32499999917457,552.8675611522995) translate(0.005000000000000782 14.4)"/><path d="M161 627.96l.14 1.76.4 1.68.66 1.6.9 1.46 1.12 1.32 1.32 1.12 1.47.9 1.6.66 1.68.4 1.76.14h5.5v2h-5.58l-2-.16-1.98-.47-1.88-.78-1.74-1.08-1.56-1.32-1.32-1.56-1.07-1.74-.77-1.88-.47-2-.16-1.98v-122.1h2zM341 639v2H206.9v-2z" stroke="#7ab648" stroke-width=".05" fill="#7ab648"/><path d="M160 504.95l1-.05v1.08h-2v-1.08z" fill="#7ab648"/><path d="M160 504.93l1.03-.06V506h-2.06v-1.13zm-.97 1.02h1.94v-1.02l-.97.05-.97-.05z" stroke="#7ab648" stroke-width=".05" fill="#7ab648"/><path d="M356.26 640L342 644.63v-9.26z" fill="#7ab648"/><path d="M359.5 640l-18.5 6v-12zm-16.5 3.26l10.03-3.26-10.03-3.26z" stroke="#7ab648" stroke-width=".05" fill="#7ab648"/><use xlink:href="#s" transform="matrix(1,0,0,1,177.55072833936526,629.2) translate(0.005000000000000782 14.4)"/><path d="M793 377.85a14.5 14.5 0 0 1 14 0l106 58.53a4.42 4.42 0 0 1 0 7.74l-106 58.53a14.5 14.5 0 0 1-14 0l-106-58.53a4.42 4.42 0 0 1 0-7.74z" stroke="#3a414a" fill="#fff"/><use xlink:href="#j" transform="matrix(1,0,0,1,685,378.9858767135337) translate(55.97777777777778 55.099999999999994)"/><use xlink:href="#t" transform="matrix(1,0,0,1,685,378.9858767135337) translate(119.93333333333334 55.099999999999994)"/><use xlink:href="#l" transform="matrix(1,0,0,1,685,378.9858767135337) translate(59.48888888888888 74.3)"/><use xlink:href="#m" transform="matrix(1,0,0,1,685,378.9858767135337) translate(80.82222222222222 74.3)"/><use xlink:href="#n" transform="matrix(1,0,0,1,685,378.9858767135337) translate(94.15555555555555 74.3)"/><use xlink:href="#o" transform="matrix(1,0,0,1,685,378.9858767135337) translate(120.82222222222222 74.3)"/><path d="M628.52 441.25H596.8v-2h31.75zm37.2 0h-14.25v-2h14.25z" stroke="#c92d39" stroke-width=".05" fill="#c92d39"/><path d="M596.8 441.25h-1.13l.1-1-.1-1h1.14z" fill="#c92d39"/><path d="M596.83 441.27h-1.18l.1-1.02-.1-1.02h1.18zm-1.13-2l.1.98-.1.98h1.08v-1.96z" stroke="#c92d39" stroke-width=".05" fill="#c92d39"/><path d="M680.98 440.25l-14.26 4.63v-9.27z" fill="#c92d39"/><path d="M684.22 440.25l-18.5 6v-12zm-16.5 3.26l10.03-3.25-10.03-3.26z" stroke="#c92d39" stroke-width=".05" fill="#c92d39"/><use xlink:href="#q" transform="matrix(1,0,0,1,628.5250000118278,429.4495311030377) translate(0.005000000000000782 14.4)"/><path d="M1113 377.85a14.5 14.5 0 0 1 14 0l106 58.53a4.42 4.42 0 0 1 0 7.74l-106 58.53a14.5 14.5 0 0 1-14 0l-106-58.53a4.42 4.42 0 0 1 0-7.74z" stroke="#3a414a" fill="#fff"/><use xlink:href="#j" transform="matrix(1,0,0,1,1005,378.9858767135337) translate(55.97777777777778 55.099999999999994)"/><use xlink:href="#t" transform="matrix(1,0,0,1,1005,378.9858767135337) translate(119.93333333333334 55.099999999999994)"/><use xlink:href="#l" transform="matrix(1,0,0,1,1005,378.9858767135337) translate(39.53333333333333 74.3)"/><use xlink:href="#m" transform="matrix(1,0,0,1,1005,378.9858767135337) translate(60.86666666666667 74.3)"/><use xlink:href="#p" transform="matrix(1,0,0,1,1005,378.9858767135337) translate(74.2 74.3)"/><use xlink:href="#o" transform="matrix(1,0,0,1,1005,378.9858767135337) translate(140.77777777777777 74.3)"/><path d="M948.52 441.25H916.8v-2h31.75zm37.2 0h-14.25v-2h14.25z" stroke="#c92d39" stroke-width=".05" fill="#c92d39"/><path d="M916.8 441.25h-1.13l.1-1-.1-1h1.14z" fill="#c92d39"/><path d="M916.83 441.27h-1.18l.1-1.02-.1-1.02h1.18zm-1.13-2l.1.98-.1.98h1.08v-1.96z" stroke="#c92d39" stroke-width=".05" fill="#c92d39"/><path d="M1000.98 440.25l-14.26 4.63v-9.27z" fill="#c92d39"/><path d="M1004.22 440.25l-18.5 6v-12zm-16.5 3.26l10.03-3.25-10.03-3.26z" stroke="#c92d39" stroke-width=".05" fill="#c92d39"/><g><use xlink:href="#q" transform="matrix(1,0,0,1,948.5250000118278,429.4495311030377) translate(0.005000000000000782 14.4)"/></g><path d="M1060 600c22.1 0 40 17.9 40 40s-17.9 40-40 40H900c-22.1 0-40-17.9-40-40s17.9-40 40-40z" stroke="#3a414a" fill="#fff"/><g><use xlink:href="#u" transform="matrix(1,0,0,1,865,605) translate(82.1 38.6)"/></g><path d="M968.04 559l2 .16 1.98.47 1.88.78 1.74 1.08 1.56 1.32 1.32 1.56 1.07 1.74.77 1.88.47 2 .16 1.98V581h-2v-8.96l-.14-1.76-.4-1.68-.66-1.6-.9-1.46-1.12-1.32-1.32-1.12-1.47-.9-1.6-.66-1.68-.4-1.76-.14h-33.3v-2zm-166.9-9.28l.4 1.68.66 1.6.9 1.46 1.12 1.32 1.32 1.12 1.47.9 1.6.66 1.68.4 1.76.14h93.26v2h-93.34l-2-.16-1.98-.47-1.88-.78-1.74-1.08-1.56-1.32-1.32-1.56-1.07-1.74-.77-1.88-.47-2-.16-1.98v-42.1h2v42.02z" stroke="#7ab648" stroke-width=".05" fill="#7ab648"/><path d="M800 504.95l1-.05v1.08h-2v-1.08z" fill="#7ab648"/><path d="M800 504.93l1.02-.06V506H799v-1.13zm-.98 1.02H801v-1.02l-.98.05-.98-.05z" stroke="#7ab648" stroke-width=".05" fill="#7ab648"/><path d="M980 596.26L975.37 582h9.26z" fill="#7ab648"/><path d="M980 599.5l-6-18.5h12zm-3.26-16.5l3.26 10.03 3.26-10.03z" stroke="#7ab648" stroke-width=".05" fill="#7ab648"/><g><use xlink:href="#s" transform="matrix(1,0,0,1,905.3002447186669,549.2) translate(0.005000000000000782 14.4)"/></g><path d="M1024.34 561h-32.3l-1.76.14-1.68.4-1.6.66-1.46.9-1.32 1.12-1.12 1.32-.9 1.47-.66 1.6-.4 1.68-.14 1.76V581h-2v-9.04l.16-2 .47-1.98.78-1.88 1.08-1.74 1.32-1.56 1.56-1.32 1.74-1.07 1.88-.77 2-.47 1.98-.16h32.38zm96.66-12.96l-.16 2-.47 1.98-.78 1.88-1.08 1.74-1.33 1.56-1.56 1.32-1.74 1.07-1.88.77-2 .47-1.98.16h-54.35v-2h54.26l1.76-.14 1.68-.4 1.6-.66 1.46-.9 1.32-1.12 1.12-1.32.9-1.47.66-1.6.4-1.68.14-1.76v-42h2z" stroke="#7ab648" stroke-width=".05" fill="#7ab648"/><path d="M1120 504.95l1-.05v1.08h-2v-1.08z" fill="#7ab648"/><path d="M1120 504.93l1.03-.06V506h-2.06v-1.13zm-.97 1.02h1.94v-1.02l-.97.05-.97-.05z" stroke="#7ab648" stroke-width=".05" fill="#7ab648"/><path d="M980 596.26L975.37 582h9.26z" fill="#7ab648"/><path d="M980 599.5l-6-18.5h12zm-3.26-16.5l3.26 10.03 3.26-10.03z" stroke="#7ab648" stroke-width=".05" fill="#7ab648"/><g><use xlink:href="#s" transform="matrix(1,0,0,1,1024.3417657460932,549.2) translate(0.005000000000000782 14.4)"/></g><path d="M481 707.96l.14 1.76.4 1.68.66 1.6.9 1.46 1.12 1.32 1.32 1.12 1.47.9 1.6.66 1.68.4 1.76.14H743.5v2H491.96l-2-.16-1.98-.47-1.88-.78-1.74-1.08-1.56-1.32-1.32-1.56-1.07-1.74-.77-1.88-.47-2-.16-1.98V699h2zm770 .08l-.16 2-.47 1.98-.78 1.88-1.08 1.74-1.33 1.56-1.56 1.32-1.74 1.07-1.88.77-2 .47-1.98.16h-471.6v-2h471.52l1.76-.14 1.68-.4 1.6-.66 1.46-.9 1.32-1.12 1.12-1.32.9-1.47.66-1.6.4-1.68.14-1.76v-91h2zm-10.97-268.63l2 .48 1.87.78 1.74 1.07 1.55 1.32 1.32 1.56 1.07 1.75.77 1.88.47 1.98.16 2v143.16h-2V452.3l-.14-1.77-.4-1.68-.66-1.6-.9-1.46-1.12-1.33-1.32-1.12-1.47-.9-1.6-.66-1.68-.4-1.76-.15h-1.18v-2h1.26z" stroke="#c92d39" stroke-width=".05" fill="#c92d39"/><path d="M1236.8 441.25h-1.13l.1-1-.1-1h1.14z" fill="#c92d39"/><path d="M1236.83 441.27h-1.18l.1-1.02-.1-1.02h1.18zm-1.13-2l.1.98-.1.98h1.08v-1.96z" stroke="#c92d39" stroke-width=".05" fill="#c92d39"/><path d="M484.63 698h-9.26l4.63-14.26z" fill="#c92d39"/><path d="M486 699h-12l6-18.5zm-9.26-2h6.52L480 686.97z" stroke="#c92d39" stroke-width=".05" fill="#c92d39"/><g><use xlink:href="#q" transform="matrix(1,0,0,1,743.4963408788932,709.2) translate(0.005000000000000782 14.4)"/></g><g><use xlink:href="#q" transform="matrix(1,0,0,1,1238.525,595.3555433954177) translate(0.005000000000000782 14.4)"/></g><defs><path fill="#3a414a" d="M233-177c-1 41-23 64-60 70L243 0h-38l-65-103H63V0H30v-248c88 3 205-21 203 71zM63-129c60-2 137 13 137-47 0-61-80-42-137-45v92" id="v"/><path fill="#3a414a" d="M100-194c63 0 86 42 84 106H49c0 40 14 67 53 68 26 1 43-12 49-29l28 8c-11 28-37 45-77 45C44 4 14-33 15-96c1-61 26-98 85-98zm52 81c6-60-76-77-97-28-3 7-6 17-6 28h103" id="w"/><path fill="#3a414a" d="M135-143c-3-34-86-38-87 0 15 53 115 12 119 90S17 21 10-45l28-5c4 36 97 45 98 0-10-56-113-15-118-90-4-57 82-63 122-42 12 7 21 19 24 35" id="x"/><path fill="#3a414a" d="M100-194c62-1 85 37 85 99 1 63-27 99-86 99S16-35 15-95c0-66 28-99 85-99zM99-20c44 1 53-31 53-75 0-43-8-75-51-75s-53 32-53 75 10 74 51 75" id="y"/><path fill="#3a414a" d="M84 4C-5 8 30-112 23-190h32v120c0 31 7 50 39 49 72-2 45-101 50-169h31l1 190h-30c-1-10 1-25-2-33-11 22-28 36-60 37" id="z"/><path fill="#3a414a" d="M114-163C36-179 61-72 57 0H25l-1-190h30c1 12-1 29 2 39 6-27 23-49 58-41v29" id="A"/><path fill="#3a414a" d="M96-169c-40 0-48 33-48 73s9 75 48 75c24 0 41-14 43-38l32 2c-6 37-31 61-74 61-59 0-76-41-82-99-10-93 101-131 147-64 4 7 5 14 7 22l-32 3c-4-21-16-35-41-35" id="B"/><g id="a"><use transform="matrix(0.05,0,0,0.05,0,0)" xlink:href="#v"/><use transform="matrix(0.05,0,0,0.05,12.950000000000001,0)" xlink:href="#w"/><use transform="matrix(0.05,0,0,0.05,22.950000000000003,0)" xlink:href="#x"/><use transform="matrix(0.05,0,0,0.05,31.950000000000003,0)" xlink:href="#y"/><use transform="matrix(0.05,0,0,0.05,41.95,0)" xlink:href="#z"/><use transform="matrix(0.05,0,0,0.05,51.95,0)" xlink:href="#A"/><use transform="matrix(0.05,0,0,0.05,57.900000000000006,0)" xlink:href="#B"/><use transform="matrix(0.05,0,0,0.05,66.9,0)" xlink:href="#w"/></g><path fill="#3a414a" d="M141-36C126-15 110 5 73 4 37 3 15-17 15-53c-1-64 63-63 125-63 3-35-9-54-41-54-24 1-41 7-42 31l-33-3c5-37 33-52 76-52 45 0 72 20 72 64v82c-1 20 7 32 28 27v20c-31 9-61-2-59-35zM48-53c0 20 12 33 32 33 41-3 63-29 60-74-43 2-92-5-92 41" id="C"/><g id="b"><use transform="matrix(0.05,0,0,0.05,0,0)" xlink:href="#C"/><use transform="matrix(0.05,0,0,0.05,10,0)" xlink:href="#B"/><use transform="matrix(0.05,0,0,0.05,19,0)" xlink:href="#B"/><use transform="matrix(0.05,0,0,0.05,28,0)" xlink:href="#w"/><use transform="matrix(0.05,0,0,0.05,38,0)" xlink:href="#x"/><use transform="matrix(0.05,0,0,0.05,47,0)" xlink:href="#x"/></g><path fill="#3a414a" d="M145-31C134-9 116 4 85 4 32 4 16-35 15-94c0-59 17-99 70-100 32-1 48 14 60 33 0-11-1-24 2-32h30l-1 268h-32zM93-21c41 0 51-33 51-76s-8-73-50-73c-40 0-46 35-46 75s5 74 45 74" id="D"/><path fill="#3a414a" d="M59-47c-2 24 18 29 38 22v24C64 9 27 4 27-40v-127H5v-23h24l9-43h21v43h35v23H59v120" id="E"/><g id="c"><use transform="matrix(0.05,0,0,0.05,0,0)" xlink:href="#A"/><use transform="matrix(0.05,0,0,0.05,5.95,0)" xlink:href="#w"/><use transform="matrix(0.05,0,0,0.05,15.949999999999998,0)" xlink:href="#D"/><use transform="matrix(0.05,0,0,0.05,25.950000000000003,0)" xlink:href="#z"/><use transform="matrix(0.05,0,0,0.05,35.95,0)" xlink:href="#w"/><use transform="matrix(0.05,0,0,0.05,45.95,0)" xlink:href="#x"/><use transform="matrix(0.05,0,0,0.05,54.95,0)" xlink:href="#E"/></g><path d="M63-220v92h138v28H63V0H30v-248h175v28H63" id="F"/><path d="M24-231v-30h32v30H24zM24 0v-190h32V0H24" id="G"/><path d="M117-194c89-4 53 116 60 194h-32v-121c0-31-8-49-39-48C34-167 62-67 57 0H25l-1-190h30c1 10-1 24 2 32 11-22 29-35 61-36" id="H"/><path d="M85-194c31 0 48 13 60 33l-1-100h32l1 261h-30c-2-10 0-23-3-31C134-8 116 4 85 4 32 4 16-35 15-94c0-66 23-100 70-100zm9 24c-40 0-46 34-46 75 0 40 6 74 45 74 42 0 51-32 51-76 0-42-9-74-50-73" id="I"/><g id="d"><use transform="matrix(0.044444444444444446,0,0,0.044444444444444446,0,0)" xlink:href="#F"/><use transform="matrix(0.044444444444444446,0,0,0.044444444444444446,9.733333333333334,0)" xlink:href="#G"/><use transform="matrix(0.044444444444444446,0,0,0.044444444444444446,13.244444444444445,0)" xlink:href="#H"/><use transform="matrix(0.044444444444444446,0,0,0.044444444444444446,22.133333333333333,0)" xlink:href="#I"/></g><path d="M59-47c-2 24 18 29 38 22v24C64 9 27 4 27-40v-127H5v-23h24l9-43h21v43h35v23H59v120" id="J"/><path d="M141-36C126-15 110 5 73 4 37 3 15-17 15-53c-1-64 63-63 125-63 3-35-9-54-41-54-24 1-41 7-42 31l-33-3c5-37 33-52 76-52 45 0 72 20 72 64v82c-1 20 7 32 28 27v20c-31 9-61-2-59-35zM48-53c0 20 12 33 32 33 41-3 63-29 60-74-43 2-92-5-92 41" id="K"/><path d="M177-190C167-65 218 103 67 71c-23-6-38-20-44-43l32-5c15 47 100 32 89-28v-30C133-14 115 1 83 1 29 1 15-40 15-95c0-56 16-97 71-98 29-1 48 16 59 35 1-10 0-23 2-32h30zM94-22c36 0 50-32 50-73 0-42-14-75-50-75-39 0-46 34-46 75s6 73 46 73" id="L"/><path d="M135-143c-3-34-86-38-87 0 15 53 115 12 119 90S17 21 10-45l28-5c4 36 97 45 98 0-10-56-113-15-118-90-4-57 82-63 122-42 12 7 21 19 24 35" id="M"/><g id="e"><use transform="matrix(0.044444444444444446,0,0,0.044444444444444446,0,0)" xlink:href="#J"/><use transform="matrix(0.044444444444444446,0,0,0.044444444444444446,4.444444444444445,0)" xlink:href="#K"/><use transform="matrix(0.044444444444444446,0,0,0.044444444444444446,13.333333333333334,0)" xlink:href="#L"/><use transform="matrix(0.044444444444444446,0,0,0.044444444444444446,22.22222222222222,0)" xlink:href="#M"/></g><path d="M101-234c-31-9-42 10-38 44h38v23H63V0H32v-167H5v-23h27c-7-52 17-82 69-68v24" id="N"/><path d="M100-194c62-1 85 37 85 99 1 63-27 99-86 99S16-35 15-95c0-66 28-99 85-99zM99-20c44 1 53-31 53-75 0-43-8-75-51-75s-53 32-53 75 10 74 51 75" id="O"/><path d="M114-163C36-179 61-72 57 0H25l-1-190h30c1 12-1 29 2 39 6-27 23-49 58-41v29" id="P"/><g id="f"><use transform="matrix(0.044444444444444446,0,0,0.044444444444444446,0,0)" xlink:href="#N"/><use transform="matrix(0.044444444444444446,0,0,0.044444444444444446,4.444444444444445,0)" xlink:href="#O"/><use transform="matrix(0.044444444444444446,0,0,0.044444444444444446,13.333333333333334,0)" xlink:href="#P"/></g><path d="M106-169C34-169 62-67 57 0H25v-261h32l-1 103c12-21 28-36 61-36 89 0 53 116 60 194h-32v-121c2-32-8-49-39-48" id="Q"/><path d="M100-194c63 0 86 42 84 106H49c0 40 14 67 53 68 26 1 43-12 49-29l28 8c-11 28-37 45-77 45C44 4 14-33 15-96c1-61 26-98 85-98zm52 81c6-60-76-77-97-28-3 7-6 17-6 28h103" id="R"/><g id="g"><use transform="matrix(0.044444444444444446,0,0,0.044444444444444446,0,0)" xlink:href="#J"/><use transform="matrix(0.044444444444444446,0,0,0.044444444444444446,4.444444444444445,0)" xlink:href="#Q"/><use transform="matrix(0.044444444444444446,0,0,0.044444444444444446,13.333333333333334,0)" xlink:href="#R"/></g><path d="M96-169c-40 0-48 33-48 73s9 75 48 75c24 0 41-14 43-38l32 2c-6 37-31 61-74 61-59 0-76-41-82-99-10-93 101-131 147-64 4 7 5 14 7 22l-32 3c-4-21-16-35-41-35" id="S"/><g id="h"><use transform="matrix(0.044444444444444446,0,0,0.044444444444444446,0,0)" xlink:href="#K"/><use transform="matrix(0.044444444444444446,0,0,0.044444444444444446,8.88888888888889,0)" xlink:href="#S"/><use transform="matrix(0.044444444444444446,0,0,0.044444444444444446,16.88888888888889,0)" xlink:href="#S"/><use transform="matrix(0.044444444444444446,0,0,0.044444444444444446,24.88888888888889,0)" xlink:href="#R"/><use transform="matrix(0.044444444444444446,0,0,0.044444444444444446,33.77777777777778,0)" xlink:href="#M"/><use transform="matrix(0.044444444444444446,0,0,0.044444444444444446,41.77777777777778,0)" xlink:href="#M"/><use transform="matrix(0.044444444444444446,0,0,0.044444444444444446,49.77777777777778,0)" xlink:href="#R"/><use transform="matrix(0.044444444444444446,0,0,0.044444444444444446,58.66666666666667,0)" xlink:href="#I"/></g><path d="M84 4C-5 8 30-112 23-190h32v120c0 31 7 50 39 49 72-2 45-101 50-169h31l1 190h-30c-1-10 1-25-2-33-11 22-28 36-60 37" id="T"/><g id="i"><use transform="matrix(0.044444444444444446,0,0,0.044444444444444446,0,0)" xlink:href="#P"/><use transform="matrix(0.044444444444444446,0,0,0.044444444444444446,5.288888888888889,0)" xlink:href="#R"/><use transform="matrix(0.044444444444444446,0,0,0.044444444444444446,14.177777777777779,0)" xlink:href="#M"/><use transform="matrix(0.044444444444444446,0,0,0.044444444444444446,22.177777777777777,0)" xlink:href="#O"/><use transform="matrix(0.044444444444444446,0,0,0.044444444444444446,31.066666666666666,0)" xlink:href="#T"/><use transform="matrix(0.044444444444444446,0,0,0.044444444444444446,39.955555555555556,0)" xlink:href="#P"/><use transform="matrix(0.044444444444444446,0,0,0.044444444444444446,45.24444444444445,0)" xlink:href="#S"/><use transform="matrix(0.044444444444444446,0,0,0.044444444444444446,53.24444444444445,0)" xlink:href="#R"/></g><path d="M233-177c-1 41-23 64-60 70L243 0h-38l-65-103H63V0H30v-248c88 3 205-21 203 71zM63-129c60-2 137 13 137-47 0-61-80-42-137-45v92" id="U"/><path d="M145-31C134-9 116 4 85 4 32 4 16-35 15-94c0-59 17-99 70-100 32-1 48 14 60 33 0-11-1-24 2-32h30l-1 268h-32zM93-21c41 0 51-33 51-76s-8-73-50-73c-40 0-46 35-46 75s5 74 45 74" id="V"/><g id="j"><use transform="matrix(0.044444444444444446,0,0,0.044444444444444446,0,0)" xlink:href="#U"/><use transform="matrix(0.044444444444444446,0,0,0.044444444444444446,11.511111111111111,0)" xlink:href="#R"/><use transform="matrix(0.044444444444444446,0,0,0.044444444444444446,20.4,0)" xlink:href="#V"/><use transform="matrix(0.044444444444444446,0,0,0.044444444444444446,29.28888888888889,0)" xlink:href="#T"/><use transform="matrix(0.044444444444444446,0,0,0.044444444444444446,38.17777777777778,0)" xlink:href="#R"/><use transform="matrix(0.044444444444444446,0,0,0.044444444444444446,47.066666666666656,0)" xlink:href="#M"/><use transform="matrix(0.044444444444444446,0,0,0.044444444444444446,55.066666666666656,0)" xlink:href="#J"/></g><g id="k"><use transform="matrix(0.044444444444444446,0,0,0.044444444444444446,0,0)" xlink:href="#I"/><use transform="matrix(0.044444444444444446,0,0,0.044444444444444446,8.88888888888889,0)" xlink:href="#R"/><use transform="matrix(0.044444444444444446,0,0,0.044444444444444446,17.77777777777778,0)" xlink:href="#H"/><use transform="matrix(0.044444444444444446,0,0,0.044444444444444446,26.666666666666668,0)" xlink:href="#G"/><use transform="matrix(0.044444444444444446,0,0,0.044444444444444446,30.17777777777778,0)" xlink:href="#R"/><use transform="matrix(0.044444444444444446,0,0,0.044444444444444446,39.06666666666666,0)" xlink:href="#I"/></g><path d="M115-194c53 0 69 39 70 98 0 66-23 100-70 100C84 3 66-7 56-30L54 0H23l1-261h32v101c10-23 28-34 59-34zm-8 174c40 0 45-34 45-75 0-40-5-75-45-74-42 0-51 32-51 76 0 43 10 73 51 73" id="W"/><path d="M179-190L93 31C79 59 56 82 12 73V49c39 6 53-20 64-50L1-190h34L92-34l54-156h33" id="X"/><g id="l"><use transform="matrix(0.044444444444444446,0,0,0.044444444444444446,0,0)" xlink:href="#W"/><use transform="matrix(0.044444444444444446,0,0,0.044444444444444446,8.88888888888889,0)" xlink:href="#X"/></g><use transform="matrix(0.044444444444444446,0,0,0.044444444444444446,0,0)" xlink:href="#K" id="m"/><g id="n"><use transform="matrix(0.044444444444444446,0,0,0.044444444444444446,0,0)" xlink:href="#J"/><use transform="matrix(0.044444444444444446,0,0,0.044444444444444446,4.444444444444445,0)" xlink:href="#K"/><use transform="matrix(0.044444444444444446,0,0,0.044444444444444446,13.333333333333334,0)" xlink:href="#L"/></g><path d="M115-194c55 1 70 41 70 98S169 2 115 4C84 4 66-9 55-30l1 105H24l-1-265h31l2 30c10-21 28-34 59-34zm-8 174c40 0 45-34 45-75s-6-73-45-74c-42 0-51 32-51 76 0 43 10 73 51 73" id="Y"/><path d="M24 0v-261h32V0H24" id="Z"/><path d="M103-251c84 0 111 97 45 133-19 10-37 24-39 52H78c0-63 77-55 77-114 0-30-21-42-52-43-32 0-53 17-56 46l-32-2c7-45 34-72 88-72zM77 0v-35h34V0H77" id="aa"/><g id="o"><use transform="matrix(0.044444444444444446,0,0,0.044444444444444446,0,0)" xlink:href="#Y"/><use transform="matrix(0.044444444444444446,0,0,0.044444444444444446,8.88888888888889,0)" xlink:href="#O"/><use transform="matrix(0.044444444444444446,0,0,0.044444444444444446,17.77777777777778,0)" xlink:href="#Z"/><use transform="matrix(0.044444444444444446,0,0,0.044444444444444446,21.28888888888889,0)" xlink:href="#G"/><use transform="matrix(0.044444444444444446,0,0,0.044444444444444446,24.800000000000004,0)" xlink:href="#S"/><use transform="matrix(0.044444444444444446,0,0,0.044444444444444446,32.800000000000004,0)" xlink:href="#X"/><use transform="matrix(0.044444444444444446,0,0,0.044444444444444446,40.800000000000004,0)" xlink:href="#aa"/></g><g id="p"><use transform="matrix(0.044444444444444446,0,0,0.044444444444444446,0,0)" xlink:href="#P"/><use transform="matrix(0.044444444444444446,0,0,0.044444444444444446,5.288888888888889,0)" xlink:href="#R"/><use transform="matrix(0.044444444444444446,0,0,0.044444444444444446,14.177777777777779,0)" xlink:href="#M"/><use transform="matrix(0.044444444444444446,0,0,0.044444444444444446,22.177777777777777,0)" xlink:href="#O"/><use transform="matrix(0.044444444444444446,0,0,0.044444444444444446,31.066666666666666,0)" xlink:href="#T"/><use transform="matrix(0.044444444444444446,0,0,0.044444444444444446,39.955555555555556,0)" xlink:href="#P"/><use transform="matrix(0.044444444444444446,0,0,0.044444444444444446,45.24444444444445,0)" xlink:href="#S"/><use transform="matrix(0.044444444444444446,0,0,0.044444444444444446,53.24444444444445,0)" xlink:href="#R"/></g><path fill="#3a414a" d="M190 0L58-211 59 0H30v-248h39L202-35l-2-213h31V0h-41" id="ab"/><g id="q"><use transform="matrix(0.05,0,0,0.05,0,0)" xlink:href="#ab"/><use transform="matrix(0.05,0,0,0.05,12.950000000000001,0)" xlink:href="#y"/></g><path fill="#e81313" d="M24-248c120-7 223 5 221 122C244-46 201 0 124 0H24v-248zM76-40c74 7 117-18 117-86 0-67-45-88-117-82v168" id="ac"/><path fill="#e81313" d="M24 0v-248h195v40H76v63h132v40H76v65h150V0H24" id="ad"/><path fill="#e81313" d="M175 0L67-191c6 58 2 128 3 191H24v-248h59L193-55c-6-58-2-129-3-193h46V0h-61" id="ae"/><path fill="#e81313" d="M146-102V0H94v-102L6-248h54l60 105 60-105h54" id="af"/><g id="r"><use transform="matrix(0.05,0,0,0.05,0,0)" xlink:href="#ac"/><use transform="matrix(0.05,0,0,0.05,12.950000000000001,0)" xlink:href="#ad"/><use transform="matrix(0.05,0,0,0.05,24.950000000000003,0)" xlink:href="#ae"/><use transform="matrix(0.05,0,0,0.05,37.900000000000006,0)" xlink:href="#af"/></g><path fill="#3a414a" d="M137-103V0h-34v-103L8-248h37l75 118 75-118h37" id="ag"/><g id="s"><use transform="matrix(0.05,0,0,0.05,0,0)" xlink:href="#ag"/><use transform="matrix(0.05,0,0,0.05,10.35,0)" xlink:href="#w"/><use transform="matrix(0.05,0,0,0.05,20.35,0)" xlink:href="#x"/></g><path d="M206 0h-36l-40-164L89 0H53L-1-190h32L70-26l43-164h34l41 164 42-164h31" id="ah"/><g id="t"><use transform="matrix(0.044444444444444446,0,0,0.044444444444444446,0,0)" xlink:href="#K"/><use transform="matrix(0.044444444444444446,0,0,0.044444444444444446,8.88888888888889,0)" xlink:href="#Z"/><use transform="matrix(0.044444444444444446,0,0,0.044444444444444446,12.4,0)" xlink:href="#Z"/><use transform="matrix(0.044444444444444446,0,0,0.044444444444444446,15.911111111111111,0)" xlink:href="#O"/><use transform="matrix(0.044444444444444446,0,0,0.044444444444444446,24.8,0)" xlink:href="#ah"/><use transform="matrix(0.044444444444444446,0,0,0.044444444444444446,36.31111111111111,0)" xlink:href="#R"/><use transform="matrix(0.044444444444444446,0,0,0.044444444444444446,45.2,0)" xlink:href="#I"/></g><path fill="#54c45e" d="M199 0l-22-63H83L61 0H9l90-248h61L250 0h-51zm-33-102l-36-108c-10 38-24 72-36 108h72" id="ai"/><path fill="#54c45e" d="M24 0v-248h52v208h133V0H24" id="aj"/><path fill="#54c45e" d="M140-251c80 0 125 45 125 126S219 4 139 4C58 4 15-44 15-125s44-126 125-126zm-1 214c52 0 73-35 73-88 0-50-21-86-72-86-52 0-73 35-73 86s22 88 72 88" id="ak"/><path fill="#54c45e" d="M275 0h-61l-44-196L126 0H64L0-248h53L97-49l45-199h58l43 199 44-199h52" id="al"/><g id="u"><use transform="matrix(0.05,0,0,0.05,0,0)" xlink:href="#ai"/><use transform="matrix(0.05,0,0,0.05,12.950000000000001,0)" xlink:href="#aj"/><use transform="matrix(0.05,0,0,0.05,23.900000000000002,0)" xlink:href="#aj"/><use transform="matrix(0.05,0,0,0.05,34.85,0)" xlink:href="#ak"/><use transform="matrix(0.05,0,0,0.05,48.85,0)" xlink:href="#al"/></g></defs></g></svg>